<svg xmlns="http://www.w3.org/2000/svg" viewBox="0 0 4036.83 4142.6">
  <path d="M2153.74 219.55c0.26,-22.02 -1.85,-45.66 -6.33,-70.94 -8.03,-45.07 3.09,-84.63 33.9,-119.16 7.93,-8.85 17.22,-21.04 29.54,-28.19 1.42,-0.83 3.04,-1.27 4.68,-1.27 3.06,0 5.92,1.51 7.65,4.02 8.87,12.96 12.69,27.97 11.46,45.02 -3.77,53.58 -21.04,101.75 -51.79,144.49 -7.87,10.9 -16.39,20.14 -25.58,27.71 -0.39,0.31 -0.86,0.47 -1.36,0.47 -1.19,0 -2.17,-0.97 -2.17,-2.17zm-185.64 3879.3c0.04,0.16 0.06,0.34 0.06,0.51 0,1.17 -0.95,2.12 -2.13,2.12 -0.29,0 -0.57,-0.06 -0.83,-0.17 -29.66,-13.6 -47.43,-36.33 -53.3,-68.18 -0.02,-0.13 -0.04,-0.26 -0.04,-0.39 0,-1.2 0.97,-2.18 2.18,-2.18 0.55,0 1.08,0.21 1.49,0.59 21.18,19.98 46.71,18.33 64.02,-5.07 2.19,-2.97 3.93,-8.27 5.22,-15.91 4.59,-26.98 25.44,-43.28 52.13,-30.95 23.8,10.98 31.24,41.88 25.39,66.15 -5.71,23.99 -22.39,50.97 -48.55,59.29 -1.97,0.62 -4.02,0.94 -6.09,0.94 -4.85,0 -9.55,-1.77 -13.21,-4.96l-8.75 -7.64c-1.92,-1.66 -3.03,-4.08 -3.03,-6.63 0,-4.77 3.82,-8.67 8.6,-8.75 29.17,-0.58 45.05,-17.57 47.63,-50.97 0.87,-11.41 -6.96,-17.46 -17.7,-14.22 0.04,-0.02 0,-0.01 -0.04,0.01 -4.62,1.41 -7.25,6.22 -5.87,10.74 0.01,0.03 0.02,0.06 0.03,0.09 0.89,2.61 2.49,5.04 4.81,7.29 5.18,5.06 6.14,12.96 2.38,19.07 -7.23,11.88 -18.8,17.23 -34.73,16.04 -12.06,-0.87 -19.7,4.87 -22.92,17.22 -0.14,0.53 -0.21,1.09 -0.21,1.64 0,0.56 0.07,1.11 0.21,1.65l3.24 12.67zm-91.15 -173.17c-0.07,21.69 2.22,44.99 6.87,69.87 8.27,44.35 -2.32,83.42 -32.4,117.7 -7.74,8.8 -16.78,20.89 -28.87,28.05 -1.42,0.85 -3.04,1.3 -4.69,1.3 -2.99,0 -5.79,-1.46 -7.49,-3.91 -8.84,-12.7 -12.72,-27.47 -11.66,-44.29 3.26,-52.81 19.85,-100.41 49.76,-142.8 7.67,-10.8 16.01,-19.99 25,-27.56 0.38,-0.32 0.86,-0.49 1.35,-0.49 1.17,0 2.13,0.95 2.13,2.13 0,0 0,0 0,0.01l0 0zm749.35 -11.37c0.99,0.12 1.74,0.97 1.74,1.97 0,0.26 -0.05,0.51 -0.14,0.74 -4.42,11.54 -10.39,23.9 -17.94,37.09 -24.71,42.94 -65.62,25.73 -95.26,1.74 -8.58,-6.93 -13.18,-15.89 -13.83,-26.88 -1.84,-30.71 29.01,-27.37 48.89,-26.45 25.87,1.21 52.76,8.12 76.55,11.8zm-102.32 10.21c-2.13,10.97 8.69,22.47 24.21,25.49 0,0 0,0 0,0 15.52,3.02 29.87,-3.59 32.04,-14.76 2.17,-11.16 -8.65,-22.67 -24.16,-25.69 0,0 0,0 0,0 -15.52,-3.02 -29.87,3.59 -32.04,14.76l-0.04 0.2zm-142.95 94.1c-13.25,8.13 -31.19,-1.02 -42.36,-9.86 -13.12,-10.38 -22.42,-23.86 -27.9,-40.43 -8.7,-26.26 -9.58,-46.28 9.28,-67.56 11.38,-12.86 24.94,-16.65 40.67,-11.36 21.28,7.19 38.03,17.97 50.24,32.35 30.18,35.45 2.32,77.03 -29.93,96.86zm-32.49 -103.92c-9.54,5.71 -12.59,14.33 -9.14,25.87 0.53,1.82 1.81,3.47 3.53,4.49 15.33,8.62 30.61,32.31 49.03,13.21 6.96,-7.21 4.26,-16.15 -0.67,-24.76 -9.38,-16.22 -22.02,-23.08 -37.92,-20.6 -1.48,0.23 -3.13,0.82 -4.64,1.68l-0.19 0.1zm-644.02 -63.2c0.02,0 0.05,-0.01 0.07,-0.01 2.96,-0.21 5.52,2.05 5.73,5.03 0.01,0.02 0.01,0.04 0.01,0.06 1.83,30.18 2.79,46.5 2.85,48.99 1.11,37.33 -18.42,50.1 -52.75,51.79 -3.03,0.12 -5.96,1.15 -8.41,2.95 -16.38,11.9 -20.94,28.63 -13.69,50.2 0.01,0.02 0.02,0.04 0.02,0.06 1.19,3.68 -0.8,7.63 -4.46,8.82 -0.02,0.01 -0.04,0.01 -0.06,0.02 -33.85,10.64 -69.01,-21.56 -80.42,-49.85 -6.24,-15.57 -3.09,-49.81 21.91,-44.29 13.89,3.09 24.77,4.69 32.64,4.78 38.11,0.58 73.26,-28.39 66.98,-70.31 -0.04,-0.27 -0.06,-0.53 -0.06,-0.8 0,-2.89 2.21,-5.3 5.08,-5.54l24.57 -1.88zm340.34 246.04c3.35,-4.86 6.85,-9.46 10.49,-13.78 19.15,-22.63 25.21,-49.44 18.18,-80.42 -9.19,-40.28 -53.34,-48.02 -84.77,-27.81 -14.28,9.19 -23.66,24.84 -28.15,46.96 -1.35,6.8 -3.21,10.56 -5.56,11.27 -12.29,3.73 -27.71,-3.24 -35.35,-13.06 -3.25,-4.12 -5.88,-12.18 -7.88,-24.17 -3.74,-22.05 -4.42,-47.87 -2.03,-77.47 1.26,-15.48 4.16,-30.32 19.92,-35.06 56,-16.98 86.95,-22.92 113.93,-38.3 0.34,-0.19 0.72,-0.3 1.11,-0.3 1.21,0 2.21,0.97 2.23,2.18 0.22,21.86 4.68,42.75 13.35,62.67 0.08,0.17 0.12,0.37 0.12,0.56 0,0.75 -0.61,1.35 -1.35,1.35 -0.16,0 -0.32,-0.03 -0.46,-0.08 -37.84,-13.41 -74.42,-11.11 -109.72,6.91 -13.2,6.77 -15.52,17.65 -20.6,32.5 -2.47,7.2 -6.82,11.51 -12.82,17.65 -0.44,0.45 -0.69,1.06 -0.69,1.69 0,0.7 0.31,1.37 0.84,1.83 16.15,13.93 27.8,3.87 31.91,-13.1 3.44,-14.12 8.61,-32.25 23.21,-37.19 32.01,-10.73 72.39,-11.56 99.04,11.27 21.04,18.04 29.45,57.64 25.92,83.61 -1.13,8.28 -2.71,17.49 -4.74,27.61 -4.88,24.42 -22.92,42.99 -45.02,53.96 -0.13,0.08 -0.29,0.12 -0.44,0.12 -0.48,0 -0.87,-0.39 -0.87,-0.87 0,-0.2 0.07,-0.4 0.2,-0.56l0 0zm701.67 -250.68l38.88 -3.05c0.08,-0.01 0.16,-0.01 0.24,-0.01 1.84,0 3.33,1.5 3.33,3.34 0,0.26 -0.03,0.53 -0.09,0.78 -11.9,49.04 -42.89,79.79 -90.82,39.99 -13.92,-11.56 -18.32,-38.54 4.21,-43.53 0.22,-0.04 0.41,-0.06 0.59,-0.05 1.36,0.05 2.42,1.21 2.37,2.6 -0.01,0.18 -0.03,0.36 -0.07,0.54 -9.42,37.15 22.06,40.34 44.59,24.09 2.14,-1.57 3.41,-4.06 3.41,-6.72 0,-1.78 -0.57,-3.51 -1.62,-4.94l-6.77 -9.18c-0.32,-0.42 -0.48,-0.93 -0.48,-1.46 0,-1.27 0.97,-2.31 2.23,-2.41l0 0.01zm-1319.73 92.41c-1.03,-1.82 -0.41,-4.18 1.41,-5.25 18.12,-10.2 24.85,-23.98 20.21,-41.32 -3.63,-13.45 -2.71,-20.94 11.03,-25.87 36.95,-13.25 70.12,-6.77 108.37,6.14 8.22,2.81 16.28,3.35 24.18,1.65 24.53,-5.32 36.15,-20.2 34.87,-44.63 -0.01,-0.1 -0.01,-0.2 -0.01,-0.31 0,-2.16 1.42,-4.06 3.49,-4.68 3.42,-1 7.75,0.29 13.01,3.87 24.37,16.74 30.95,40.19 15.19,65.96 -16.73,27.27 -42.02,30.75 -71.67,24.42 -32.2,-6.96 -47.78,2.8 -61.8,31.1 -5.97,11.99 -7.37,24.85 -4.21,38.58 0.06,0.27 0.1,0.54 0.1,0.82 0,1.72 -1.25,3.17 -2.95,3.44 -38.4,6 -73.26,-22.29 -91.21,-53.92zm978.27 172.2c0.59,0.03 1.05,0.52 1.05,1.11 0,0.44 -0.26,0.84 -0.66,1.02 -84.77,42.17 -179.45,-89.07 -206,-153.82 -12.82,-31.19 -22.83,-58.08 -13.93,-90.48 5.48,-20.08 15.9,-34.06 31.24,-41.92 11.36,-5.85 14.22,-10.73 21.57,-21.23 1.73,-2.57 4.87,-4.08 8.13,-3.83 34.42,3.06 39.31,34.98 31.86,64.71 -5.64,22.44 -8.95,39.46 -9.91,51.07 -4.32,53.03 6.98,98.29 33.9,135.79 25.08,34.91 59.33,54.11 102.76,57.59zm515.16 -342.37c1.59,0.12 2.82,1.44 2.82,3.04 0,0.33 -0.06,0.66 -0.16,0.97 -4.35,13.19 -10.23,23.47 -17.65,30.86 -13.93,13.92 -67.6,12.28 -85.93,9.91 -28.68,-3.63 -19.88,-39.51 -3.92,-50.88 1.36,-0.97 2.89,-1.59 4.49,-1.84l40.92 -7.15c2.66,-0.4 5.21,-0.01 7.46,1.09 16.37,7.91 33.69,12.58 51.97,14zm-770.34 344.79c-0.92,-41.01 -14.8,-79.94 -23.93,-123.7 -5.97,-28.73 -17.38,-59.84 -34.24,-93.33 -15.57,-31 -23.5,-80.03 13.98,-103.58 5.58,-3.48 11.83,-8.24 18.76,-14.27 10.2,-8.85 7.64,-25.05 7.64,-35.01 0.01,-2.92 2.33,-5.3 5.25,-5.42 8.4,-0.32 15.87,1.19 22.41,4.55 27.95,14.41 39.38,37.88 34.28,70.41 -0.61,3.69 -2.44,6.95 -5.18,9.33 -58.36,51.31 -20.6,123.76 4.31,179.03 16.64,36.85 -12.86,88.26 -40.58,113.16 -0.14,0.13 -0.31,0.24 -0.49,0.32 -0.82,0.33 -1.75,-0.09 -2.09,-0.93 -0.07,-0.17 -0.11,-0.36 -0.12,-0.55zm-459.49 3.14c-0.29,0.48 -0.81,0.78 -1.37,0.78 -0.88,0 -1.59,-0.71 -1.59,-1.59 0,-0.09 0.01,-0.17 0.02,-0.26 1.13,-8.09 3.3,-25.03 6.52,-50.82 1.23,-9.83 1.28,-18.31 0.15,-25.44 -1.11,-7.13 -4.95,-13.57 -10.69,-17.95 -3.58,-2.74 -7.71,-5.77 -12.38,-9.09 -16.44,-11.65 -18.28,-44.92 5.9,-49.08 58.27,-10.11 50.88,-61.17 46.23,-105.08 -0.36,-3.16 0.28,-6.53 1.85,-9.47 5.79,-10.5 13.62,-16.78 13.77,-31.78 0.07,-8.22 0.5,-15.9 1.31,-23.02 0.19,-1.5 0.85,-2.88 1.86,-3.98l47.23 -51.43c0.22,-0.23 0.52,-0.36 0.84,-0.36 0.38,0 0.74,0.18 0.95,0.5 9.18,13.25 10.15,26.85 2.9,40.81 -22.83,43.88 -38.95,80.38 -48.36,109.53 -15.47,47.82 -18.47,93.47 -8.08,140.76 1.17,5.34 0.2,10.84 -2.67,15.37l-44.38 71.58zm1329.93 -410.12c-7.59,27.8 -23.93,41.78 -53.78,47.83 -35.98,7.3 -61.07,8.65 -94.97,-6.87 -1.8,-0.82 -3.11,-2.39 -3.59,-4.29 -2.44,-9.17 -0.44,-17.31 6.01,-24.43 1.15,-1.28 2.74,-2.09 4.45,-2.27 7.45,-0.71 25.23,-3.05 53.34,-7.01 12.09,-1.71 22.78,-6.45 32.06,-14.22 2.33,-1.93 5.26,-2.99 8.28,-2.99 0.9,0 1.81,0.1 2.7,0.29l42.6 9.23c-0.03,-0.01 0,0 0.03,0.01 2.08,0.48 3.38,2.54 2.91,4.59 -0.01,0.03 -0.01,0.06 -0.02,0.08l-0.02 0.06zm-582.9 237.05c-0.17,0.86 -0.92,1.49 -1.81,1.49 -0.77,0 -1.46,-0.48 -1.73,-1.2 -8.28,-25.53 -24.13,-44.23 -47.54,-56.09 -28.63,-14.51 -50.73,-23.21 -79.55,-11.41 -0.37,0.15 -0.77,0.23 -1.18,0.23 -1.74,0 -3.14,-1.41 -3.14,-3.14 0,-0.11 0.01,-0.22 0.02,-0.33 1.64,-16.73 6.43,-32.49 2.32,-45.74 -8.22,-26.41 -43.09,-35.21 -66.98,-33.46 -8.61,0.64 -13.46,0.9 -14.56,0.78 -1.62,-0.17 -2.96,-1.25 -3.45,-2.75 -4.73,-14.42 -12.76,-27.59 -24.07,-39.52 -2.28,-2.38 -2.87,-5.89 -1.53,-8.89 6.7,-15.33 15.75,-44.2 30.59,-53.3 1.34,-0.83 2.87,-1.28 4.42,-1.31 59.31,-0.82 76.87,47.39 89.15,95.99 8.9,35.15 38.93,72.82 76.84,78.92 19.73,3.19 37.53,8.8 51.79,24.27 4.9,5.29 6.01,10.46 3.34,15.52 -6.32,11.96 -10.64,25.28 -12.96,39.95zm-772.13 -260.99c0.17,-0.48 0.63,-0.8 1.14,-0.8 0.39,0 0.76,0.19 0.99,0.51 19.53,29.56 35.09,59.37 46.66,89.41 1.61,4.28 1.88,8.64 0.91,12.82l-9.66 44.49c-0.79,4.08 -4.2,7.37 -8.49,8.05 -5.66,0.79 -10.56,0.83 -14.72,0.12 -1.79,-0.31 -3.32,-1.46 -4.11,-3.1 -10.06,-21.18 -21.57,-40.43 -48.7,-35.2 -0.15,0.03 -0.29,0.04 -0.41,0.04 -1.36,0.02 -2.49,-1.04 -2.51,-2.37 0,-0.14 0.01,-0.28 0.03,-0.41 1.19,-9.71 3.8,-19.41 7.83,-29.08 9.45,-22.69 19.79,-50.86 31.05,-84.48zm125.49 369.45c-0.72,0.93 -1.83,1.48 -3.01,1.48 -0.56,0 -1.12,-0.12 -1.63,-0.36 -33.51,-16.15 -29.11,-91.1 -23.07,-122.15 11.29,-58 34.27,-111.95 68.96,-161.86 6.33,-9.14 19.05,-19.2 31.96,-23.74 29.88,-10.54 68.52,-25.73 87.23,-53.72 7.3,-10.93 15.52,-22.39 29.01,-23.51 23.75,-1.93 49.86,9.38 64.32,29.79 15.37,21.71 28.43,36.75 55.32,41.11 3.57,0.58 6.5,3.15 7.54,6.62 3.94,13.22 0.18,24.04 -11.27,32.45 -25.53,18.76 -35.83,25.73 -49.03,49.61 -1.74,3.17 -4.35,5.99 -7.51,8.04 -10.89,7.02 -23.51,12.37 -37.85,16.04 -32.01,8.17 -59.24,14.6 -84.87,27.18 -68.7,33.72 -109.77,89.26 -123.22,166.59 -0.42,2.29 -1.39,4.44 -2.9,6.43zm163.31 -235.11c18.23,-6.96 38.25,-20.16 46.47,-38.25 6.96,-15.33 2.95,-31.92 -13.68,-38.49 -20.12,-7.93 -34.28,0.63 -58.46,9.86 -24.13,9.28 -40.43,12.43 -50,31.77 -7.98,16.06 0.14,31.05 15.57,37.77 18.19,7.93 41.88,4.35 60.11,-2.66zm717.39 -167.56c3.42,2.13 6.54,6.19 9.38,12.18 4.87,10.41 12.38,24.47 22.54,42.17 0.69,1.2 1.06,2.57 1.06,3.96 0,1.77 -0.59,3.49 -1.68,4.89l-11.85 15.28c-0.83,1.03 -2.08,1.63 -3.4,1.63 -0.86,0 -1.69,-0.25 -2.4,-0.72 -9.76,-6.41 -16.79,-15.07 -21.08,-25.97 -0.4,-1 -0.55,-2.07 -0.44,-3.12l5.66 -49.2c0.1,-0.75 0.74,-1.31 1.49,-1.31 0.26,0 0.51,0.07 0.74,0.19l0 0.01zm14.36 253.3l-46.81 3.63c-1.4,0.08 -2.65,-0.08 -3.82,-0.44 -32.11,-10.48 -63.88,-20.4 -96.76,-21.27 -3.88,-0.15 -7.38,-1.84 -9.77,-4.67 -17.54,-20.23 -43.27,-6.45 -52.9,12.45 -0.58,1.12 -1.74,1.82 -3,1.82 -1.12,0 -2.17,-0.56 -2.8,-1.49 -15.33,-22.87 -35.06,-29.98 -64.65,-36.31 -35.72,-7.61 -58.21,-32.37 -67.46,-74.28 -0.04,-0.17 -0.06,-0.35 -0.06,-0.52 0,-0.84 0.44,-1.62 1.17,-2.04l37.33 -21.57c1.7,-1.03 4,-0.49 5.14,1.26 20.3,32.74 31.75,59.53 76.48,61.32 28.68,1.16 61.56,-0.48 94.49,6.33 5.82,1.21 11.9,0.23 17.07,-2.76l18.76 -10.83c0.96,-0.55 2.05,-0.84 3.15,-0.84 1.66,0 3.25,0.65 4.44,1.8 11.8,11.37 23.89,25.34 40.62,27.81 0.06,0 0.11,0.01 0.17,0.01 1.04,0 1.88,-0.85 1.88,-1.89 0,-0.65 -0.34,-1.26 -0.89,-1.6 -13.83,-7.57 -24.6,-18.6 -32.31,-33.08 -0.76,-1.35 -1.2,-2.98 -1.26,-4.63 -0.26,-14.32 3.11,-27.25 10.11,-38.79 0.03,-0.05 0.06,-0.09 0.09,-0.13 1.31,-1.95 3.94,-2.48 5.86,-1.17 0.05,0.03 0.09,0.07 0.14,0.1 16.98,12.33 30.47,20.65 52.23,15.38 13.92,-3.38 21.47,-11.72 22.63,-25 0.15,-1.6 1.21,-2.96 2.71,-3.48 13.48,-4.84 24.18,-12.56 32.11,-23.16 0.74,-1 1.9,-1.58 3.14,-1.58 0.5,0 0.99,0.09 1.45,0.28 10.93,4.45 19,6.22 24.23,5.32 32.16,-5.7 33.94,-28 30.46,-54.84 -0.01,-0.07 -0.02,-0.14 -0.02,-0.2 -0.08,-1.41 1.03,-2.62 2.48,-2.7 0.05,0 0.11,0 0.16,0 7.53,0.07 14.14,0.31 19.82,0.72 28.92,2.13 40.52,-24.18 46.42,-47.44 0.27,-1.07 1.24,-1.82 2.34,-1.82 0.45,0 0.9,0.13 1.29,0.37 25.05,16.01 46.04,28.19 76.35,17.99 1.55,-0.54 3.31,-0.15 4.54,1.01 12.58,11.86 12.58,36.47 2.28,50.25 -3.58,4.77 -12.15,8.35 -25.73,10.73 -21.73,3.84 -36.85,5.39 -45.36,4.65 -22.63,-2.03 -29.54,18.91 -38.54,36.99 -1.49,2.89 -4.15,4.83 -7.23,5.34 -37.79,6.61 -50.66,41.18 -64.82,72.95 -2.44,5.34 -7.7,8.64 -13.42,8.5 -24.54,-0.38 -31.45,0.93 -51.38,-1.59 -11.94,-1.45 -29.4,1.5 -35.16,13.73 -13.2,28.1 5.32,40.19 23.65,56.15 0.41,0.35 0.65,0.86 0.65,1.4 0,0.96 -0.75,1.77 -1.72,1.83l0 0zm-0.78 -313.7c7.3,-0.43 15.67,5.56 21.13,7.89 31.48,13.39 76.94,50.44 77.9,88.68 0.97,40.48 -42.55,43.38 -60.93,13.06 -8.67,-14.31 -18.34,-31.72 -29.01,-52.22 -0.47,-0.88 -0.79,-1.78 -0.97,-2.71l-10.1 -52.08c-0.03,-0.15 -0.05,-0.3 -0.05,-0.44 0,-1.14 0.88,-2.09 2.03,-2.17l0 0zm-1613.88 181.49c-0.14,-1.33 0.69,-2.58 2,-3 13.05,-4.15 29.4,-8.41 49.07,-12.76 23.15,-5.13 38.96,-10.46 47.44,-16.01 21.02,-13.7 32.4,-35.22 34.14,-64.56 0.23,-3.58 2.86,-6.54 6.39,-7.2 18.83,-3.52 33.22,-6.43 43.18,-8.75 33.17,-7.69 44.44,-36.27 46.96,-66.83 0.28,-3.36 2.35,-6.3 5.43,-7.7 32.67,-14.98 67.63,-12.22 101.92,-7.34 49.23,7.03 85.72,33.72 109.48,80.08 18.25,35.59 29.42,57.59 33.52,66.01 1.51,3.14 2.42,6.15 2.86,9.22 1.78,11.09 -4.41,27.24 -3.73,38.61 2.85,45.65 18.43,60.49 63.83,60.64 2.14,0.02 3.97,1.53 4.41,3.62 2.45,12.61 -1.86,22.04 -12.91,28.29 -18.08,10.2 -34,2.08 -58.51,-5.27 -27.18,-8.08 -55.61,-8.37 -81.24,-1.89 -12.24,3.1 -30.75,13.15 -28.82,27.81 1.16,8.94 6.04,21.28 1.93,28.92 -8.46,15.86 -31.63,20.6 -49.32,24.47 -35.91,7.8 -75.02,9.82 -117.31,6.04 -36.24,-3.23 -64.66,-13.57 -85.25,-31.05 -45.6,-38.74 -77.09,-92.22 -113.4,-135.4 -1.1,-1.29 -1.78,-3.28 -2.03,-5.95zm236.86 -109.22c0.01,0 0.01,0 0.01,0 -1.24,14.12 14.99,27.08 36.25,28.95 0,0 0,0 0,0 0,0 0,0 0,0 21.25,1.86 39.5,-8.08 40.73,-22.21 0,0 0,0 0,0 1.24,-14.12 -15,-27.09 -36.25,-28.95 0,0 0,0 0,0 0,0 0,0 0,0 -21.25,-1.86 -39.49,8.09 -40.73,22.21l-0.01 0zm-115.33 76.78c1.81,18.31 17.73,31.29 47.78,38.93 33.9,8.61 68.28,-12.67 64.61,-50 -3.68,-37.28 -41.49,-51.45 -73.07,-36.41 -28.01,13.38 -41.12,29.21 -39.31,47.49zm147.86 5.89c-8.93,17.52 4.73,42.81 30.7,56.05 0,0 0,0 0,0 25.98,13.24 54.46,9.43 63.61,-8.51 9.14,-17.94 -4.51,-43.22 -30.49,-56.47 0,0 0,0 0,0 -25.98,-13.24 -54.46,-9.43 -63.61,8.51l-0.21 0.42zm-212.81 33.91c-17.36,28.92 0.72,53.82 25.14,73.7 7.45,6.09 16.44,13.64 27.03,14.02 32.01,1.16 29.45,-39.65 23.84,-61.02 -6.91,-26.11 -24.42,-38.74 -50.48,-39.17 -11.93,-0.19 -20.44,3.97 -25.53,12.48zm141.88 23.5c-18.91,1.89 -41.15,11.37 -43.38,30.61 -2.71,23.26 4.01,54.98 23.84,68.77 30.61,21.37 84.48,16.83 117.85,7.25 14.8,-4.23 22.89,-13.68 24.28,-28.39 2.27,-24.61 -16.2,-41.69 -35.74,-55.42 -26.21,-18.41 -55.16,-26.02 -86.85,-22.83zm1237.04 -258.62c43.13,13.78 81.29,29.01 114.46,59.58 33.32,30.61 26.79,62.09 17.5,101.11 -1.18,4.79 0.67,9.88 4.69,12.82 13.06,9.47 35.64,23.98 38.59,35.25 1.62,6.18 -2.51,12.66 -9.34,14.77 -25.52,7.96 -44.43,-10.42 -63.05,-26.76 -2.01,-1.77 -4.32,-3.43 -6.79,-4.85 -34.65,-19.66 -57.18,-28.75 -64.3,-66.42 -5.66,-30.08 -13.98,-53.14 -30.46,-76.45 -5.84,-8.22 -8.71,-15.05 -8.61,-20.5 0.1,-8.48 1.08,-17.14 2.95,-25.97 0.34,-1.58 1.74,-2.71 3.36,-2.71 0.34,0 0.67,0.05 1,0.15l0 0zm-531.02 55.76c0.84,0.93 1.69,3.88 2.57,8.85 0.11,0.7 0.58,1.33 1.24,1.63 1.5,0.65 2.76,0.48 3.79,-0.52 0.39,-0.38 0.6,-0.9 0.6,-1.44 0,-0.23 -0.04,-0.46 -0.12,-0.68l-4.55 -13.2c-0.76,-2.23 -0.4,-4.66 0.94,-6.56l30.97 -44.79c0.15,-0.22 0.32,-0.4 0.5,-0.57 1.33,-1.2 3.36,-1.11 4.54,0.2 0.17,0.19 0.31,0.39 0.43,0.61 9.83,17.59 17.12,29.79 21.85,36.6 8.66,12.48 21.77,20.07 34.77,28.14 16.64,10.38 34.61,14.33 53.92,11.85 1.7,-0.23 3.38,0.63 4.21,2.17 9.35,18.19 17.96,34.75 25.82,49.67 8.64,16.41 12.24,34.37 10.79,53.87 -0.01,0.08 -0.03,0.28 -0.06,0.48 -0.6,4.31 -4.61,7.31 -8.95,6.7 -0.19,-0.03 -0.38,-0.06 -0.56,-0.1 -8.68,-2.05 -18.06,-4.11 -28.16,-6.21 -9.38,-1.93 -17.52,-0.69 -24.42,3.73 -1.56,0.99 -3.36,1.35 -5.1,1.05 -23.77,-3.76 -32.52,-18.12 -45.33,-34.37 -17.5,-22.25 -38.64,-35.3 -67.56,-36.07 -30.95,-0.78 -37.77,26.41 -59.19,42.36 -23.6,17.61 -50.55,30.19 -80.85,37.77 -2.13,0.52 -4.3,-0.48 -5.24,-2.41 -2.83,-5.61 -3.71,-12.1 -2.64,-19.45 6.29,-43.47 30.13,-72.78 69.63,-87.96 15.12,-5.83 22.78,-8.78 22.97,-8.85 15.09,-6.53 22.49,-12.14 38.59,-23.07 0.58,-0.4 1.27,-0.61 1.98,-0.61 1.01,0 1.96,0.44 2.62,1.19l-0.01 0zm18.94 -18.23c-0.75,0.72 2.72,5.63 7.8,10.89 0,0 0,0 0,0 5.08,5.26 9.86,8.9 10.66,8.12 0,0 0,0 0,0 0.81,-0.78 -2.66,-5.68 -7.74,-10.94 0,0 0,0 0,0 -5.08,-5.26 -9.86,-8.9 -10.67,-8.12 0,0 0,0 0,0l-0.05 0.05zm126.81 60.69c-0.42,-0.55 -1.17,-0.67 -1.7,-0.29 0,0 -0.01,0.01 -0.01,0.01 -0.13,0.1 -0.22,0.27 -0.22,0.45 0,0.11 0.03,0.21 0.09,0.31 17.17,29.98 29.4,48.79 36.6,73.5 0.18,0.58 0.76,0.92 1.31,0.77 0.01,0 0.01,0 0.01,0l0.04 -0.05c0.48,-0.11 0.83,-0.54 0.83,-1.04 0,-0.06 -0.01,-0.11 -0.01,-0.17 -1.52,-8.67 -3.88,-16.28 -7.11,-22.82 -9.47,-19.28 -19.42,-36.18 -29.84,-50.68zm272.74 -111.9c0.59,-2.11 2.51,-3.58 4.71,-3.58 1.08,0 2.13,0.36 2.98,1.02 30.95,23.66 61.56,48.52 91.83,74.57 5.45,4.71 9.19,10.61 11.22,17.7 10.29,35.72 16.36,56.26 18.23,61.61 9.96,28.29 33.61,39.51 55.76,54.65 4.28,2.91 5.9,8.51 3.79,13.29 -7.85,17.64 -7.55,35.39 0.9,53.25 0.28,0.57 0.42,1.2 0.42,1.84 0,1.22 -0.52,2.38 -1.43,3.19 -6.35,5.8 -13.27,9.72 -20.74,11.75 -1.77,0.48 -3.54,0.5 -5.21,0.08 -20.42,-4.98 -42.86,-7.05 -67.33,-6.22 -39.99,1.36 -65.28,-2.12 -85.54,-34.04 -9.25,-14.57 -15.1,-25.45 -17.56,-32.64 -0.13,-0.38 -0.21,-0.77 -0.24,-1.15l-0.96 -12.19c-0.18,-2.33 -0.92,-4.65 -2.15,-6.68 -23.17,-37.81 -27.22,-79.01 -12.17,-123.6 12.35,-36.46 20.18,-60.74 23.51,-72.82zm-767.34 -4.16c4.71,6.77 8.61,14.7 11.7,23.79 16.54,48.84 29.06,105.42 12.04,151.32 -15.73,42.3 -25.26,68.54 -28.58,78.73 -3.14,9.76 -3.97,20.74 -5.27,27.95 -0.56,3.01 -2.74,5.46 -5.66,6.39 -14.15,4.48 -23.63,0.55 -28.44,-11.8 -10.35,-26.4 -10.39,-42.56 -13.59,-77.08 -0.19,-1.89 -0.17,-3.83 0.05,-5.75 7.49,-67.12 28.05,-131.97 53.77,-193.1 0.35,-0.85 1.18,-1.41 2.1,-1.41 0.75,0 1.44,0.37 1.87,0.97l-0.01 0zm414.14 -30.42c19.68,39.66 37.09,70.84 81,83.86 2.66,0.53 4.74,2.82 5.02,5.6l1.41 17.12c0,0.03 0.01,0.09 0.01,0.14 0.19,3.65 -2.59,6.77 -6.22,6.96 -0.07,0.01 -0.13,0.01 -0.19,0.01 -48.72,1.02 -74.4,-34.72 -92.05,-74.85 -0.31,-0.75 -0.4,-1.57 -0.25,-2.36l7.79 -36.04c0.05,-0.26 0.16,-0.52 0.33,-0.74 0.61,-0.81 1.78,-0.96 2.61,-0.33 0.21,0.16 0.4,0.37 0.53,0.61l0.01 0.02zm926.87 -4.69c0.12,-0.07 0.23,-0.13 0.35,-0.17 1.27,-0.49 2.69,0.13 3.17,1.37 0.05,0.12 0.08,0.23 0.11,0.36 7.8,34.07 23.73,62.58 47.77,85.53 1.32,1.24 2.06,2.94 2.08,4.73 0.1,3.07 -0.29,10.14 -1.16,21.23 -3.19,41.93 34.19,70.41 72.29,68.57 0.44,-0.02 0.89,0.03 1.33,0.15 2.37,0.63 3.79,3.05 3.16,5.4 -0.12,0.44 -0.31,0.87 -0.56,1.26 -3.61,5.58 -8.79,9.06 -15.53,10.41 -17.22,3.48 -31.82,8.03 -42.46,8.71 -3.12,0.1 -7.02,-0.25 -10.82,-1.05l-52.15 -11.91c-1.44,-0.31 -2.39,-1.75 -2.09,-3.2l2.04 -9.38c0.41,-1.77 0.12,-3.71 -0.83,-5.34l-17.31 -30.01c-1.52,-2.7 -1.17,-5.97 0.83,-8.24 23.15,-26.77 27.07,-42.24 15.56,-77.02 -5.77,-17.5 -14.74,-32.63 -26.89,-45.36 -0.48,-0.51 -0.75,-1.18 -0.75,-1.88 0,-0.96 0.51,-1.85 1.33,-2.33l20.5 -11.84zm-2189.3 76.74c-0.18,-0.35 -0.28,-0.74 -0.28,-1.13 0,-1.06 0.68,-1.99 1.68,-2.31 24.37,-8.15 45.69,-21.1 63.98,-38.83 1.25,-1.19 2.91,-1.86 4.64,-1.86 0.18,0 0.36,0.01 0.54,0.02 14.57,1.19 24.56,9.59 29.98,25.2 4.09,11.7 7.81,25.1 11.17,40.19 0.29,1.25 0.47,2.53 0.54,3.82 0.53,10.93 3.14,36.85 16.92,33.8 1.69,-0.37 3.31,-1.35 4.49,-2.78 23.03,-28.62 35.68,-59.66 37.97,-93.11 0.12,-2.11 1.04,-4.2 2.58,-5.78 25.13,-25.26 52.37,-33.89 81.71,-25.89 23.31,6.38 36.56,0.09 58.18,-9.48 1.98,-0.9 4.11,-1.45 6.28,-1.65 46.16,-4.06 73.41,17.22 81.73,63.84 3.8,21.21 5.77,34.19 5.9,38.93 0.11,3.85 -0.14,7.08 -0.73,10.25l-3.82 21.86c-0.63,3.69 -0.32,7.44 0.89,10.95l9.41 27.54c0.07,0.26 0.13,0.53 0.19,0.82 6.35,41.1 -11.35,66.62 -53.1,76.55 -56.61,13.51 -110.76,21.48 -162.44,23.93 -23.5,1.11 -41.25,-0.39 -61.36,-13.44 -18.51,-12.03 -34.17,-26.24 -47.01,-42.66 -34.76,-44.36 -64.76,-90.62 -90.04,-138.78zm255.47 60.4c17.09,-1.1 31.68,-7.78 43.77,-20.07 9.62,-9.86 11.61,-27.95 -1.3,-36.65 -13.21,-8.94 -32.5,-10.73 -46.81,-9.82 -14.27,0.92 -33.17,5.18 -45.12,15.76 -11.65,10.3 -7.4,28 3.44,36.51 13.57,10.64 28.92,15.39 46.03,14.27zm118.87 50.15c3.71,-12.96 -0.66,-22.62 -13.1,-28.97 -31,-15.86 -59.53,-0.67 -88.79,10.69 -9.35,3.64 -15.03,10.46 -17.02,20.45 -3.48,17.65 9.82,29.55 25.63,34.48 32.64,10.25 82.45,1.02 93.28,-36.65zm-248.95 -15.19c-26.59,49.67 74.62,91.69 96.14,51.55 21.52,-40.14 -69.54,-101.16 -96.14,-51.55zm-77.08 -154.55c0.06,0.43 0.08,0.86 0.08,1.29 0,4.59 -2.87,8.69 -7.19,10.26 -23.4,8.51 -66.54,23.26 -91.06,8.37 -17.67,-10.67 -32.05,-20.81 -43.14,-30.42 -7.25,-6.28 -12.62,-22.05 -0.1,-25.82 23.08,-7 44.35,-11.41 63.78,-13.25 34.62,-3.24 73.26,11.46 77.61,49.56zm-96.66 -19.05c0.01,-0.06 0.01,-0.06 0.01,-0.06 -0.21,11.72 13.35,21.46 30.28,21.76 0,0 0,0 0,0 16.93,0.3 30.82,-8.96 31.02,-20.69 0,0 0,0 0,0 0,0 0,0 0,0 0.21,-11.71 -13.35,-21.46 -30.28,-21.76 0,0 0,0 0,0 -16.93,-0.3 -30.82,8.97 -31.02,20.69 0,0 0,0 0,0l-0.01 0.06zm168.04 97.97c-0.36,0.57 -0.99,0.91 -1.66,0.91 -0.98,0 -1.81,-0.71 -1.96,-1.68 -4.69,-32.84 -6.29,-73.7 -45.21,-77.32 -1.9,-0.17 -3.54,-1.51 -4.1,-3.37l-2.96 -10.03c-0.02,-0.06 -0.03,-0.12 -0.05,-0.17 -0.27,-1.26 0.52,-2.49 1.75,-2.75 0.06,-0.02 0.12,-0.03 0.19,-0.03 2.83,-0.39 25.64,-8.17 68.42,-23.36 12.77,-4.54 25.97,-5.9 37.86,-7.4 22.63,-2.76 38.88,-16.54 46.76,-38.44 0.7,-1.97 2.51,-3.34 4.59,-3.49 14.65,-1.06 32.3,-5.07 51.74,1.45 16.54,5.56 24.76,18.95 25.15,36.22 0.38,18.67 -17.36,27.71 -32.74,27.13 -36.75,-1.42 -70.2,7.28 -100.34,26.11 -11.65,7.3 -19.63,19.49 -26.02,34.57 -6.38,15.09 -13.52,28.97 -21.42,41.64zm2087.41 -172.05c8.77,2.38 20.03,7.8 33.8,16.25 48.02,29.45 111.95,89.8 69.97,151.5 -2.08,3.03 -5.47,4.72 -9,4.54 -50.96,-1.79 -82.68,-47.63 -95.11,-93.81 -6.51,-24.24 -7.64,-49.61 -3.39,-76.12 0.23,-1.43 1.46,-2.49 2.91,-2.49 0.28,0 0.55,0.04 0.81,0.12l0 0zm-1687.48 -20.65c-5.68,16.67 -11.22,34.06 -16.64,52.18 -5.97,19.95 -8.78,45.34 -8.46,76.16 0.1,12.51 -1.32,32.46 -4.26,59.86 -1.97,18.47 -10.72,38.09 -26.26,58.85 -1.16,1.49 -2.59,2.58 -4.21,3.23l-29.98 12.01c-0.81,0.33 -1.68,0.5 -2.56,0.5 -2.64,0 -5.04,-1.51 -6.19,-3.88 -13.79,-28.57 -3.1,-40.38 4.98,-67.07 5.42,-17.94 -2.85,-45.12 -11.36,-63.35 -1.22,-2.77 -1.6,-5.62 -1.18,-8.43 8.58,-59.08 51.76,-97.47 102.2,-123.44 0.39,-0.2 0.82,-0.3 1.25,-0.3 1.55,0 2.81,1.26 2.81,2.81 0,0.3 -0.05,0.59 -0.14,0.87l0 0.01zm1824.48 201.75c3.24,5.71 6.82,8.66 14.12,6.04 16.78,-6.09 54.11,-17.12 71.19,-9.23 0.25,0.12 0.49,0.26 0.71,0.43 1.62,1.27 1.92,3.59 0.67,5.19 -0.18,0.23 -0.38,0.43 -0.61,0.61 -9.25,7.39 -16.28,15.96 -21.08,25.73 -5.85,11.85 -6.77,19.1 -1.16,32.45 4.94,11.73 7.48,18.92 7.64,21.57 1.29,19.99 -7.16,34.83 -25.34,44.54 -12.25,6.54 -22.54,10.01 -30.85,10.4 -0.18,0.01 -0.37,-0.02 -0.56,-0.07 -0.92,-0.27 -1.46,-1.21 -1.21,-2.11 0.06,-0.19 0.14,-0.37 0.26,-0.53 14.71,-20.25 16.3,-42.2 4.79,-65.87 -8.95,-18.32 -37.48,-26.16 -43.71,0 -0.33,1.45 -1.61,2.49 -3.1,2.52 -5.38,0.13 -9.22,-0.64 -11.51,-2.32 -23.76,-17.47 -36.98,-40.97 -39.66,-70.5 -0.01,-0.1 -0.01,-0.19 -0.01,-0.29 0,-2.06 1.67,-3.73 3.73,-3.73 0.28,0 0.56,0.04 0.83,0.1 18.42,4.35 32.16,7.98 51.21,1.5 13.03,-4.45 22.28,-12.94 27.76,-25.49 9.43,-21.57 12.33,-44.73 -2.41,-65.38 -10.19,-14.28 -16.01,-22.58 -17.46,-24.9 -2.38,-3.78 -3.86,-8.08 -4.31,-12.53 -3.53,-36.12 -2.08,-79.79 36.32,-92.55 2.8,-0.99 5.99,-0.75 8.71,0.68 40.66,21.85 81.13,38.73 126.59,41.59 2.72,0.16 4.88,2.35 5.03,5.07 1.31,28.29 30.7,36.37 52.9,36.76 10.29,0.19 15.44,0.3 15.47,0.34 0.89,0.17 1.53,0.94 1.53,1.85 0,0.38 -0.11,0.74 -0.32,1.05 -11.56,17.12 -28.48,35.88 -31.91,63.01 -2.9,22.76 -2.71,43.99 0.58,63.69 3.96,23.55 10.97,50.58 12.96,75.87 3.22,40.98 -2,81.71 -15.67,122.2 -14.31,42.36 -40.17,75.71 -77.57,100.05 -0.16,0.12 -0.35,0.18 -0.55,0.18 -0.51,0 -0.92,-0.41 -0.92,-0.92 0,-0.18 0.06,-0.37 0.16,-0.52 24.92,-38.32 39.88,-80.88 44.88,-127.66 4.51,-42.33 -4.09,-82.21 -25.82,-119.64 -22.1,-38.06 -37.43,-60.5 -82.89,-50.97 -10.7,2.26 -21.55,5.98 -32.55,11.17 -2.54,1.19 -7.64,0.72 -15.28,-1.4 -0.12,-0.03 -0.25,-0.05 -0.37,-0.05 -0.78,0 -1.4,0.63 -1.4,1.4 0,0.23 0.06,0.47 0.17,0.68l0 0zm-349.38 -229.17c0.02,-0.26 0.09,-0.57 0.19,-0.86 0.69,-2.02 2.91,-3.09 4.96,-2.38 0.3,0.1 0.58,0.24 0.85,0.41 28.98,19.01 58.19,42.74 87.62,71.21 28.53,27.56 52.68,61.06 72.44,100.49 15.67,31.29 28.24,107.6 -32.88,95.8 -31.24,-6.04 -57.01,-41.98 -75.1,-66.59 -15.28,-20.76 -25.5,-44.31 -30.66,-70.65 -3.29,-16.73 -5.42,-34.91 -10.78,-54.59 -8.39,-30.95 -13.74,-52.94 -16.06,-65.96 -0.55,-3.2 -0.74,-5.48 -0.58,-6.87zm-1984.6 79.11c-0.56,-0.21 -0.93,-0.76 -0.93,-1.36 0,-0.77 0.6,-1.41 1.37,-1.45 10.47,-1.19 21.11,-2.8 31.91,-4.83 20.5,-3.87 53.48,-18.95 60.25,-41.49 2,-6.54 3.5,-15.73 4.5,-27.56 0.41,-4.18 3.79,-7.34 7.88,-7.45 9.19,-0.41 20.08,1.54 32.65,5.85 22.54,7.69 50.63,5.51 58.71,34.43 5.08,18.08 -11.41,34.91 -26.55,42.94 -5.83,3.09 -17.1,4.88 -33.8,5.37 -28.43,0.81 -57.4,10.25 -86.9,28.33 -1.59,1.03 -3.72,0.67 -4.93,-0.82 -10.29,-12.83 -25.01,-23.49 -44.16,-31.97zm23.5 -116.4c0.05,-1.62 1.38,-2.91 3,-2.91 0.53,0 1.04,0.14 1.5,0.4l51.35 29.65c2.08,1.17 3.33,3.5 3.15,5.92 -3.88,41.91 -52.91,57.04 -87.54,63.43 -27.98,5.22 -43.8,8.38 -47.44,9.48 -16.83,5.22 -39.94,4.21 -57.83,12.67 -2.22,1.04 -4.65,1.58 -7.11,1.58 -4.06,0 -7.98,-1.48 -11.03,-4.14l-12.77 -11.12c-1.87,-1.63 -2.94,-4 -2.94,-6.48 0,-3.46 2.07,-6.58 5.26,-7.93 19.18,-7.99 31.16,-12.02 35.93,-12.09 31.38,-0.38 56.24,1.84 85.98,-13.34 26.08,-13.32 39.57,-35.01 40.47,-65.09zm1197.72 -5.32c-0.08,-0.25 -0.13,-0.51 -0.13,-0.77 0,-1.31 1.06,-2.37 2.37,-2.37 0.46,0 0.91,0.13 1.29,0.38 56.53,35.64 100.78,87.14 123.79,150 10.93,29.84 11.9,63.25 -1.88,90.33 -2.36,4.69 -7.62,7.24 -12.82,6.2 -34.91,-7.21 -61.65,-58.13 -74.7,-89.71 -4.19,-10.09 -6.87,-22.66 -8.03,-37.72 -2.95,-38.83 -19.05,-84.19 -29.89,-116.35zm-1465.96 123.16c0.03,-4.25 0.84,-8.97 2.42,-14.16 8.54,-28.15 19.07,-59.48 31.58,-94.01 4.64,-12.86 9.69,-20.52 15.13,-22.97 19.15,-8.7 34.09,-3.97 53.05,5.46 21.15,10.51 42.76,10.9 64.85,1.16 19.89,-8.77 30.92,-24.15 33.08,-46.13 0.11,-1.22 1.14,-2.15 2.36,-2.15 0.2,0 0.39,0.03 0.59,0.07 24.66,6.33 59.38,23.6 57.74,52.66 -2.56,46.23 -36.03,71.52 -80.51,72.97 -4.48,0.16 -16.25,-0.25 -35.3,-1.21 -45.31,-2.37 -90.72,13.01 -128.44,39.7 -8.16,5.74 -12.93,9.02 -14.31,9.87 -0.23,0.14 -0.5,0.22 -0.78,0.22 -0.8,0 -1.45,-0.65 -1.45,-1.45 0,-0.01 0,-0.02 0,-0.03l0 0zm520.76 -39.55c-14.31,-3.55 -30.13,-4.8 -47.44,-3.77 -3.83,0.22 -7.54,-1.6 -9.74,-4.8 -5.17,-7.7 -10.22,-14.8 -15.16,-21.31 -17.89,-23.64 -40.91,-30.27 -70.26,-38.3 -2,-0.52 -3.67,-2 -4.48,-3.97 -3.75,-9.13 -2.29,-34.33 5.06,-40.18 25.53,-20.31 75.68,-47.1 109.72,-38.64 8.02,2.03 13.25,12.33 17.36,23.75 1.75,4.86 5.97,7.27 12.67,7.2 6.81,0.01 12.7,4.06 14.98,10.17 13.39,34.55 11.58,70.03 -5.45,106.42 -1.05,2.21 -3.28,3.62 -5.72,3.62 -0.52,0 -1.03,-0.06 -1.53,-0.18l0 0zm-486.57 -98.7l-9.67 -10.11c-1.31,-1.35 -2.77,-2.57 -4.3,-3.63 -8.25,-5.77 -24.11,-16.24 -47.58,-31.43 -3.77,-2.42 -5.87,-4.53 -6.29,-6.33 -0.76,-3.38 1.29,-6.81 4.65,-7.73 19.14,-4.99 31.91,-4.36 52.9,1.87 25.82,7.69 63.54,4.98 75.82,-23.79 0.69,-1.63 2.25,-2.72 4.02,-2.81 15.47,-0.87 25.98,1.21 31.53,6.24 13.8,12.41 23.82,21.89 30.08,28.44 3.85,3.99 5.21,9.83 3.5,15.13 -5.36,16.6 -16.41,29.6 -33.14,38.98 -23.79,13.34 -37.38,-11.13 -59.67,-13.64 -13.64,-1.58 -26.08,1.5 -37.33,9.23 -0.58,0.41 -1.28,0.63 -1.99,0.63 -0.95,0 -1.85,-0.38 -2.51,-1.06l0 0zm2871.48 305.57c-0.15,0.08 -0.32,0.12 -0.5,0.12 -0.61,0 -1.11,-0.5 -1.11,-1.11 0,-0.12 0.02,-0.25 0.06,-0.36 20.67,-55.71 11.09,-104.08 -28.72,-145.12 -11.29,-11.58 -22.65,-19.35 -34.09,-23.31 -29.25,-10.01 -69.2,9.43 -88.26,-23.36 -0.62,-1.06 -0.95,-2.28 -0.95,-3.51 0,-2.99 1.9,-5.64 4.72,-6.59l19.59 -6.57c0.45,-0.16 0.99,-0.43 1.47,-0.78 21.91,-16.15 29.16,-36.46 21.74,-60.93 -0.16,-0.51 -0.24,-1.04 -0.24,-1.57 0,-1.32 0.5,-2.59 1.4,-3.56 1.23,-1.26 4.65,-4.5 10.25,-9.72 12.91,-11.99 17.31,-26.98 12.96,-44.44 -5.23,-20.94 -37.29,-44.15 -55.13,-55.03 -1.88,-1.14 -3.03,-3.18 -3.03,-5.38 0,-3.47 2.81,-6.29 6.28,-6.29 0.65,0 1.3,0.1 1.92,0.3 1.93,0.65 10.51,3.11 25.73,7.4 19.29,5.42 31.96,2.9 49.96,-4.21 0.48,-0.19 0.99,-0.29 1.51,-0.29 2.27,0 4.11,1.84 4.11,4.11 0,0.12 -0.01,0.22 -0.02,0.34 -0.48,5.32 -0.72,12.3 -0.72,20.94 -0.05,41.49 44.68,63.83 81.38,61.75 0.19,-0.02 0.4,0.02 0.6,0.09 0.83,0.3 1.26,1.2 0.97,2 -0.07,0.2 -0.19,0.39 -0.35,0.55 -26.18,27.15 -61.72,66.03 -43.78,106.94 0.73,1.71 1.82,3.52 3.12,5.14 10.81,13.14 22.9,25.13 31.65,40.32 24.66,43.14 24.37,97.54 -6.43,137.92 -4.67,6.16 -10.04,10.9 -16.1,14.22zm-427.87 -433.91c-0.04,-0.13 -0.06,-0.27 -0.06,-0.4 0,-0.86 0.69,-1.55 1.55,-1.55 0.33,0 0.66,0.11 0.92,0.31 32.31,25.05 62.63,45.55 101.99,56.63 15.23,4.25 35.74,10.25 44.01,6.96 13.38,-5.25 21.92,-8.14 25.63,-8.66 24.28,-3.45 48.99,-0.13 74.13,9.96 4.23,1.7 15.22,1.61 32.98,-0.29 10.93,-1.16 32.06,25.58 35.69,34.09 11.54,27.11 4.55,46.22 -20.98,57.3 -11.9,5.18 -2.37,28.77 0.14,38.3 0.38,1.33 0.47,2.78 0.26,4.19 -2.91,18.69 -24.29,21.49 -40.49,21.49 -38.25,0.05 -66.06,-15.33 -102.47,-36.22 -20.7,-11.9 -37.11,-22.5 -49.23,-31.82 -50.77,-38.97 -85.46,-89.07 -104.06,-150.29zm-2696.62 120.75c30.72,-53.52 68.98,-101.58 114.76,-144.2 3.55,-3.31 8.23,-5.16 13.09,-5.16 0.74,0 1.47,0.05 2.19,0.13 10.6,1.23 19.13,3.97 25.58,8.22 36.02,23.84 88.5,66.35 124.57,14.85 0.61,-0.85 1.59,-1.35 2.63,-1.35 1.14,0 2.21,0.6 2.79,1.59l18.14 31.43c0.93,1.58 1.08,3.56 0.36,5.31 -9.14,21.48 -24.77,31.99 -46.88,31.54 -9.91,-0.19 -22.58,-7.74 -31.19,-8.7 -33.2,-3.68 -62.04,-0.82 -86.51,8.56 -47.33,18.15 -93.02,38.25 -137.09,60.3 -0.26,0.13 -0.56,0.2 -0.87,0.19 -1.01,-0.02 -1.82,-0.83 -1.8,-1.82 0.01,-0.31 0.09,-0.61 0.25,-0.87l0.01 -0.02zm2909.29 -214.71c-0.01,-0.18 0.01,-0.35 0.03,-0.51 0.21,-1.08 1.23,-1.79 2.28,-1.58 0.16,0.03 0.32,0.08 0.46,0.15 13.24,5.93 26.94,12.13 41.09,18.61 23.66,10.8 48.75,17.58 75.24,20.36 3.84,0.34 7.28,-2.05 8.24,-5.66l8.2 -28.58c0.28,-0.98 1.17,-1.66 2.19,-1.66 0.59,0 1.16,0.23 1.58,0.64 29.47,28.21 64.38,39.4 104.74,33.56 2.27,-0.35 4.51,1.06 5.21,3.33 3.06,10.16 6.59,22.69 14.14,30.67 15.33,16.25 53.68,18.96 75.87,17.6 0.07,-0.01 0.13,-0.01 0.19,-0.01 1.71,0 3.09,1.38 3.09,3.09 0,0.04 0,0.07 0,0.1 -1.32,38.27 -17.2,69.85 -47.63,94.74 -13.22,10.83 -20.6,16.28 -22.15,16.34 -1.58,0.05 -3.06,0.1 -4.5,0.12 -13.44,0.32 -28.96,3.27 -42.07,0.61 -32.15,-6.48 -55.27,-27.18 -49.85,-62.28 0.19,-1.41 0.67,-3.04 1.38,-4.56 8.48,-17.59 14,-29.34 7.71,-45.88 -7.01,-18.38 -14.46,-36.36 -26.69,-49.37 -7.5,-7.93 -18.47,-5.12 -25.92,-1.02 -1.54,0.86 -2.5,2.49 -2.5,4.26 0,0.19 0.02,0.38 0.04,0.57 1.8,14.89 7.12,28.84 15.96,41.83 15.52,22.68 -4.88,45.36 -29.21,39.27 -31.24,-7.78 -76.45,-24.18 -93.62,-51.5 -13.86,-22.05 -21.7,-46.47 -23.5,-73.26zm-2850.44 -16.69c32.16,-4.11 44.58,13.11 68.62,37.24 16.83,16.93 43.57,14.65 68.13,11.12 3.14,-0.43 6.21,0.27 8.75,1.94 22.19,14.21 37.33,23.83 66.93,28.04 1.83,0.28 3.36,1.46 4.07,3.12 4.44,10.52 4.77,19.08 -4.9,27.05 -37.14,30.57 -63.83,0.19 -93.87,-22.53 -21.42,-16.3 -36.8,-23.07 -63.59,-19.2 -2.27,0.33 -4.56,-0.57 -6.03,-2.36l-49.63 -60.6c-0.12,-0.15 -0.23,-0.33 -0.32,-0.53 -0.54,-1.19 -0.02,-2.59 1.15,-3.11 0.2,-0.09 0.42,-0.15 0.64,-0.18l0.03 -0.01zm433.04 -80.13c0.19,-0.05 0.39,-0.07 0.59,-0.07 1.39,0 2.51,1.13 2.51,2.52 0,0.07 0,0.14 -0.01,0.21 -4.83,54.6 -20.21,103.92 -64.61,139.32 -32.01,25.53 -78.73,17.46 -102.57,-14.36 -14.02,-18.71 9.09,-46.85 24.13,-57.4 33.5,-23.37 69.55,-43.31 108.17,-59.82 10.16,-4.35 20.75,-7.81 31.78,-10.4zm-625.31 83.37c-0.07,0.01 -0.14,0.02 -0.22,0.02 -0.72,0 -1.3,-0.59 -1.3,-1.31 0,-0.46 0.25,-0.89 0.65,-1.13 32.69,-20.12 63.02,-41.2 91.01,-63.25 17.99,-14.19 33.17,-28.52 45.55,-42.99 1.03,-1.19 2.53,-1.88 4.1,-1.88 1.91,0 3.68,1.01 4.66,2.65 6.31,10.7 13.3,21 20.94,30.9 11.56,14.99 48.84,13.06 63.25,23.79 24.95,18.67 41.59,31.03 49.91,37.09 12.83,9.38 26.8,13.28 41.93,11.7 0.05,-0.01 0.11,-0.01 0.16,-0.01 0.96,0 1.74,0.78 1.74,1.74 0,0.09 -0.01,0.17 -0.02,0.25 -1.81,12.8 0.88,24.84 8.07,36.12 0.25,0.4 0.39,0.87 0.39,1.35 0,1.15 -0.77,2.16 -1.88,2.47 -17.51,4.71 -33.82,3.89 -48.94,-2.46 -27.37,-11.51 -37.91,-43.96 -68.96,-50.15 -41.97,-8.41 -85.06,-8.33 -129.26,0.25 -35.4,6.87 -62.66,11.81 -81.77,14.84zm337.87 -55.8c1.1,0.35 1.84,1.37 1.84,2.52 0,0.38 -0.08,0.76 -0.24,1.1l-16.78 36.22c-0.81,1.77 -2.84,2.65 -4.73,2.08 -22.19,-6.83 -40.68,-17.33 -55.47,-31.48 -24.86,-23.84 -42.75,-37.58 -76.94,-42.51 -6,-0.75 -11.63,-4.42 -14.92,-9.92l-2.25 -3.9c-0.2,-0.35 -0.38,-0.79 -0.48,-1.24 -0.56,-2.45 0.94,-4.88 3.36,-5.44 0.46,-0.11 0.94,-0.14 1.41,-0.1 16.29,1.78 31.45,-2.14 45.48,-11.75 1.28,-0.84 2.77,-1.29 4.29,-1.29 0.23,0 0.46,0.01 0.69,0.03 14.07,1.26 35.3,20.5 46.85,29.3 21.73,16.51 44.36,28.63 67.89,36.37zm2984.68 -69.74c19.09,4.77 37.85,5.16 56.29,1.16 0.01,-0.01 0.02,-0.01 0.02,-0.01 1.76,-0.34 3.46,0.79 3.79,2.52 0,0.02 0.01,0.04 0.01,0.05 1.59,8.81 0.72,22.73 4.64,35.11 8.64,27.4 28.32,41.49 59.04,42.26 0.43,0.03 0.95,0 1.46,-0.09l32.68 -6.2c0.13,-0.03 0.22,-0.04 0.31,-0.05 2.24,-0.23 4.23,1.36 4.47,3.57 0.01,0.1 0.02,0.19 0.02,0.29 2.61,56.2 -28.82,80.52 -73.55,104.17 -15.28,8.06 -30.38,14.93 -45.31,20.6 -15.57,5.9 -29.66,6.36 -42.26,1.36 -14.38,-5.68 -20.68,-16.93 -18.91,-33.76 0.47,-4.42 3.48,-8.16 7.69,-9.58 14.84,-4.98 26.3,-8.9 33.27,-23.6 9.72,-20.45 9.23,-41.64 -3.63,-59.92 -2.29,-3.26 -4.16,-6.21 -5.61,-8.85 -1.02,-1.73 -1.26,-3.89 -0.61,-5.87 1.53,-4.44 3.59,-10.26 6.17,-17.49 7.16,-20.21 -7.3,-32.06 -20.93,-43.77 -0.26,-0.21 -0.4,-0.52 -0.4,-0.85 0,-0.61 0.5,-1.11 1.11,-1.11 0.08,0 0.17,0.01 0.25,0.03l0 0zm-2482.68 -25.92c0.29,-0.08 0.59,-0.12 0.89,-0.12 1.81,0 3.29,1.48 3.29,3.29 0,0.86 -0.34,1.68 -0.93,2.3 -60.55,59.8 -114.92,121.58 -163.11,185.31 -0.11,0.17 -0.23,0.3 -0.36,0.39l-11.5 11.36c-0.17,0.17 -0.35,0.4 -0.5,0.64 -0.92,1.53 -0.44,3.51 1.07,4.42 0.25,0.15 0.52,0.27 0.8,0.34 16.4,4.33 32.03,6.64 46.89,6.93 0.94,0.02 1.74,0.13 2.5,0.33l46.29 11.28c1.76,0.42 2.99,2 2.99,3.8 0,0.78 -0.23,1.55 -0.67,2.19 -11.29,16.7 -26.17,34.9 -44.64,54.6 -38.01,40.48 -105.51,40.23 -126.7,-18.18 -1.75,-5.05 -1.45,-10.38 0.77,-15.03l5.37 -11.66c0.1,-0.2 0.18,-0.43 0.25,-0.66 1.16,-6.37 -3.84,-16.43 -15,-30.2 -0.61,-0.77 -0.95,-1.72 -0.95,-2.7 0,-1.01 0.36,-1.99 1.01,-2.77 27.53,-32.3 43.68,-69.29 48.45,-110.98 0.6,-5.17 3.95,-9.61 8.75,-11.61 53.93,-22.5 107.66,-46.18 161.18,-71.04 8.58,-3.97 19.86,-8.04 33.85,-12.24zm2176.82 -85.78c-0.08,-0.19 -0.12,-0.39 -0.12,-0.6 0,-0.88 0.71,-1.6 1.6,-1.6 0.15,0 0.31,0.02 0.45,0.07 2.55,0.78 5.32,2.31 8.32,4.59 34.72,26.41 59.87,45.04 75.44,55.9 12.77,8.93 27.08,16.72 42.94,23.35 44.45,18.7 88.78,33.48 132.98,44.35 0.47,0.11 0.96,0.17 1.45,0.17 1.92,0 3.73,-0.91 4.88,-2.45 8.44,-11.35 18.05,-11.52 28.82,-0.53 5.67,5.8 6.8,12.5 3.38,20.07 -4.87,10.73 -9.66,21.52 -14.36,32.35 -1.1,2.49 -0.8,5.45 0.83,7.72 14.31,19.7 25.38,49.01 0.09,66.66 -16.34,11.41 -43.38,27.8 -64.12,21.81 -33.37,-9.58 -56.67,-32.35 -80.08,-58.65 -42.59,-47.84 -81.13,-100.86 -115.63,-159.05 -10.22,-17.25 -19.18,-35.3 -26.88,-54.16zm190.43 -34.62c-0.04,-0.18 -0.06,-0.37 -0.06,-0.56 0,-1.5 1.21,-2.71 2.71,-2.71 0.44,0 0.88,0.11 1.27,0.31 30.8,16.4 55.17,24.33 97.68,29.55 21.99,2.67 44.14,7.73 66.44,15.18 12.93,4.32 21.49,9.8 25.68,16.44 13.83,21.86 8.02,58.27 -15.81,70.65 -23.02,12 -41.68,7.69 -69.78,1.36 -24.9,-5.66 -48.99,-15.91 -64.7,-36.08 -21.89,-28.01 -36.36,-59.4 -43.42,-94.15zm140.82 19.05l18.43 -31.82c0.03,-0.05 0.06,-0.09 0.09,-0.13 0.32,-0.39 0.88,-0.47 1.26,-0.17 0.04,0.04 0.08,0.07 0.11,0.11 11.41,11.86 19.76,25.19 25.05,39.99 0.14,0.38 0.21,0.78 0.21,1.19 0,1.92 -1.56,3.48 -3.48,3.48 -0.25,0 -0.5,-0.03 -0.75,-0.08l-39.07 -8.46c-1.29,-0.29 -2.2,-1.42 -2.2,-2.74 0,-0.48 0.13,-0.95 0.36,-1.37l0 0.01zm-2890.76 37.04c46.13,-26.35 58.46,28.97 55.22,63.54 -2.13,22.5 -11.85,38.51 -29.16,48.02 -24.13,13.3 -105.47,43.91 -109.53,-7.84 -2.47,-31.28 -25.82,-15.96 -45.36,-20.74 -9.67,-2.35 -18.54,-7.53 -26.6,-15.52 -22.11,-21.89 -29.79,-48.14 -23.02,-78.77 7.11,-32.31 25.24,-40.67 52.37,-50.53 17.53,-6.36 35.15,-12.26 52.86,-17.7 13.68,-4.25 34.43,-8.22 46.71,1.21 20.89,16.1 36.17,49.23 23.26,75.29 -0.16,0.32 -0.25,0.68 -0.25,1.04 0,1.28 1.04,2.32 2.32,2.32 0.41,0 0.81,-0.11 1.16,-0.32l0 0zm-240.58 5.8c-2.94,26.11 -3.08,48.21 -0.43,66.3 0.57,3.75 -1.25,7.49 -4.56,9.37 -12.75,7.22 -23.39,7.46 -40.17,7.51 -35.16,0.14 -73.7,-13.11 -88.69,-47.05 -1.05,-2.35 -1.66,-4.99 -1.74,-7.63 -0.48,-15.19 -1.1,-23.68 -1.84,-25.49 -16.44,-41.14 -44.18,-67.46 -83.22,-78.97 -48.68,-14.31 -85.32,-25.19 -109.92,-32.64 -5.71,-1.7 -11.12,-3.85 -16.25,-6.43 -0.39,-0.19 -0.72,-0.45 -0.99,-0.78 -1.1,-1.31 -0.91,-3.27 0.42,-4.39 0.31,-0.27 0.68,-0.46 1.07,-0.59l122.09 -38.2c4.13,-1.22 8.23,-1.1 11.98,0.25 31.93,10.92 66.69,29.59 79.75,60.25 14.8,34.86 27.18,63.93 62.48,82.74 25.47,13.6 47.55,17.78 66.25,12.53 0.18,-0.06 0.38,-0.1 0.59,-0.12 1.62,-0.14 3.05,1.08 3.2,2.73 0.02,0.2 0.01,0.4 -0.01,0.6l-0.01 0.02zm240.05 -77.03c-0.23,1.4 -1.44,2.43 -2.86,2.43 -0.85,0 -1.66,-0.38 -2.22,-1.03 -14.83,-17.57 -34.29,-24.38 -58.37,-20.45 -37.77,6.19 -70.36,22.87 -104.55,40.33 -2.32,1.25 -5.28,0.77 -7.16,-1.2 -24.31,-26.15 -25.94,-53.65 -4.88,-82.5 4.61,-6.32 15.6,-14.3 32.98,-23.93 21.09,-11.64 39.7,-20.41 55.85,-26.31 24.08,-8.85 39.75,-6.87 56.77,13.11 26.65,31.19 41.05,57.93 34.43,99.57zm-419.94 -133.37c0.03,-0.04 0.04,-0.06 0.05,-0.09 0.67,-1.03 2.03,-1.33 3.04,-0.68 0.03,0.02 0.05,0.04 0.07,0.05 34.45,24.01 74.57,39.01 120.35,45.01 20.74,2.71 39.17,0.58 58.61,-4.69 2.45,-0.68 5.09,0.57 6.17,2.95 7.23,16.09 10.82,31.87 10.76,47.35 -0.07,28.01 -1.87,53.22 -5.42,75.63 -1.36,8.32 -7.3,15.43 -14.56,18.76 -15.93,7.22 -31.51,7.09 -46.76,-0.39 -23.08,-11.38 -40.31,-28.02 -51.69,-49.91 -12.77,-24.53 -21.06,-39.64 -24.86,-45.31 -17.7,-26.35 -43.04,-39.07 -71.61,-54.16 -0.04,-0.02 -0.06,-0.03 -0.09,-0.05 -1.63,-0.9 -2.22,-2.99 -1.3,-4.65 0.01,-0.02 0.03,-0.04 0.04,-0.06l17.21 -29.78zm3106.73 -164.7c-0.03,-0.21 -0.03,-0.41 -0.01,-0.62 0.13,-1.54 1.47,-2.68 2.99,-2.55 0.2,0.02 0.41,0.06 0.61,0.12 34.28,10.64 61.89,19.05 98.2,24.47 37.77,5.61 79.79,14.84 115.82,12.77 8.51,-0.48 25.99,-0.85 52.42,-1.11 31.48,-0.34 65.77,-11.61 96.09,1.84 19.44,8.61 30.33,38.73 33.42,57.93 0.49,3.22 0.4,6.33 -0.22,9.37 -4.53,21.48 -13.68,41.75 -27.49,60.8 -4.69,6.43 -5.56,18.67 -3.29,28.48 6.22,26.59 -1.23,47.26 -22.34,61.99 -43.57,30.32 -77.9,-4.16 -110.79,-29.4 -14.48,-11.12 -34.15,-18.96 -59.04,-23.5 -18.5,-3.38 -36.22,-12.64 -53.15,-27.76 -44.1,-39.37 -73.07,-83.27 -108.75,-140.82 -6.48,-10.44 -12.91,-20.5 -14.46,-32.01zm136.85 4.93c-1.41,-0.16 -2.5,-1.33 -2.56,-2.76 -1.89,-41.78 22.87,-65.04 61.99,-63.59 41.44,1.5 94.68,21.71 67.65,75.15 -2.23,4.42 -7.02,6.95 -11.94,6.29l-115.14 -15.09zm-2809.48 -106.77c0.35,-0.18 0.75,-0.28 1.14,-0.28 1.39,0 2.51,1.13 2.51,2.52 0,0.31 -0.06,0.61 -0.16,0.9 -17.34,47.94 -47.27,86.31 -89.76,115.09 -30.9,20.99 -63.15,29.06 -98.51,31.72 -0.12,0.01 -0.25,0.01 -0.37,0.01 -2.32,0 -4.39,-1.45 -5.19,-3.63 -13.09,-36.46 -37.61,-56.77 -73.55,-60.93 -23.8,-2.76 -42.51,2.23 -56.78,22.63 -1.11,1.6 -2.94,2.56 -4.88,2.56 -1.35,0 -2.66,-0.46 -3.72,-1.31 -18.83,-15.05 -29.51,-34.84 -32.06,-59.38 -4.21,-39.85 15.91,-61.41 55.95,-44.54 7.38,3.09 13.2,5.22 17.46,6.38 1.99,0.54 4.03,0.74 6.04,0.58l37.33 -2.9c5.41,-0.47 10.77,1.82 14.23,6.09 4.82,6.02 8.98,11.94 12.46,17.74 25.53,43.04 86.51,55.13 126.99,29.74 29.5,-18.52 57.21,-46.42 90.86,-63.01zm-556.54 55.12c0.01,0.1 0.02,0.19 0.02,0.29 0,1.41 -1.15,2.56 -2.56,2.56 -0.41,0 -0.81,-0.1 -1.18,-0.29 -34.96,-17.5 -71.38,-36.99 -101.21,-67.55 -0.17,-0.18 -0.34,-0.41 -0.49,-0.66 -0.94,-1.64 -0.4,-3.73 1.21,-4.67 0.25,-0.14 0.51,-0.25 0.78,-0.33l97.92 -25.49c0.32,-0.08 0.65,-0.12 0.99,-0.12 2.24,0 4.06,1.82 4.06,4.06 0,0.12 -0.01,0.24 -0.02,0.36 -2.74,29.4 -2.58,60.01 0.48,91.83zm3520.48 405.09c11.92,-19.79 27.79,-28.72 47.58,-26.79 2.8,0.29 5.23,0.96 7.49,2.02 10.36,4.55 22.68,17.32 35.6,18.43 20.86,1.84 38.16,-5.16 51.89,-20.98 0.19,-0.22 0.41,-0.41 0.64,-0.57 1.5,-1.02 3.54,-0.64 4.53,0.85 0.17,0.25 0.3,0.51 0.39,0.79 14.89,43.81 6.24,92.84 -30.47,124.47 -13.02,11.21 -29.32,24.59 -48.89,40.14 -3.9,3.11 -8.25,5.72 -12.86,7.73 -9.9,4.29 -18.2,8.53 -24.9,12.72 -9.47,5.96 -16.91,9.19 -22.29,9.67 -44.73,4.15 -45.94,-34.58 -46.47,-70.22 -0.01,-1.86 0.86,-3.54 2.33,-4.59 10.58,-7.89 19.24,-12.73 25.62,-21.67 12.57,-17.55 11.56,-41.05 5.17,-61.37 -0.07,-0.2 -0.17,-0.39 -0.3,-0.55l-11.6 -16.67c-1,-1.39 -1.72,-3.17 -2.01,-5.04 -1.85,-14.37 -5.78,-25.56 -11.78,-33.55 -7.9,-10.54 -17.14,-22.34 -27.71,-35.4 -1.15,-1.4 -1.64,-3.35 -1.28,-5.22l4.56 -20.98c0.04,-0.17 0.09,-0.35 0.16,-0.52 0.69,-1.8 2.72,-2.68 4.54,-1.99 0.16,0.06 0.32,0.14 0.47,0.22 21.67,12.53 46.58,28.2 71.04,26.94 40.19,-1.98 62.48,-21.76 80.76,-55.27 12.38,-22.83 -1.4,-49.38 12.81,-71.76 13.54,-21.28 38.69,-49.57 41.59,-70.65 4.83,-34.97 -29.45,-63.64 -60.74,-69.1 -8.03,-1.42 -16.96,1.56 -26.79,8.95 -0.74,0.54 -1.63,0.83 -2.54,0.83 -0.09,0 -0.18,-0.01 -0.27,-0.01l-44.3 -2.61c-0.16,-0.02 -0.3,-0.04 -0.42,-0.08 -1.05,-0.3 -1.65,-1.42 -1.35,-2.5 0.04,-0.12 0.09,-0.24 0.14,-0.36 7.6,-14.97 10.46,-28.02 8.6,-39.14 -0.1,-0.6 -0.23,-1.15 -0.39,-1.69l-9.47 -32.4c-0.3,-1.01 -0.45,-2.06 -0.45,-3.1 0,-6.09 4.94,-11.03 11.03,-11.03 0.7,0 1.4,0.07 2.09,0.2 14.67,2.84 32.08,6.97 52.22,12.38 20.76,5.61 40.03,1.87 57.79,-11.22 23.24,-17.09 42.88,-37.36 58.89,-60.83 10.45,-15.28 26.75,-25.14 43.67,-18.86 0.8,0.32 1.5,0.7 2.13,1.15l32.01 22.64c3.43,2.4 5.47,6.34 5.47,10.53 0,1.51 -0.27,3.01 -0.78,4.42 -1.36,3.77 -3.56,8.27 -6.63,13.5 -11.56,19.83 -13.83,40.14 -7.5,62.96 13.74,49.62 25.15,89.22 22.63,134.87 -0.01,0.04 -0.01,0.08 -0.01,0.12 0,0.8 0.65,1.45 1.45,1.45 0.49,0 0.95,-0.25 1.21,-0.66l8.8 -12.77c0.07,-0.11 0.18,-0.25 0.3,-0.37 1.11,-1.15 2.97,-1.17 4.13,-0.04 0.12,0.11 0.23,0.24 0.33,0.37 32.7,46.19 52.15,98.47 58.34,156.86 0.04,0.32 0.01,0.67 -0.08,1 -0.39,1.44 -1.89,2.3 -3.36,1.9 -0.32,-0.09 -0.63,-0.23 -0.9,-0.43 -37.41,-27.63 -70.08,-59.6 -98.03,-95.9 -1.14,-1.39 -2.66,-2.24 -4.31,-2.43 -20.49,-2.6 -34.52,24.53 -34.86,41.36 -0.19,9.8 -0.11,17.55 0.24,23.26 1.55,25.29 -20.26,50.05 -39.8,64.36 -23.21,17.05 -42.92,33.9 -59.14,50.53 -10.18,10.45 -22.08,14.77 -35.68,12.96 -3.64,-0.48 -9.8,-3.68 -18.47,-9.58 -29.06,-19.87 -60.06,-2.9 -72.78,27.85 -0.07,0.11 -0.09,0.26 -0.05,0.38 0.09,0.26 0.38,0.39 0.66,0.3 0.13,-0.04 0.24,-0.13 0.31,-0.23l0.01 -0.01zm163.74 -372.64c17.17,11.85 44.73,27.32 64.07,20.31 23.89,-8.7 34.62,-40.14 11.41,-57.45 -15.25,-11.38 -31.01,-13.95 -47.29,-7.69 -15.48,5.95 -41.05,20.99 -31.96,40.38 0.85,1.77 2.15,3.3 3.77,4.45l0.01 0zm93.13 65.97c-0.19,-11.08 -13.39,-20.12 -29.46,-19.84 0,0 0,0 0,0 0,0 0,0 0,0 -16.07,0.28 -28.95,9.77 -28.75,21.2 0.2,11.43 13.4,20.47 29.47,20.18 0,0 0,0 0,0 0,0 0,0 0,0 16.07,-0.28 28.94,-9.77 28.74,-21.2l-0.01 -0.35zm86.09 153.48c-11.32,-17.41 -25.4,-35.32 -42.26,-53.72 -5.74,-6.29 -12.98,-12.08 -21.71,-17.37 -0.19,-0.11 -0.41,-0.18 -0.64,-0.18 -0.42,0 -0.82,0.21 -1.05,0.57l-0.05 0.05c-0.35,0.56 -0.22,1.28 0.31,1.7 23.73,18.27 38.91,39.5 64.11,70.74 0.13,0.17 0.33,0.27 0.54,0.27 0.14,0 0.27,-0.05 0.38,-0.12 0.63,-0.43 0.8,-1.29 0.38,-1.94l0.01 0.02zm-449.67 -278.93c-2.04,-20.6 -4.02,-40.52 10.39,-56.1 17.65,-19.1 79.16,-54.11 99.71,-20.45 12.67,20.73 12.94,41.67 0.82,62.81 -2.16,3.74 -4.76,6.18 -7.78,7.3 -8.7,3.14 -15.81,13.98 -22.3,20.65 -0.85,0.87 -2.03,1.37 -3.26,1.37 -0.61,0 -1.21,-0.12 -1.77,-0.36 -22.79,-9.5 -46.86,-13.55 -72.2,-12.13 -0.07,0.01 -0.14,0.01 -0.21,0.01 -1.77,0 -3.25,-1.34 -3.42,-3.1l0.01 0.01zm141.83 -10.98c-0.76,-0.03 -1.36,-0.64 -1.36,-1.4 0,-0.26 0.07,-0.51 0.2,-0.72 6.09,-10.03 14.99,-15.25 26.7,-15.67 9.7,-0.32 23.42,-1.74 41.15,-4.26 19.05,-2.71 34.37,-10.54 45.94,-23.5 21.13,-23.69 31.77,-51.84 69.1,-51.94 13.02,-0.03 26.26,1.32 39.7,4.06 2.03,0.41 3.49,2.19 3.49,4.26 0,0.33 -0.04,0.65 -0.11,0.96l-1.26 6c-0.02,0.04 -0.03,0.12 -0.05,0.19 -0.53,1.96 -2.56,3.12 -4.55,2.58 -0.07,-0.02 -0.14,-0.04 -0.21,-0.06 -28.13,-9.39 -51.53,2.22 -76,19.1 -31.43,21.71 -40.62,71.67 -91.54,65.14 -19.86,-2.55 -36.93,-4.13 -51.21,-4.74zm-9.87 -70.36c15.38,3.44 28.73,7.25 39.85,7.3 46.33,0 71.33,-23.26 102.04,-56.05 21.86,-23.31 71.91,-9.04 95.7,1.69 2.75,1.28 4.51,4.03 4.51,7.06 0,4.3 -3.49,7.79 -7.78,7.79 -0.51,0 -1.02,-0.05 -1.52,-0.15 -33.27,-6.92 -59.96,-10.97 -86.32,15.04 -7.96,7.84 -16.2,17.64 -24.71,29.4 -12.04,16.59 -34.14,24.08 -58.32,24.76 -13.06,0.39 -29.15,1.6 -48.26,3.62 -0.08,0.01 -0.17,0.02 -0.25,0.02 -0.92,0 -1.74,-0.59 -2.02,-1.46l-13.35 -38.54c-0.01,-0.04 -0.02,-0.07 -0.02,-0.11 0,-0.21 0.17,-0.39 0.39,-0.39 0.02,0 0.04,0.01 0.06,0.01l0 0.01zm-159.44 -46.23c3.71,-5.61 8.75,-10.4 15.14,-14.36 20.92,-12.99 37.75,-24.82 50.48,-35.49 1.1,-0.89 2.63,-0.92 3.74,-0.09 11.76,8.7 18.96,19.81 21.6,33.31 0.06,0.26 0.08,0.52 0.08,0.79 0,1.94 -1.4,3.61 -3.32,3.95l-85.74 14.95c-0.11,0.02 -0.22,0.03 -0.33,0.03 -1.1,0 -1.99,-0.89 -1.99,-1.99 0,-0.38 0.11,-0.77 0.33,-1.09l0 0zm-3079.99 1.99c-0.64,0.14 -1.09,0.71 -1.09,1.36 0,0.09 0.01,0.19 0.03,0.28l0.82 1.36c0.22,0.42 0.67,0.68 1.15,0.68 0.13,0 0.27,-0.02 0.39,-0.06l46.9 -14.7c2.27,-0.67 4.7,0.05 6.2,1.84 5.6,6.7 20.04,23.4 43.32,50.09 1.81,2.06 2.71,3.45 2.71,4.16 0,0.07 0,0.19 -0.01,0.32 -0.16,4.65 -4.08,8.28 -8.75,8.12 -0.12,-0.01 -0.25,-0.01 -0.37,-0.02 -25.59,-2.33 -69.6,-12.34 -85.56,12.47 -4.11,6.43 -5.85,15.57 -9.63,22.97 -0.79,1.57 -2.14,2.83 -3.79,3.52 -27.4,11.33 -47.47,-2.6 -52.54,-30.45 -3.87,-21.42 4.84,-29.16 14.31,-45.12 0.31,-0.51 0.47,-1.1 0.47,-1.69 0,-1.38 -0.86,-2.62 -2.16,-3.09l-14.17 -5.17c-0.55,-0.2 -1.06,-0.48 -1.5,-0.83 -13.59,-11.11 -3.62,-35.68 6.97,-45.35 3.83,-3.48 10.44,-5.49 19.83,-6.04 26.59,-1.55 50.9,-11.12 72.92,-28.72 0.17,-0.13 0.3,-0.22 0.42,-0.31 3.21,-2.16 7.56,-1.34 9.71,1.85 0.09,0.13 0.17,0.26 0.25,0.4 11.42,19.21 10.96,36.55 -1.39,52.02 -10.01,12.48 -29.64,16.3 -45.45,20.12zm3233.05 -149.38c0.77,1.39 2.66,5.13 5.66,11.22 13.54,27.56 40.28,35.88 70.7,26.94 0.15,-0.05 0.3,-0.08 0.44,-0.11 2.67,-0.52 5.26,1.2 5.77,3.85 0.03,0.16 0.05,0.32 0.07,0.47 1.84,17.98 4.09,34.01 6.77,48.06 1.99,10.4 -0.58,17.02 -10.54,20.17 -53.63,16.78 -96.76,-13.59 -96.91,-68.28 0,-2.87 4.76,-16.9 14.27,-42.07 0.31,-0.81 1.08,-1.34 1.94,-1.34 0.76,0 1.46,0.42 1.83,1.09l0 0zm-3544.32 -22.87c0.15,-0.75 0.81,-1.28 1.57,-1.28 0.61,0 1.16,0.35 1.43,0.89 12.33,24.62 31.96,60.21 56,72.4 0.04,0.01 0.12,0.06 0.21,0.11 3.53,1.95 4.81,6.38 2.87,9.89 -0.05,0.08 -0.1,0.17 -0.15,0.25l-16.09 25.87c-0.84,1.37 -2.34,2.21 -3.95,2.21 -1.44,0 -2.81,-0.68 -3.69,-1.82 -2.38,-3.16 -7.77,-9.98 -16.15,-20.45 -20.89,-26.02 -28.24,-55.37 -22.05,-88.06zm7.16 -22.15l4.16 -14.6c0.47,-1.63 1.97,-2.75 3.66,-2.75 1.39,0 2.67,0.76 3.35,1.98 21.76,39.24 47.55,62.76 77.37,70.56 1.06,0.26 1.8,1.21 1.8,2.3 0,0.58 -0.21,1.13 -0.59,1.57l-26.65 30.52c-0.4,0.48 -1,0.76 -1.63,0.76 -0.46,0 -0.9,-0.15 -1.27,-0.42 -25.31,-18.5 -45.13,-44.55 -59.48,-78.14 -1.6,-3.72 -1.85,-7.88 -0.71,-11.79l-0.01 0.03zm3563.13 -20.84c3.82,23.65 10.49,43.47 35.21,51.74 1.93,0.64 9.41,1.49 22.43,2.52 1.51,0.11 2.72,1.3 2.85,2.8 1.31,14.56 -4.64,38.25 -23.5,40.81 -26.02,3.58 -43.44,-6.01 -52.27,-28.77 -9.05,-23.31 -0.14,-48.99 12.04,-69.73 0.31,-0.55 0.89,-0.88 1.52,-0.88 0.87,0 1.61,0.65 1.73,1.51l0 0zm-3315.16 428.69l2.08 -4.54c2.21,-4.77 6.04,-8.58 10.82,-10.76 13.68,-6.27 28.3,-4.71 43.87,4.71 34.62,20.94 42.17,57.06 43.28,94.97 0.71,23.86 -5.45,45.16 -18.47,63.93 -14.84,21.42 -32.2,24.95 -58.8,28.58 -73.7,10.01 -146.28,-31.38 -187.34,-91.93 -57.79,-85.11 -70.36,-194.11 -40.91,-292.56 18.09,-60.35 60.59,-110.79 102.81,-155.28 21.71,-22.92 36.08,-47.1 47.59,-75.83 1.42,-3.56 4.87,-5.9 8.71,-5.9 0.45,0 0.9,0.03 1.35,0.1 30.82,4.42 45.45,21.94 43.91,52.57 -1.31,26.31 -32.35,56.05 -54.25,79.5 -11.64,12.41 -25.08,30.4 -40.33,53.96 -42.07,65.09 -59.27,135.57 -51.6,211.42 6.58,65.23 41.15,131.34 102.52,159.92 28.29,13.15 75.3,17.26 101.41,-3.77 16.37,-13.18 23.76,-29.98 22.15,-50.39 -3.61,-44.97 -27.77,-61.98 -72.49,-51.01 -0.42,0.1 -0.85,0.15 -1.29,0.15 -3.04,0 -5.51,-2.47 -5.51,-5.51 0,-0.8 0.18,-1.6 0.52,-2.33l0 0zm7.21 -399.14c-1.32,-5 -2.47,-9.34 -3.44,-13.01 -7.28,-26.85 -25.21,-39.09 -53.78,-36.7 -0.07,0.01 -0.14,0.01 -0.21,0.01 -1.28,0 -2.32,-1.04 -2.32,-2.32 0,-0.1 0.01,-0.2 0.02,-0.3l4.21 -29.89c0.55,-3.43 2.75,-6.23 5.83,-7.55 35.47,-15.76 66.9,9.87 63.71,47.25 -1.42,16.34 -5.11,30.61 -11.08,42.8 -0.27,0.53 -0.82,0.86 -1.41,0.86 -0.71,0 -1.33,-0.47 -1.53,-1.15l0 0.01zm3473.77 -73.89c-0.45,-0.15 -0.77,-0.58 -0.77,-1.06 0,-0.25 0.08,-0.49 0.23,-0.68l27.37 -35.59c0.95,-1.2 2.64,-1.45 3.84,-0.57 26.72,18.65 45.54,51.68 58.98,79.68 1.72,3.49 2.1,7.64 1.01,11.52l-4 14.07c-0.46,1.62 -1.94,2.74 -3.63,2.74 -1.27,0 -2.45,-0.63 -3.14,-1.68 -20.07,-30.18 -43.38,-57.3 -79.89,-68.42zm-3701.15 206.63c1.4,0.79 2.26,2.27 2.26,3.87 0,0.65 -0.14,1.29 -0.42,1.88l-9.34 20.26c-0.65,1.39 -2.05,2.28 -3.58,2.28 -0.79,0 -1.56,-0.23 -2.22,-0.68 -84.53,-56.82 -100.29,-158.32 -85.21,-252.13 3.73,-23.02 10.4,-40.09 34.14,-48.22 37.72,-12.91 80.8,3.97 86.32,47.44 1.1,8.7 0.13,16.2 -2.9,22.48 -2.34,5.12 -7.95,8.22 -13.74,7.47l-16.29 -2.3c-3.79,-0.53 -7.62,0.19 -10.91,2.05 -41.13,22.9 -56.02,72.57 -36.63,116.33 13.78,31.09 31.19,63.88 58.51,79.26zm3800.23 -172.73c-0.08,0.87 -0.81,1.55 -1.69,1.55 -0.63,0 -1.21,-0.36 -1.51,-0.92 -14.26,-30.61 -30.17,-58.27 -57.59,-78.04 -1.48,-1.07 -2.36,-2.78 -2.36,-4.6 0,-1.06 0.3,-2.1 0.86,-3l15.38 -24.81c0.82,-1.31 2.26,-2.1 3.8,-2.1 1.05,0 2.07,0.36 2.87,1.03 31.53,26.21 42.9,70.36 40.24,110.89zm-3313.95 -111.71c0.81,0.14 1.4,0.84 1.4,1.66 0,0.44 -0.17,0.87 -0.48,1.19 -17.57,17.89 -31.79,31.79 -42.65,41.68 -34.82,31.67 -61.85,63.01 -90.72,90.09 -23.6,22.15 -31.77,41.2 -44.25,73.31 -3.38,8.64 -9.25,20.76 -17.6,36.36 -12.05,22.48 -29.98,39.75 -56.1,32.69 -40.19,-10.88 -19.44,-53.97 -5.51,-76.6 14.07,-22.82 23.12,-41.2 34.96,-66.1 1.48,-3 3.84,-5.31 6.76,-6.69l58.28 -28.37c0.13,-0.06 0.26,-0.1 0.39,-0.13 1.01,-0.26 2.03,0.34 2.27,1.32 0.04,0.14 0.05,0.28 0.05,0.42 0.1,3.15 0.71,5.05 1.84,5.7 3.15,1.84 7.57,0.69 10.3,-2.75 9.83,-12.64 15.25,-27.51 16.25,-44.6 0.78,-12.96 -4.69,-25.97 -9.38,-39.22 -0.09,-0.26 -0.13,-0.52 -0.13,-0.79 0,-1.31 1.06,-2.37 2.37,-2.37 0.25,0 0.48,0.04 0.71,0.11 11.75,3.77 19.1,4.98 32.2,1.69 30.3,-7.67 60.21,-13.78 89.71,-18.32 3.84,-0.61 6.95,-0.71 9.34,-0.29zm2922.15 261.51c-12.83,-6.31 -29.19,-7.03 -49.08,-2.12 -37.46,9.22 -64.06,15.26 -79.79,18.13 -0.12,0.02 -0.23,0.03 -0.35,0.03 -1.23,0 -2.23,-1 -2.23,-2.23 0,-0.48 0.15,-0.95 0.44,-1.33 22.92,-29.11 61.31,-56.53 88.54,-89.17 13.83,-16.57 30.96,-35.57 51.41,-57.02 9.82,-10.3 21.61,-31.48 27.56,-48.89 12.29,-35.88 25.39,-65.86 60.74,-83.9 2.17,-1.13 4.64,-1.73 7.15,-1.74 49.96,0.29 37.73,49.52 18.82,77.03 -12.41,18.15 -21.47,33.69 -27.18,46.62 -7.51,17.02 -11.88,26.71 -13.11,29.06 -0.87,1.73 -2.38,3.17 -4.25,4.03 -22.11,9.89 -38.94,17.49 -55.23,30.25 -1.3,1.04 -1.99,2.58 -1.93,4.19 1.45,39.14 35.35,83.05 60.2,102.59 34.24,26.88 92.9,41.2 128.97,10.64 13.25,-11.22 18.7,-27.82 16.34,-49.81 -1.74,-16.69 -12.24,-41.35 -10.55,-60.98 2.37,-27.71 15.28,-48.45 32.64,-73.12 9.67,-13.7 22.75,-18.46 39.22,-14.27 36.8,9.34 56.39,41.49 71.81,73.89 0.11,0.22 0.16,0.46 0.16,0.71 0,0.88 -0.71,1.59 -1.59,1.59 -0.11,0 -0.21,-0.01 -0.31,-0.03 -30.22,-5.9 -47.87,20.12 -43.57,47.44 6.87,43.42 59.82,60.98 97.83,52.9 7.93,-1.67 18.67,-5.69 32.21,-12.04 0.86,-0.4 1.81,-0.6 2.76,-0.6 0.95,0 1.89,0.2 2.76,0.6 10.54,4.8 17.73,11.69 21.57,20.65 0.16,0.37 0.25,0.78 0.25,1.19 0,1.24 -0.75,2.35 -1.89,2.82 -1.42,0.61 -9.93,1.56 -25.53,2.85 -31.38,2.61 -40.62,35.11 -72.39,38.64 -2.47,0.25 -4.91,-0.09 -7.16,-0.99 -28.15,-11.44 -56.14,-22.17 -84.43,-23.29 -23.6,-0.92 -38.3,13.88 -56.43,32.4 -6.67,6.87 -18.71,15.83 -36.12,26.88 -33.37,21.23 -69.49,8.75 -103.05,-7.98 -11.09,-5.51 -19.22,-11.61 -24.37,-18.28 -1.71,-2.27 -2.77,-4.71 -3.24,-7.29 -3.72,-18.67 -5.75,-27.62 -18.67,-40.96 -18.86,-19.49 -33.46,-44.15 -36.03,-67.46 -1.51,-14.12 2.63,-30.26 12.43,-48.41 0.22,-0.41 0.34,-0.87 0.34,-1.33 0,-1.37 -1.01,-2.54 -2.37,-2.73l-1.55 -0.19c-0.15,-0.03 -0.31,-0.04 -0.46,-0.04 -1.12,0 -2.16,0.56 -2.78,1.49 -18.5,28.05 -20.79,57.37 -6.87,87.96 0.08,0.16 0.12,0.34 0.12,0.52 0,0.66 -0.54,1.2 -1.21,1.2 -0.19,0 -0.38,-0.05 -0.55,-0.13l0 0zm-3235.71 -206.68c-0.21,0.12 -0.45,0.18 -0.69,0.18 -0.7,0 -1.31,-0.51 -1.43,-1.19 -2.39,-16.12 -4.58,-33.87 -6.58,-53.24 -1.61,-15.6 5.71,-24.1 21.95,-25.48 53.92,-4.69 102.23,34.62 74.95,91.88 -2.87,6.03 -5.54,12.72 -8.02,20.07 -0.1,0.28 -0.25,0.52 -0.45,0.72 -0.76,0.79 -2,0.82 -2.77,0.08 -0.2,-0.2 -0.36,-0.44 -0.46,-0.71 -12.42,-32.19 -44.19,-50.23 -76.5,-32.29zm3606.08 -96.09c38.59,30.08 65.41,68.36 80.47,114.85 15.52,47.92 12.96,99.57 1.11,146.72 -6.39,25.58 -15.52,42.8 -42.31,46.9 -27.53,4.23 -49.52,-3.16 -65.96,-22.15 -13.2,-15.23 -16.78,-32.83 -5.22,-50.09 3.15,-4.68 8.43,-7.48 14.07,-7.48 0.34,0 0.68,0.02 1.02,0.03l19.92 1.16c1.81,0.13 3.66,-0.44 5.14,-1.61 34.57,-27.3 54.39,-61.45 41.77,-103.61 -3.81,-12.83 -12.38,-30.35 -25.73,-52.57 -10.19,-16.96 -23.62,-31.27 -40.28,-42.94 -1.25,-0.88 -1.99,-2.31 -1.99,-3.83 0,-0.83 0.22,-1.64 0.64,-2.36l12.77 -22.1c0.04,-0.06 0.07,-0.11 0.11,-0.17 0.97,-1.43 2.9,-1.83 4.32,-0.87 0.06,0.04 0.12,0.08 0.17,0.12l-0.01 0zm-3444.76 32.88l-16.25 -14.17c-0.66,-0.59 -1.11,-1.39 -1.26,-2.27l-3.05 -17.55c-0.04,-0.22 -0.06,-0.46 -0.06,-0.69 0,-1.88 1.35,-3.49 3.21,-3.81l81.62 -14.22c0.23,-0.04 0.46,-0.06 0.69,-0.06 2.14,0 3.87,1.73 3.87,3.87 0,1.23 -0.58,2.38 -1.57,3.11l-62.38 45.99c-0.66,0.49 -1.47,0.76 -2.3,0.76 -0.93,0 -1.83,-0.34 -2.54,-0.95l-0.01 0zm2.52 105.37c-0.38,0.24 -0.82,0.36 -1.26,0.36 -1.24,0 -2.28,-0.96 -2.36,-2.2 -2.18,-29.16 -15.77,-53.92 -33.22,-77.13 -25.2,-33.36 -58.71,-51.26 -100.92,-54.74 -35.59,-2.9 -70.99,13.88 -70.9,52.95 0,18.38 8.61,40.96 10.44,57.01 1.75,15.19 0.63,28.29 -5.85,43.04 -6.33,14.41 -29.93,56.34 -48.6,58.51 -40.86,4.74 -75.15,-32.88 -85.69,-69.1 -0.11,-0.37 -0.17,-0.76 -0.17,-1.14 0,-2.16 1.76,-3.92 3.92,-3.92 0.15,0 0.31,0.01 0.45,0.03 6.29,0.74 12.32,0.02 18.08,-2.17 14.65,-5.56 20.36,-33.52 17.8,-45.56 -6,-28.48 -24.08,-44.78 -53.34,-51.4 -30.42,-6.82 -49.61,-0.48 -77.52,12.42 -1.49,0.69 -3.31,0.7 -4.92,-0.02 -7.43,-3.5 -14.64,-9.83 -21.63,-18.99 -0.43,-0.57 -0.66,-1.27 -0.66,-1.98 0,-1.78 1.4,-3.23 3.18,-3.29 17.41,-0.42 32.9,-3.71 46.47,-9.87 2.97,-1.32 5.84,-3.17 8.38,-5.44 15.9,-14.34 26.44,-26.29 43.61,-28.8 3.97,-0.58 10.54,1.03 19.73,4.83 14.41,5.96 30.85,11.62 49.32,16.97 21.95,6.39 41.28,3.11 57.98,-9.82 19.97,-15.43 40.33,-41.68 63.3,-50.1 39.66,-14.55 84.92,3.63 119.64,25.15 4.09,2.61 6.75,6.7 7.43,11.32 2.58,15.91 0.4,29.78 15.83,41.97 29.74,23.45 42.7,63.01 30.27,99.08 -1.87,5.51 -4.81,9.51 -8.81,12zm-90.04 -204.6c0.07,0.21 0.11,0.43 0.11,0.65 0,1.12 -0.91,2.03 -2.03,2.03 -0.23,0 -0.47,-0.04 -0.69,-0.12 -32.66,-11.61 -62.37,-9.64 -89.12,5.9 -15.22,8.84 -26.68,17.51 -34.38,26.02 -10.51,11.55 -20.15,20 -28.92,25.39 -19.97,12.28 -63.78,-2.22 -83.51,-11.65 -1.7,-0.81 -2.79,-2.53 -2.79,-4.41 0,-0.86 0.22,-1.71 0.66,-2.46l4.98 -8.66c1.24,-2.1 3.84,-2.92 6,-1.88 35.3,16.68 70.79,11.65 92.84,-20.7 17.89,-26.21 27.66,-41.49 62.19,-43.62 18.02,-1.1 37.51,-3.32 58.46,-6.68 1.31,-0.21 2.56,0.54 2.96,1.76l13.25 38.43zm3237.2 40.67c0.05,-0.01 0.09,-0.03 0.14,-0.04 0.62,-0.24 0.92,-0.96 0.67,-1.61 -0.01,-0.03 -0.03,-0.07 -0.04,-0.1l-1.5 -2.89c-0.02,-0.06 -0.07,-0.11 -0.14,-0.11 -0.02,0 -0.04,0.01 -0.06,0.01l-47.34 15.76c-1.69,0.56 -3.53,0.08 -4.7,-1.22 -16.28,-17.56 -28.28,-30.92 -36.02,-40.07 -4.77,-5.71 -7.57,-11.74 -8.41,-18.09 -0.01,-0.03 -0.02,-0.14 -0.03,-0.25 -0.18,-2.61 1.77,-4.87 4.35,-5.06 0.11,-0.01 0.22,-0.01 0.34,-0.01 19.23,0.42 38.12,1.64 56.65,3.68 21.42,2.32 37.28,-15.57 41.83,-35.45 1.03,-4.56 4.53,-8.09 8.94,-8.99 23.21,-4.79 43.72,7.54 48.75,31.05 3.54,16.76 -1.37,31.34 -14.75,43.71 -0.03,0.03 -0.06,0.06 -0.09,0.09 -0.98,1.02 -0.96,2.62 0.03,3.59 0.04,0.04 0.07,0.07 0.11,0.1 0.26,0.22 4.79,2.53 13.59,6.92 26.94,13.49 8.03,45.31 -10.35,54.98 -1.8,0.91 -3.7,1.38 -5.6,1.4 -36.04,0.29 -54.51,10.4 -81.88,28.44 -0.91,0.6 -1.99,0.91 -3.07,0.91 -1.65,0 -3.22,-0.72 -4.28,-1.98 -8.03,-9.48 -10.37,-20.86 -7.01,-34.14 6.82,-26.88 25.49,-33.46 49.85,-40.62zm-3468.59 -32.06c44.73,16.97 89.03,-16.15 112.14,-52.57 12.28,-19.34 30.32,-33.03 54.11,-30.03 26.21,3.32 43.57,5.03 52.08,5.12 1.3,0.02 2.35,1.07 2.35,2.37 0,0.2 -0.03,0.39 -0.07,0.58 -1.81,6.93 -5.97,10.99 -12.48,12.18 -40.14,7.32 -63.82,11.8 -71.03,13.45 -24.52,5.56 -33.66,21.95 -49.71,47.01 -19.83,30.9 -55.37,26.88 -88.69,17.21 -1.12,-0.31 -1.89,-1.35 -1.84,-2.51l0.67 -11.22c0.07,-0.96 0.87,-1.71 1.84,-1.71 0.21,0 0.43,0.04 0.63,0.11l0 0zm360.99 -85.06c0.72,11.36 -0.05,38.49 -8.22,48.74 -8.12,10.25 -21.52,21.04 -32.01,27.61 -14.17,8.9 -48.26,20.69 -61.66,4.16 -17.51,-21.6 -20.39,-45.07 -8.66,-70.41 0.78,-1.66 1.92,-3.04 3.36,-4.07 3.11,-2.22 6.31,-3.85 9.6,-4.88 1.28,-0.44 2.33,-1.23 3.08,-2.27l12.2 -17.66c1.36,-2 3.98,-2.74 6.23,-1.75 21.41,9.42 44.25,13.91 68.49,13.5 0.06,0 0.11,0 0.16,0 3.95,0 7.21,3.08 7.44,7.01l0 0zm3422.36 -39.85c35.06,17.65 71.61,37.28 101.5,67.99 0.62,0.64 0.96,1.5 0.96,2.39 0,1.56 -1.05,2.92 -2.56,3.32l-98.26 25.38c-0.34,0.09 -0.69,0.14 -1.04,0.14 -2.24,0 -4.06,-1.82 -4.06,-4.06 0,-0.14 0.01,-0.29 0.03,-0.43 2.8,-29.5 2.71,-60.22 -0.29,-92.17 -0.02,-0.25 -0.01,-0.49 0.04,-0.72 0.28,-1.42 1.62,-2.35 3.01,-2.08 0.24,0.05 0.47,0.13 0.68,0.24l-0.01 -0.01zm-3375.89 -42.17c1.41,0.19 2.48,1.38 2.52,2.81 1.5,41.78 -23.51,64.75 -62.58,62.91 -41.44,-1.93 -94.44,-22.68 -66.88,-75.78 2.16,-4.31 6.95,-6.86 11.88,-6.21l115.06 16.26zm2810.98 98.51c13.51,-40.33 36.53,-74.92 69.05,-103.77 33.14,-29.43 72.9,-44.21 119.25,-44.34 2.47,-0.04 4.78,1.21 6.14,3.29 4.74,7.2 8.46,17.46 15.13,25.82 13.21,16.58 30.56,28.72 51.98,31.58 9.87,1.31 19.25,4.83 30.03,2.56 15.6,-3.29 28.2,-12.12 37.77,-26.5 0.06,-0.09 0.14,-0.19 0.22,-0.29 1.44,-1.78 4.08,-2.05 5.89,-0.58 0.09,0.07 0.18,0.15 0.27,0.23 17.19,16.65 27.29,37.57 30.28,62.78 3,25.15 -3.24,49.81 -32.2,50.73 -7.13,0.22 -24.4,-3.16 -51.84,-10.15 -2.8,-0.73 -5.76,-1.03 -8.7,-0.87 -13.16,0.68 -34.24,6.77 -43.72,-9.87 -3.87,-6.83 -10.4,-16.88 -19.59,-30.12 -1.51,-2.17 -3.19,-3.83 -5.13,-5.18 -28.82,-20.83 -59.54,-26.28 -92.17,-16.34 -11.15,3.38 -25.4,11.54 -42.75,24.47 -14.55,10.83 -43.04,36.56 -66.64,49.32 -0.33,0.17 -0.7,0.27 -1.07,0.27 -1.28,0 -2.32,-1.04 -2.32,-2.32 0,-0.23 0.04,-0.47 0.11,-0.7l0 0zm314.71 -126.35c0.13,-0.03 0.27,-0.04 0.4,-0.04 1.17,0 2.13,0.95 2.13,2.13 0,0.17 -0.03,0.35 -0.07,0.52 -3.8,14.57 -12.88,23.52 -27.23,26.84 -36.41,8.42 -65.67,-34.38 -73.6,-64.94 -6.74,-25.82 -7.05,-51.27 -0.92,-76.36 9.43,-38.44 34.19,-54.06 72.88,-57.01 65.64,-4.97 120.38,14.72 164.22,59.04 107.79,108.99 101.74,321.48 6,437.49 -3.71,4.51 -20.22,23.07 -49.52,55.66 -20.76,23.15 -36.18,48.58 -46.23,76.31 -0.63,1.72 -2.21,2.87 -3.99,2.95 -18.6,1.11 -34.65,-5.37 -43.69,-22.78 -13.68,-26.35 -2.95,-52.76 15.48,-74.47 32.01,-37.72 63.44,-68.28 84.63,-106 58.41,-104.26 76.16,-265.73 -31.38,-347.4 -22.05,-16.76 -45.99,-25.55 -71.81,-26.35 -37.52,-1.21 -75.19,13.78 -78.58,55.95 -2.8,35.15 17.46,73.07 58.76,63.54 13.41,-3.09 20.92,-4.78 22.54,-5.07zm-2995.61 34.09c-22.1,-7.49 -48.11,-17.79 -75.34,-23.26 -41.46,-8.28 -83.43,-12.94 -125.92,-13.98 -12.41,-0.32 -44.1,1.6 -95.07,5.75 -44.49,3.63 -73.16,1.5 -91.1,-39.85 -16.2,-37.43 4.74,-67.07 24.86,-100.01 3.38,-5.66 4.61,-12.01 3.62,-18.22 -0.61,-4.07 -1.52,-9.28 -2.71,-15.63 -3.87,-20.89 4.69,-41.01 21.86,-53.54 46.47,-33.85 78.38,-0.96 113.69,26.55 14.02,10.88 33.61,17.79 55.52,23.6 22.83,6.03 41.6,16.14 56.34,30.32 51.32,49.45 90.93,107.22 118.81,173.31 0.2,0.46 0.3,0.95 0.3,1.45 0,2.03 -1.64,3.68 -3.68,3.68 -0.4,0 -0.79,-0.06 -1.17,-0.19l0 -0.01zm2699.37 -313.26c0.15,-0.85 0.9,-1.48 1.76,-1.48 0.54,0 1.04,0.24 1.38,0.65 21.57,25.21 49.65,31.79 84.24,19.73 25.88,-9.02 51.97,-20.63 78.24,-34.82 2.59,-1.46 5.94,-1.33 8.55,0.41 12.83,8.83 19.16,18.11 18.87,35.57 -0.39,19 -3.09,36.95 -16.4,51.6 -1.05,1.21 -2.34,2.28 -3.77,3.12 -25.5,15.43 -54.3,29.7 -86.41,42.82 -12.41,5.09 -21.07,6.87 -25.97,5.32 -19.2,-5.99 -31.38,-23.07 -43.91,-40.72 -19.2,-26.98 -23.06,-49.03 -16.58,-82.21zm-2914.08 6.14c-11.03,-13.67 -19.7,-29.72 -26.02,-48.16 -0.07,-0.19 -0.1,-0.38 -0.11,-0.57 -0.02,-0.96 0.77,-1.76 1.76,-1.77 0.19,-0.01 0.37,0.02 0.55,0.07l39.83 11.41c1.45,0.42 2.45,1.75 2.45,3.25 0,0.5 -0.11,0.99 -0.32,1.44l-15.77 34.05c-0.22,0.5 -0.72,0.81 -1.27,0.81 -0.42,0 -0.83,-0.19 -1.09,-0.53l-0.01 0zm3329.47 127.04c-1.06,-1.58 -7.84,-5.48 -20.31,-11.7 -38.46,-19.28 -79.21,-29.4 -122.25,-30.37 -7,-0.16 -19.79,2.01 -38.4,6.53 -0.21,0.05 -0.43,0.08 -0.64,0.08 -1.27,0 -2.36,-0.87 -2.64,-2.11 -4.74,-20.16 -9.48,-34.24 -9.72,-51.16 -0.42,-28.14 1.05,-53.48 4.4,-76.01 2.08,-13.83 17.46,-19.63 30.27,-20.31 40.67,-2.23 68.9,21.52 86.02,56.38 14.6,29.74 29.21,56.48 57.06,74.09 8.67,5.51 20.09,11.91 34.24,19.2 2.36,1.2 3.84,3.63 3.84,6.29 0,1.24 -0.33,2.46 -0.94,3.53l-14.8 25.34c-0.11,0.2 -0.27,0.41 -0.44,0.61 -1.34,1.49 -3.65,1.59 -5.16,0.23 -0.19,-0.17 -0.37,-0.37 -0.52,-0.57l-0.03 -0.03zm-3176.61 -142.56c0.01,0.02 0.01,0.05 0.01,0.07 0,0.88 -0.71,1.6 -1.6,1.6 -0.31,0 -0.61,-0.09 -0.87,-0.26 -18.57,-12.22 -39.72,-20.33 -63.45,-24.32 -10.41,-1.78 -31.17,-5.18 -62.28,-10.2 -20.95,-3.38 -36.91,-8.4 -47.87,-15.04 -7.51,-4.58 -12.45,-11.93 -14.84,-22.05 -8.37,-35.06 7.74,-60.69 43.28,-67.27 6.32,-1.16 17.17,0.26 32.55,4.26 19.5,5.06 30.17,7.85 32.01,8.37 44.73,12.09 81,79.31 83.07,124.86zm3349.78 47.44c1.35,0.34 2.3,1.56 2.3,2.96 0,1.32 -0.85,2.49 -2.11,2.89l-123.84 42.75c-2.84,1.02 -6.03,0.87 -8.86,-0.42 -28.38,-12.93 -64.31,-30.34 -76.39,-55.72 -13.98,-29.3 -24.42,-59.19 -50,-77.32 -27.76,-19.73 -53.58,-31.78 -87.38,-25.05 -0.12,0.03 -0.24,0.04 -0.36,0.04 -0.91,0 -1.65,-0.74 -1.65,-1.64 0,-0.16 0.03,-0.32 0.07,-0.47 5.9,-20.31 7.11,-41.75 3.63,-64.32 -1.16,-7.61 2.64,-12.75 11.41,-15.43 39.03,-11.9 100.01,-2.52 120.51,39.9 1.45,3.03 3.08,12.7 4.88,29.01 1.71,15.41 9.06,31.08 22.05,47 20.16,24.76 43.23,32.11 77.71,43.28 43.27,13.96 79.28,24.81 108.03,32.55zm-591.32 -110.02c-9.8,6.32 -19.17,7.98 -28.09,4.98 -21.23,-7.11 -27.18,-34.53 -28.09,-55.61 -1.55,-35.01 10.97,-54.25 43.81,-68.42 26.5,-11.46 64.75,-24.08 89.65,-4.5 9.34,7.35 9.91,17.12 11.32,29.06 1.88,16.54 24.56,11.56 35.06,11.46 3.92,0.01 7.5,0.77 10.79,2.21 16.57,7.17 30.23,19.02 41,35.56 15.62,23.99 8.12,60.69 -2.76,85.11 -2.68,5.75 -7.04,10.09 -12.45,12.59 -32.71,15.85 -66.34,27.81 -100.9,35.91 -7.13,1.67 -15.19,0.22 -24.18,-4.35 -26.83,-13.68 -44.68,-50.39 -30.7,-80.18 0.18,-0.4 0.28,-0.84 0.28,-1.28 0,-1.68 -1.36,-3.05 -3.05,-3.05 -0.6,0 -1.18,0.17 -1.68,0.51zm-2983.57 26.6c-0.05,-0.79 -0.7,-1.41 -1.5,-1.41 -0.51,0 -0.98,0.26 -1.26,0.69 -9.71,16.05 -22.88,23.45 -39.51,22.19 -13.44,-1.02 -24.61,-11.32 -35.49,-16.88 -1.65,-0.84 -3.57,-1.51 -5.56,-1.9 -23.89,-4.37 -42.59,1.74 -56.1,18.35 -0.43,0.52 -1.07,0.82 -1.75,0.82 -1,0 -1.87,-0.65 -2.17,-1.59 -10.55,-34.88 -8.74,-68.35 5.41,-100.39 4.23,-9.58 13.95,-21.02 29.16,-34.34 31.63,-27.75 56.43,-46.9 92.94,-59.91 25.96,-9.25 43.56,-1.34 52.81,23.74 1.87,5.09 2.47,20.17 1.79,45.21 -0.06,2.14 -1.18,4.1 -2.99,5.22 -14.87,8.97 -23.64,17.46 -26.32,25.49 -5.09,15.22 -5.14,31.98 -0.14,50.29 0.45,1.68 1.31,3.38 2.47,4.82l7.11 8.71c1.29,1.58 2.13,3.49 2.41,5.51 4.3,30.08 21.33,54.07 40.47,78.34 1.14,1.42 1.77,3.19 1.77,5.01 0,0.34 -0.03,0.69 -0.07,1.03 -0.65,4.83 -3,10.22 -7.06,16.15 -1.29,1.86 -3.41,2.97 -5.68,2.97 -1.12,0 -2.23,-0.27 -3.22,-0.8 -15.23,-8.12 -34.43,-22.63 -54.93,-22.78 -56.87,-0.53 -102.42,42.02 -95.07,100.87 1.11,8.71 -5.42,21.91 -11.07,29.65 -24.13,33.08 -50.97,72.78 -28.29,109.82 12.09,19.73 54.4,47.2 77.37,27.28 1.4,-1.21 3.13,-1.86 4.9,-1.84l44.66 0c0.92,0.02 1.66,0.77 1.66,1.69 0,0.25 -0.06,0.5 -0.16,0.72 -13.93,28.48 -9.77,44.1 -3.49,74.18 1.26,6.06 -0.37,10.41 -4.88,13.06 -1.3,0.74 -2.85,0.91 -4.3,0.48 -25.44,-7.51 -49.85,-12.34 -73.26,-14.51 -35.06,-3.24 -79.45,54.5 -97.63,80.32 -22.15,31.53 -57.55,7.64 -78.82,-12.14 -3.63,-3.46 -4.38,-8.82 -1.91,-13.04 3.62,-6.43 7.65,-15.31 12.06,-26.67 8.17,-21.13 6.72,-38.01 -0.67,-60.88 -11.7,-36.41 -26.35,-90.18 -19.35,-126.6 0.03,-0.12 0.04,-0.24 0.04,-0.36 0,-1.15 -0.93,-2.08 -2.08,-2.08 -0.72,0 -1.39,0.38 -1.77,1l-8.61 13.83c-0.29,0.47 -0.8,0.76 -1.35,0.76 -0.49,0 -0.95,-0.22 -1.26,-0.61 -29.54,-38.29 -41.11,-75.96 -56.14,-131.19 -2.1,-7.8 -3.12,-16.78 -3.09,-26.93 0.02,-1.14 0.94,-2.05 2.08,-2.05 0.41,0 0.82,0.12 1.16,0.35 30.51,21.37 54.16,45.55 87.91,78.05 6.29,6.04 8.18,16 16.78,16.73 13.64,1.07 25.82,-18.81 30.08,-29.25 4.84,-11.8 -0.91,-27.56 0.78,-38.3 6.48,-41.25 46.66,-69.49 80.08,-90.09 3.32,-2.01 6.28,-4.88 8.5,-8.3 5.71,-8.96 10.26,-17.23 17.31,-21.53 15.96,-9.72 28.29,-6.77 43.38,3.82 8.7,6.09 14.13,9.32 16.29,9.67 22.63,3.52 40.07,-3.58 52.33,-21.28 2.26,-3.26 3.33,-6.32 3.24,-9.19zm-307.07 192.8c10.45,11.09 21.89,21.42 34.34,31 0.16,0.11 0.35,0.16 0.54,0.16 0.53,0 0.96,-0.43 0.96,-0.96 0,-0.04 0,-0.08 -0.01,-0.12 -0.29,-1.64 -1.18,-3.16 -2.66,-4.54 -10.35,-9.61 -20.13,-19.32 -29.35,-29.12 -9.25,-9.76 -18.36,-20.12 -27.32,-31.05 -1.29,-1.55 -2.74,-2.51 -4.35,-2.9 -0.06,-0.02 -0.12,-0.02 -0.19,-0.02 -0.54,0 -0.96,0.43 -0.96,0.97 0,0.17 0.05,0.35 0.14,0.5 8.8,12.96 18.42,24.99 28.87,36.07zm114.74 112.24c0.01,0.29 0.01,0.29 0.01,0.29 -0.19,-11.03 -12.8,-19.75 -28.15,-19.48 0,0 0,0 0,0 0,0 0,0 0,0 -15.35,0.27 -27.65,9.42 -27.45,20.45 0,0 0,0 0,0 0.19,11.02 12.8,19.75 28.15,19.48 0,0 0,0 0,0 0,0 0,0 0,0 15.35,-0.27 27.65,-9.43 27.45,-20.45l-0.01 -0.29zm32.51 97.64c10.83,-7.98 10.78,-22.44 -0.39,-29.93 -26.16,-17.61 -67.85,-40.72 -82.26,6.63 -2.45,8.06 -1.23,14.59 3.68,19.59 24.13,24.76 52.66,23.07 78.97,3.72zm3264.09 -593.3c2.42,-8.46 9.63,-20.7 14.85,-35.59 1.81,-5.12 5.98,-6.43 12.52,-3.92 14.77,5.77 26.81,12.77 36.12,20.98 15.52,13.64 29.3,31.53 48.02,41.83 9.76,5.39 24.16,9.93 43.18,13.64 9.35,1.8 15.91,6.22 19.68,13.25 0.33,0.6 0.5,1.27 0.5,1.95 0,2.1 -1.6,3.85 -3.69,4.04 -20.34,1.78 -38.27,6.39 -53.77,13.83 -3.99,1.87 -8.53,1.24 -11.72,-1.55 -31.71,-26.79 -65.32,-53.38 -103.67,-64.8 -1.55,-0.48 -2.46,-2.1 -2.03,-3.65l0 -0.02zm-2687.47 194.49c-0.18,0.9 -0.97,1.54 -1.89,1.54 -0.41,0 -0.82,-0.14 -1.15,-0.38 -0.16,-0.1 -29.2,-22.07 -87.1,-65.91 -16.93,-12.81 -46.57,-25.48 -69.78,-33.03 -34.98,-11.44 -65.92,-22.83 -92.84,-34.14 -2.09,-0.9 -4.6,-0.76 -6.69,0.44 -3.28,1.93 -7.15,4.57 -11.59,7.92 -6.1,4.52 -13.4,5.31 -18.3,2.04 -1.63,-1.07 -3.17,-4.24 -4.62,-9.53 -5.07,-18.81 0.19,-29.98 9.24,-44.39 1.99,-3.08 2,-7.17 -0.03,-10.34 -4.69,-7.16 -8.61,-15.83 -11.77,-26.02 -10.01,-32.31 15.09,-44.39 38.01,-58.08 47.25,-28.09 93.08,25.82 121.18,56.34 59.22,64.25 104.87,134.77 136.95,211.56 0.35,0.87 0.48,1.53 0.39,1.99zm3023.32 -242.9c0.06,-0.01 0.11,-0.02 0.17,-0.02 0.61,0 1.11,0.5 1.11,1.11 0,0.38 -0.19,0.73 -0.51,0.93 -49.29,33.01 -93.91,67.16 -133.85,102.47 -1.04,0.92 -2.38,1.43 -3.77,1.43 -2.51,0 -4.71,-1.65 -5.42,-4.05 -12.04,-39.7 -39.75,-36.51 -71.91,-45.84 -35.98,-10.4 -53.15,-61.31 -101.89,-54.01 -0.17,0.03 -0.33,0.04 -0.48,0.03 -1.33,-0.07 -2.35,-1.23 -2.28,-2.59 0.01,-0.15 0.03,-0.31 0.07,-0.46 3.09,-13.07 1.56,-24.65 -4.6,-34.75 -0.42,-0.68 -0.64,-1.47 -0.64,-2.27 0,-2.15 1.57,-3.98 3.69,-4.3 17.05,-2.81 32.45,-1.27 46.18,4.59 11.99,5.12 23.69,18.67 36.12,30.37 37.86,35.59 99.81,29.16 147.88,20.5 25.89,-4.67 55.93,-9.06 90.14,-13.15zm-624.92 83.03c-0.21,0.05 -0.42,0.08 -0.64,0.08 -1.44,0 -2.61,-1.17 -2.61,-2.61 0,-0.06 0,-0.12 0.01,-0.18 4.06,-55.95 19,-106.68 63.88,-143.62 32.35,-26.65 80.32,-19.15 105.22,13.06 14.65,18.91 -8.56,48.12 -23.79,59.14 -33.89,24.47 -70.46,45.45 -109.72,62.96 -10.35,4.61 -21.13,8.34 -32.35,11.17zm-2699.27 47.1c-2.97,-0.22 -8.06,-1.23 -15.28,-3 -13.98,-3.48 -26.79,-1.84 -40.67,1.5 -0.29,0.07 -0.58,0.11 -0.88,0.11 -1.97,0 -3.59,-1.53 -3.72,-3.49 -0.78,-11.92 -1.25,-19.12 -1.4,-21.57 -1.64,-25.63 -20.5,-47.2 -44.59,-53.43 -15.23,-3.92 -37.38,-0.58 -52.08,4.5 -0.39,0.13 -0.8,0.2 -1.21,0.2 -1.97,0 -3.59,-1.53 -3.72,-3.5 -2.27,-29.88 3.58,-60.44 28.82,-81.33 25.66,-21.24 54.29,-37.32 85.88,-48.21 28.24,-9.77 64.02,-7.54 60.45,32.78 -0.33,3.64 -2.4,6.91 -5.56,8.76 -11.36,6.52 -21.57,11.41 -28.73,20.01 -11.6,13.99 -14.66,30.55 -9.19,49.67 0.39,1.28 0.96,2.49 1.69,3.58l11.41 16.78c2.3,3.38 3.53,7.38 3.53,11.47 0,2.04 -0.31,4.08 -0.91,6.04 -0.07,0.16 -1.58,4.04 -4.55,11.65 -9.05,23.11 9.14,32.88 22.01,44.44 0.38,0.33 0.6,0.81 0.6,1.32 0,0.96 -0.78,1.74 -1.74,1.74 -0.06,0 -0.11,-0.01 -0.16,-0.01l0 0zm3138.21 -130.47c-16.82,-0.26 -30.01,-3.32 -39.55,-9.19 -1.8,-1.08 -3.81,-2.64 -5.6,-4.45 -21.58,-22.58 -36.76,-39.5 -64.91,-38.73 -19.57,0.55 -30.37,0.76 -32.4,0.63 -3.03,-0.33 -6.12,-1.17 -9,-2.47l-36.51 -16.92c-0.47,-0.19 -0.89,-0.34 -1.31,-0.43 -12.52,-2.33 -38.63,-1.51 -33.27,-23.85 2.78,-11.44 10.56,-19.5 23.36,-24.17 30.47,-11.08 51.16,8.12 72.34,27.22 20.98,18.96 45.6,29.55 73.6,20.94 3.55,-1.07 7.3,0.43 9.08,3.59 13.46,23.14 28.72,44.61 45.81,64.4 0.33,0.38 0.51,0.86 0.51,1.36 0,1.15 -0.93,2.08 -2.08,2.08 -0.02,0 -0.05,0 -0.07,-0.01zm-2869 -11.36c-2.68,-0.71 -4.27,-1.21 -4.79,-1.5 -15.6,-8.64 -29.39,-15.81 -41.35,-21.52 -15.7,-7.48 -40.25,-12.84 -73.65,-16.1 -1.64,-0.19 -3,-1.19 -3.6,-2.63 -0.37,-0.83 -1.45,-5.15 -3.26,-12.94 -3.14,-13.59 -17.26,-27.85 -19.59,-40.04 -2.37,-12.62 7.74,-38.64 25,-35.79 29.69,4.94 74.91,19.54 94.73,45.46 17.99,23.53 28.37,50.58 31.14,81.14 0.01,0.1 0.02,0.2 0.02,0.31 0,2.06 -1.67,3.73 -3.72,3.73 -0.32,0 -0.63,-0.04 -0.93,-0.12l0 0zm2214.82 161.51c-0.36,0.09 -0.78,0.09 -1.17,-0.01 -1.4,-0.32 -2.29,-1.7 -1.97,-3.08 0.09,-0.4 0.28,-0.78 0.55,-1.09l175.22 -200.86c0.88,-1 1.36,-2.29 1.36,-3.62 0,-3.03 -2.45,-5.49 -5.47,-5.51 -35.21,-0.45 -66.39,-5.47 -93.57,-15.04 -1.28,-0.45 -2.13,-1.66 -2.13,-3.01 0,-0.54 0.13,-1.07 0.39,-1.54 13.22,-23.85 28.66,-44.16 46.32,-60.93 37.57,-35.74 101.07,-31.19 127.04,18.14 2.59,4.91 3.16,10.59 1.62,15.88l-5.25 18.4c-1.51,5.35 -0.3,10.98 3.19,15.15l8.76 10.72c1.99,2.47 1.67,6 -0.67,8.07 -33.81,29.75 -44.06,74.67 -52.76,118.29 -0.57,2.84 -2.66,5.15 -5.43,6 -16.3,4.96 -30.15,10.21 -41.52,15.76 -50.52,24.57 -91.7,43.81 -123.56,57.74 -10.8,4.74 -21.11,8.25 -30.95,10.54zm-2344.76 -166.79c-0.07,0.27 -0.15,0.5 -0.27,0.71 -0.71,1.28 -2.31,1.76 -3.57,1.06 -0.21,-0.12 -0.41,-0.27 -0.58,-0.44 -28.97,-28.42 -63.98,-39.53 -105.05,-33.34 -1.64,0.26 -3.26,-0.66 -3.92,-2.22 -3,-7.26 -5.13,-17.7 -9.1,-24.09 -16.73,-26.7 -47.05,-26.06 -75.83,-24.23 -0.12,0.01 -0.26,0.01 -0.38,0.01 -2.75,0 -5.1,-1.95 -5.61,-4.66 -7.64,-40.86 32.97,-104.26 73.6,-113.5 42.17,-9.57 92.42,8.75 89.66,58.8 -0.63,11.41 -11.94,25.15 -10.84,36.47 1.89,20.11 18.81,85.45 50.78,72.2 0.64,-0.27 1.32,-0.41 2.01,-0.41 2.86,0 5.18,2.32 5.18,5.18 0,0.38 -0.05,0.76 -0.13,1.13l-5.95 27.32zm3056.3 -220.51c0.17,-0.05 0.36,-0.07 0.54,-0.07 1.1,0 1.99,0.89 1.99,1.98 0,0.37 -0.1,0.73 -0.3,1.04 -19.15,31.87 -45.41,65.82 -71.09,93.72 -22.72,24.66 -37.67,41.36 -44.83,50.1 -4.12,5.03 -11.88,6.83 -23.26,5.42 -23.6,-2.95 -45.85,-27.56 -65.23,-38.45 -30.72,-17.21 -57.73,-13.18 -81,12.09 -0.72,0.78 -1.74,1.23 -2.8,1.23 -1.2,0 -2.32,-0.56 -3.05,-1.52l-17.26 -23.45c-2.05,-2.73 -2.4,-6.45 -0.86,-9.55 10.96,-21.83 27.94,-34.6 54.05,-29.14 15.67,3.29 30.37,10.45 48.84,9.24 18.7,-1.23 35.04,-4.08 49.04,-8.56 46.32,-14.83 92.97,-34.19 139.94,-58.08 5.29,-2.67 10.38,-4.68 15.28,-6zm-185.01 46.09c0.31,0.21 0.63,0.51 0.9,0.86 1.43,1.83 1.12,4.46 -0.69,5.88 -0.35,0.28 -0.75,0.49 -1.17,0.64 -9.23,3.14 -18.98,4.71 -29.27,4.71 -17.51,0 -26.94,-5.32 -42.65,-7.16 -32.14,-3.77 -55.22,6.25 -69.25,30.08 -0.98,1.68 -2.78,2.71 -4.72,2.71 -0.65,0 -1.3,-0.12 -1.9,-0.34 -19.99,-7.22 -38.78,-19.88 -56.39,-37.96 -1.01,-1.01 -1.78,-2.37 -2.15,-3.85 -4.62,-19.8 17.77,-40.3 32.52,-51.43 15.52,-11.7 28.87,-2.08 42.99,7.21 17.99,11.8 39.55,10.35 58.61,0.78 1.36,-0.71 3.05,-0.61 4.37,0.27l68.8 47.61zm-2530.02 78c0.06,0.18 0.09,0.37 0.09,0.56 0,1.01 -0.82,1.83 -1.84,1.83 -0.4,0 -0.79,-0.13 -1.1,-0.37 -33.69,-26.5 -69.75,-45.29 -108.18,-56.38 -10.96,-3.12 -20.3,-4.85 -28,-5.17 -2.91,-0.14 -5.93,0.37 -8.73,1.47 -39.09,15.65 -63.56,11.25 -102.98,-2.44 -0.66,-0.23 -1.45,-0.36 -2.25,-0.33l-20.09 1.3c-0.31,0.02 -0.61,0.03 -0.92,0.03 -2.04,0 -4.06,-0.46 -5.9,-1.34 -26.98,-12.86 -59.29,-63.01 -21.52,-84.19 2.52,-1.42 6.4,-3.5 11.65,-6.24 4.12,-2.12 6.3,-6.75 5.28,-11.25 -3.34,-14.57 -18.57,-41.61 2.8,-48.71 25.96,-8.64 51.83,-7.96 77.62,2.03 67.94,26.26 136.9,76.27 173.65,140 11.96,20.73 22.1,43.8 30.42,69.2zm1964.67 -235.46c13.25,4.32 29.84,5.85 49.76,4.59 8.17,-0.53 15.28,2.03 18.71,10.79 11.86,30.14 34.62,48.61 68.28,55.42 9.83,2 14.96,8.35 15.37,19.05 0.92,24.33 -12.72,32.79 -33.46,44.49 -24.13,13.59 -82.7,43.86 -97.49,4.98 -2.39,-6.35 -3.73,-10.46 -4.02,-12.33 -0.23,-1.62 -1.33,-2.95 -2.85,-3.5 -0.9,-0.31 -3.12,-0.87 -6.67,-1.67 -33.85,-7.74 -24.61,-81.24 -18.67,-105.32 1.68,-6.93 3.76,-11.96 6.24,-15.09 1.23,-1.46 3.14,-1.99 4.85,-1.38l-0.07 -0.03zm530.34 -35.78c0.28,-0.09 0.57,-0.13 0.87,-0.13 1.6,0 2.9,1.3 2.9,2.9 0,0.31 -0.05,0.62 -0.15,0.91 -17.55,52.27 -25.38,73.36 -37.48,117.85 -2.87,10.48 -9.93,16.64 -21.18,18.47 -20.46,3.34 -37.62,-6.38 -57.88,-15.72 -1.66,-0.77 -3.79,-1.45 -5.96,-1.86 -43.35,-7.3 -72.69,7.81 -88,45.34 -1.13,2.9 -4.33,4.59 -7.49,3.89 -16.35,-3.92 -29.31,-11.23 -38.89,-21.93 -13.48,-15.02 -15.75,-31.85 -6.81,-50.48 20.84,-43.33 59.57,-49.57 104.59,-46.47 59.24,4.11 102.18,-18.08 149.57,-49.91 1.78,-1.19 3.74,-2.14 5.9,-2.85zm-271.63 123.07c0.01,0.34 -0.04,0.65 -0.14,0.94 -0.47,1.37 -1.93,2.1 -3.27,1.64 -0.3,-0.1 -0.58,-0.26 -0.82,-0.47 -11.97,-9.79 -26.54,-18.48 -43.69,-26.09 -8.17,-3.62 -12,-9.91 -8.99,-19 7.87,-23.99 24.38,-38.78 49.56,-44.39 43.1,-9.61 68.54,-15.63 76.31,-18.08 20.5,-6.48 48.26,-6.67 70.11,-19.39 1.11,-0.63 2.36,-0.97 3.64,-0.97 1.06,0 2.11,0.23 3.08,0.68 7.77,3.64 15.49,9.78 23.16,18.42 0.51,0.59 0.79,1.34 0.79,2.12 0,0.83 -0.32,1.63 -0.89,2.23 -13.7,14.05 -27.74,21.43 -42.12,22.14 -36.46,1.84 -67.17,0.78 -98.27,22.49 -20.05,13.99 -29.54,33.23 -28.48,57.74zm17.36 -122.44c0.65,0.36 1.06,1.04 1.06,1.78 0,0.96 -0.68,1.8 -1.63,1.99 -22.57,4.03 -42.93,10.94 -61.08,20.74 -22.57,12.15 -33.33,31.03 -32.3,56.63 0.01,0.07 0.01,0.14 0.01,0.21 0,2.61 -2.12,4.74 -4.74,4.74 -0.34,0 -0.69,-0.04 -1.02,-0.11l-69.83 -15.09c-2.22,-0.52 -4.2,-1.41 -5.95,-2.63 -28.73,-19.9 -15.09,-49.4 7.69,-66.22 11.89,-8.75 39.26,-5.18 54.79,-7.3 26.14,-3.51 48.81,-11.99 67.99,-25.44 1.65,-1.17 3.94,-0.95 5.41,0.53 12.87,13.11 21.43,20.9 39.62,30.18zm118.62 -40.62c6.24,11.75 -4.93,16.4 -15.04,20.12 -39.8,14.6 -106.34,20.31 -129.84,-25.14 -9.48,-18.33 0.63,-29.6 18.76,-34.24 28.53,-7.3 54.06,-12.23 82.01,1.26 17.7,8.51 35.06,20.98 44.1,38.01zm-112.56 -2c-0.42,11.95 12.57,22.16 29.01,22.74 16.44,0.58 30.11,-8.7 30.53,-20.71 0,0 0,0 0,0 0.42,-12.01 -12.57,-22.21 -29,-22.79 -16.44,-0.58 -30.12,8.69 -30.53,20.7 0,0 0,0 0,0l0 0.06zm-1225.79 167.48c0.07,0.21 0.1,0.42 0.1,0.64 0,1.2 -0.97,2.18 -2.17,2.18 -0.39,0 -0.78,-0.11 -1.11,-0.31 -38.85,-24.12 -70.62,-54.45 -95.31,-91.01 -32.79,-48.55 -56.48,-107.64 -32.21,-164.56 1.59,-3.76 5.28,-6.21 9.36,-6.21 0.77,0 1.55,0.09 2.3,0.26 26.06,6 47.24,34.33 57.79,58.12 4.57,10.29 12.68,27.15 24.32,50.58 2.19,4.52 3.22,9.15 3.2,13.82 0.33,36.52 7.4,76.71 23.11,110.36 4.9,10.48 8.45,19.18 10.64,26.11zm1116.43 -262.68c0.29,-0.45 0.8,-0.73 1.34,-0.73 0.76,0 1.4,0.53 1.56,1.26 3.83,18.41 7.24,33.64 10.2,45.7 4.22,17.31 15.13,27.5 32.74,30.56 1.47,0.25 2.9,1.05 3.95,2.25 2.68,3.17 4.12,6.62 4.31,10.32 0.1,1.82 -1.01,3.45 -2.71,4.03 -27.66,9.69 -50.24,17.23 -67.75,22.61 -28.24,8.75 -64.66,3.2 -79.7,33.52 -2.58,5.19 -4.66,9.09 -6.24,11.7 -0.84,1.47 -2.38,2.4 -4.06,2.47 -25.18,0.94 -39.69,0.9 -43.52,-0.1 -19.86,-5.22 -29.94,-17.53 -30.22,-36.95 -0.25,-18.27 9.57,-28.24 28.04,-29.49 37.77,-2.61 68.38,-3.1 100.39,-25.29 15.86,-11.03 21.04,-16.54 29.74,-34.14 6.67,-13.34 13.98,-25.92 21.91,-37.72zm-2103.08 170.99c-8.83,-2.48 -20.16,-8.04 -34,-16.69 -48.31,-30.13 -112.43,-91.63 -69.54,-153.68 2.08,-3 5.51,-4.69 9.08,-4.5 51.56,2.23 83.23,48.79 95.42,95.55 6.38,24.53 7.32,50.18 2.8,76.94 -0.25,1.43 -1.5,2.48 -2.95,2.48 -0.28,0 -0.55,-0.04 -0.82,-0.11l0 0zm-485.46 114.27c-0.29,0 -0.55,-0.05 -0.79,-0.16 -1.03,-0.43 -1.5,-1.65 -1.06,-2.71 0.1,-0.23 0.25,-0.45 0.42,-0.63 26.68,-27.74 56.8,-62.22 42.15,-102.64 -7.4,-20.46 -30.08,-36.32 -39.99,-56.87 -21.47,-44.25 -19.58,-100.68 11.65,-140.34 3.87,-4.9 8.14,-8.54 12.82,-10.93 0.23,-0.11 0.48,-0.17 0.73,-0.17 0.91,0 1.64,0.74 1.64,1.64 0,0.14 -0.02,0.28 -0.05,0.41 -13.54,52.47 -12,101.55 22.34,144.11 12.06,14.96 28.19,25.02 48.41,30.18 2.18,0.57 4.68,0.83 7.18,0.72 31.69,-1.79 65.4,-7.93 76.96,25.48 0.8,2.38 -0.44,4.9 -2.77,5.73 -20.64,7.57 -34.08,11.2 -44.96,33.98 -5.83,12.28 -5.5,25.2 1.02,38.73 0.31,0.64 0.46,1.33 0.46,2.03 0,1.4 -0.63,2.74 -1.72,3.63 -18.67,15.52 -33.76,37.81 -18.33,62.09 12,18.83 27.68,33.79 47.05,44.88 1.35,0.79 2.17,2.23 2.17,3.79 0,1.15 -0.45,2.25 -1.26,3.07l-0.09 0.1c-1.67,1.67 -3.95,2.61 -6.32,2.61 -0.94,0 -1.87,-0.15 -2.77,-0.44 -28.58,-9.38 -41.49,-12.52 -65.82,-2.61 -0.44,0.18 -0.92,0.28 -1.41,0.28 -1.95,0 -3.56,-1.52 -3.67,-3.47 -0.45,-10.06 -1.35,-19.5 -2.71,-28.33 -5.75,-37.04 -48.6,-53.63 -81.29,-54.16zm1440.19 -206.39c-0.07,0.18 -0.17,0.36 -0.31,0.52 -0.66,0.77 -1.84,0.83 -2.63,0.15 -0.15,-0.13 -0.28,-0.29 -0.39,-0.46 -21.53,-38.07 -37.73,-70.03 -82.17,-84.3 -2.32,-0.71 -4.07,-2.65 -4.55,-5.03 -1.16,-5.42 -1.4,-10.5 -0.72,-15.28 0.6,-4.35 4.36,-7.61 8.79,-7.59 28.61,0.22 51.06,12.04 67.37,35.45 8.56,12.33 25.92,40.91 21.91,56 -1.52,5.71 -3.95,12.56 -7.3,20.55zm-741.37 140.24c0.01,0.2 -0.02,0.43 -0.08,0.65 -0.35,1.29 -1.69,2.05 -3.01,1.7 -0.22,-0.06 -0.42,-0.14 -0.62,-0.26 -46.6,-27.99 -86.69,-63.15 -120.29,-105.48 -5.22,-6.58 -16.9,-24.04 -35.01,-52.38 -12.29,-19.21 -18.99,-34.67 -20.12,-46.37 -2.61,-27.51 4.64,-72.39 42.02,-66.2 16.59,2.71 27.71,12.43 42.46,24.71 44.14,36.88 68.03,83.95 71.67,141.2 0.25,3.53 0.84,7.14 1.77,10.64 10.62,39.1 17.21,65.3 19.75,78.58 1,5.12 1.48,9.52 1.45,13.2zm1489.17 -31.72c0.52,-3.84 1.47,-7.75 2.85,-11.75 12.44,-36.43 19.1,-58.47 19.97,-66.11 1.84,-16.8 2.64,-38.96 2.41,-66.49 -0.32,-35.88 7.64,-68.53 23.89,-97.92 8.46,-15.38 23.55,-18.86 43.81,-25.44 1.73,-0.56 3.65,-0.06 4.92,1.29 18.78,20.47 11.96,35.23 2.09,60.23 -8.25,20.89 -8.37,40.43 -0.34,58.61 9.28,21.04 9.52,29.4 2.03,50.58 -16.06,45.36 -57.06,79.31 -99.52,98.56 -0.2,0.09 -0.42,0.14 -0.64,0.14 -0.83,0 -1.5,-0.67 -1.5,-1.5 0,-0.06 0.01,-0.13 0.01,-0.19l0 0zm-1395.99 -195.46c0.01,0.03 0.01,0.06 0.01,0.08 0,1.58 -1.28,2.85 -2.85,2.85 -0.23,0 -0.46,-0.03 -0.68,-0.08 -46.28,-11.41 -88.06,-45.55 -95.61,-94.73 -3.74,-24.5 7.4,-37.22 33.41,-38.16 5.09,-0.19 11.98,4.13 20.65,12.96 29.69,30.22 43.71,76.94 45.07,117.07zm14.31 -62.14c-3.58,-1.97 -6.96,-5.92 -10.15,-11.85 -5.51,-10.25 -13.91,-24.05 -25.2,-41.39 -0.84,-1.31 -1.3,-2.83 -1.3,-4.39 0,-1.65 0.51,-3.26 1.44,-4.61l11.17 -16.15c0.83,-1.16 2.16,-1.85 3.59,-1.85 0.78,0 1.55,0.2 2.22,0.6 10.25,5.97 17.84,14.33 22.78,25.1 0.47,1.01 0.69,2.1 0.63,3.18l-2.95 50.11c-0.01,0.11 -0.03,0.21 -0.06,0.31 -0.23,0.82 -1.07,1.31 -1.87,1.08 -0.1,-0.03 -0.21,-0.08 -0.31,-0.13l0.01 0zm-304.56 170.17c-0.03,-0.1 -0.96,-4.22 -2.81,-12.38 -4.29,-19.09 -12.59,-37.9 -24.9,-56.43 -7.3,-11.03 -16.92,-18.52 -25.24,-28.05 -1.07,-1.23 -1.53,-2.88 -1.25,-4.5 3.96,-23.34 -0.27,-42.59 -12.67,-57.74 -12.15,-14.8 -27.66,-25.49 -46.52,-32.06 -0.45,-0.16 -0.93,-0.24 -1.41,-0.24 -2.37,0 -4.3,1.93 -4.3,4.3 0,0.94 0.31,1.86 0.88,2.61 3.8,5.03 7.45,8.77 10.93,11.22 17.85,12.67 26.5,36.99 28.63,58.47 0.02,0.17 0.03,0.35 0.03,0.53 0,2.94 -2.38,5.32 -5.32,5.32 -0.54,0 -1.07,-0.08 -1.58,-0.24 -22.34,-6.99 -42.14,-4.69 -59.38,6.92 -0.62,0.42 -1.37,0.65 -2.12,0.65 -1.59,0 -3.02,-0.99 -3.58,-2.49 -2.64,-7.09 -7.37,-11.32 -14.17,-12.67 -1.44,-0.31 -3.06,-0.18 -4.55,0.4 -20.84,8.45 -48.16,15.8 -68.42,7.09 -1.66,-0.71 -2.75,-2.35 -2.75,-4.17 0,-1.24 0.51,-2.41 1.39,-3.27 13.88,-13.5 30.46,-27.95 22.39,-45.8 -5.54,-12.25 -8.45,-19.02 -8.7,-20.31 -7.69,-40.86 19.05,-60.93 54.21,-69.2 0.17,-0.05 0.35,-0.07 0.53,-0.07 1.1,0 1.99,0.89 1.99,1.99 0,0.44 -0.15,0.88 -0.43,1.23 -18.67,24.47 -23.26,70.65 12.72,82.79 9.51,3.23 16.91,1.32 22.19,-5.71 0.97,-1.27 1.45,-2.92 1.32,-4.57 -1.07,-11.17 1.8,-18.55 8.6,-22.17 15.57,-8.25 32.46,-12.77 50.68,-13.54 23.98,-1.02 37.09,4.88 64.41,11.36 1.81,0.43 3.11,2.07 3.09,3.94 -0.16,10.69 4.53,21.66 14.07,32.91 1.92,2.28 2.98,5.16 2.98,8.14 0,2.51 -0.76,4.97 -2.15,7.05 -15.09,22.34 -24.18,42.12 -16.4,69.87 5.65,20.15 15.96,37.72 30.95,52.71 0.76,0.77 1.18,1.81 1.18,2.88 0,1.43 -0.74,2.75 -1.95,3.5 -9.74,6.03 -16.28,12.59 -19.63,19.68 -0.26,0.58 -0.83,0.95 -1.46,0.95 -0.61,0 -1.17,-0.35 -1.44,-0.91l0 0zm996.99 -126.79l0.82 10.59c0.11,1.09 -0.1,2.25 -0.59,3.27 -9.05,18.45 -19.85,34.18 -32.39,47.17 -0.65,0.67 -1.54,1.06 -2.48,1.06 -1.27,0 -2.44,-0.7 -3.03,-1.83 -24.61,-45.94 -54.55,-79.4 -111.03,-73.79 -1.77,0.17 -3.4,-0.88 -3.97,-2.53 -4.8,-14.14 -12.88,-32.58 -24.23,-55.31 -8.09,-16.19 -11.3,-32.82 -9.62,-49.91 0.23,-2.3 2.17,-4.05 4.48,-4.05 0.28,0 0.57,0.03 0.84,0.08 16.49,3.14 36.41,7.93 50.68,2.66 38.16,-14.02 44.44,19.15 64.9,39.95 18.13,18.47 53.68,37.23 79.89,24.85 5.03,-2.38 13.12,-9.44 24.27,-21.18 12.96,-13.7 22.51,-22.34 28.63,-25.92 19.41,-11.29 40.94,-20.97 64.61,-29.06 3.57,-1.24 7.56,0.08 9.75,3.22 2.88,4.24 3.92,9.44 3.11,15.59 -4.42,33.46 -20.9,60.37 -49.47,80.71 -4.93,3.51 -16.47,8.51 -34.62,14.99 -20.31,7.2 -34.87,14.22 -50.15,24.95 -0.49,0.34 -1.07,0.52 -1.66,0.52 -1.37,0 -2.56,-0.96 -2.84,-2.31 -0.74,-3.74 -1.59,-5.84 -2.56,-6.29 -0.27,-0.09 -0.55,-0.14 -0.83,-0.14 -1.39,0 -2.52,1.13 -2.52,2.52 0,0.06 0,0.13 0.01,0.19l0 0zm-174.18 -108.82c-0.2,-0.44 -0.65,-0.72 -1.13,-0.72 -0.19,0 -0.37,0.04 -0.54,0.12l-0.35 0.16c-0.44,0.21 -0.72,0.65 -0.72,1.14 0,0.18 0.04,0.37 0.12,0.54l35.58 75.29c0.21,0.44 0.65,0.72 1.14,0.72 0.19,0 0.37,-0.04 0.54,-0.12l0.35 -0.17c0.44,-0.21 0.72,-0.65 0.72,-1.14 0,-0.18 -0.04,-0.37 -0.12,-0.54l-35.59 -75.29zm150.34 128.55c2.61,3.12 5.03,6.16 7.25,9.09 0.23,0.28 0.58,0.44 0.94,0.44 0.67,0 1.21,-0.54 1.21,-1.21 0,-0.14 -0.03,-0.27 -0.07,-0.4 -1.48,-3.8 -3.56,-7.3 -6.23,-10.49 -2.68,-3.19 -5.76,-5.86 -9.24,-8.02 -0.2,-0.13 -0.43,-0.2 -0.67,-0.2 -0.67,0 -1.21,0.54 -1.21,1.21 0,0.31 0.12,0.6 0.33,0.83 2.52,2.75 5.08,5.66 7.69,8.76zm-1023.54 -110.26c-1.83,-0.39 -3.13,-2.01 -3.13,-3.88 0,-0.41 0.06,-0.82 0.19,-1.2 5.22,-16.97 17.02,-41.69 36.17,-47.25 41.33,-11.9 82.39,-10.99 123.16,2.71 1.91,0.62 3.25,2.45 3.25,4.48 -0.05,22.75 -13.01,30.68 -36.13,30.24 -23.02,-0.43 -56.19,7.74 -71.67,23.8 -1.09,1.17 -2.8,1.7 -4.45,1.36l-47.39 -10.26zm2261.4 135.3c0.05,0.1 0.08,0.16 0.1,0.23 0.49,1.27 -0.17,2.71 -1.46,3.2 -0.06,0.03 -0.11,0.04 -0.17,0.06 -23.75,7.1 -47.5,15.61 -63.6,34.66 -3.49,4.18 -9.29,5.73 -14.47,3.83 -14.63,-5.43 -23.9,-15.86 -27.8,-31.31 -3.83,-15.18 -6.77,-32.97 -8.8,-53.39 -1.03,-10.41 -6.33,-16.44 -15.91,-18.08 -0.25,-0.04 -0.5,-0.06 -0.74,-0.06 -1.29,0 -2.51,0.57 -3.32,1.56 -14.02,17.26 -43.18,60.25 -38.49,86.51 1.98,11.17 -2.76,14.17 -11.51,19.68 -17.31,10.9 -36.46,17.46 -57.45,19.68 -12.67,1.35 -28.05,-3.24 -42.21,-3.58 -3.89,-0.07 -7.61,0.65 -11.01,2.13 -41.71,17.83 -81.12,12.66 -100.85,-29.65 -10.11,-21.66 -16.2,-56.05 -9.67,-82.64 2.1,-8.45 3.23,-13.32 3.38,-14.6 0.64,-3.36 0.38,-6.72 -0.71,-9.85l-13.5 -38.42c-0.83,-2.53 -1.08,-5.01 -0.8,-7.46 5.2,-49.65 53.32,-63.38 95.87,-71.75 32.53,-6.38 70.41,-10.77 113.64,-13.15 26.98,-1.45 45.84,-2.03 68.81,12.48 44.63,28.09 70.7,69.54 101.79,119.59 13.02,20.99 25.98,44.42 38.88,70.31zm-222.44 -149.73c0.26,-0.51 0.26,-0.51 0.26,-0.51 -9.98,19.58 3.59,46.5 30.32,60.11 0,0 0,0 0,0 26.72,13.62 56.48,8.78 66.45,-10.8 0,0 0,0 0,0 9.98,-19.58 -3.59,-46.5 -30.32,-60.11 0,0 0,0 0,0 -26.72,-13.62 -56.48,-8.78 -66.45,10.8l-0.26 0.51zm-102.19 -8.35c-18.67,3.71 -33.76,13.22 -45.27,28.53 -9.19,12.24 -8.7,32.45 6.77,40.18 15.81,7.89 37.33,7.06 52.95,3.97 15.62,-3.09 35.83,-10.54 47.44,-23.93 11.32,-13.06 4.01,-31.92 -9.14,-39.7 -16.5,-9.74 -34.09,-12.75 -52.75,-9.05zm70.94 157.36c17.74,-0.68 74.61,-17.12 50.68,-45.02 -12.67,-14.74 -30.16,-22.73 -52.47,-23.99 -0.29,-0.04 -0.57,-0.05 -0.82,-0.05 -0.29,0.03 -0.57,0.07 -0.82,0.1 -22.15,2.97 -38.98,12.27 -50.49,27.91 -21.81,29.64 36.17,41.73 53.92,41.05zm-1486.23 23.64c-0.05,0.9 -0.79,1.59 -1.68,1.59 -0.23,0 -0.46,-0.05 -0.68,-0.14 -29.45,-12.97 -57.07,-21.57 -82.6,-37.48 -15.76,-9.86 -30.93,-22.36 -45.5,-37.48 -24.18,-25.14 -12.14,-53.38 -3.29,-84.53 1.78,-6.19 -0.35,-11.78 -6.38,-16.78 -12.38,-10.29 -23.6,-19.09 -33.66,-26.41 -7.54,-5.42 -10.64,-9.04 -6.29,-16.92 1.23,-2.29 3.44,-3.82 6.63,-4.6 19.15,-4.69 30.86,-2.47 47.34,10.64 13.32,10.57 33.06,23.4 59.24,38.49 14.8,8.51 26.6,27.23 31.34,46.37 2.61,10.73 9.09,41.64 19.49,59.48 5.8,9.96 11.23,19.91 16.3,29.84 1.17,2.28 1.71,4.83 1.55,7.4l-1.79 30.51zm-419.74 -230.37c-2.27,-32.01 18.18,-39.17 47.34,-43.43 9.15,-1.35 25.82,-2.01 50,-1.98 10.13,0.03 16.36,3.51 18.72,10.44 7.3,21.28 3.38,42.12 -22.63,46.52 -16.86,2.84 -25.48,4.32 -25.87,4.45 -1.71,0.57 -3.48,0.52 -5.06,-0.13 -18.74,-7.59 -38.36,-11.7 -58.87,-12.35 -1.92,-0.09 -3.48,-1.61 -3.62,-3.53l0 0.01zm524 244.5c-4.35,-1.81 -9.69,-5.03 -16.01,-9.67 -8.64,-6.39 -35.59,-28.16 -80.85,-65.33 -11.41,-9.38 -13.83,-29.69 -19.1,-49.81 -7.25,-27.66 -13.64,-49.95 -39.07,-65.04 -4.87,-2.9 -12.36,-7.9 -22.48,-14.99 -13.54,-9.48 -3.53,-28.43 -0.72,-39.22 0.44,-1.57 0.49,-3.32 0.13,-4.97 -2.59,-11.47 -8.11,-25.74 -4,-33.28 6.72,-12.28 22.92,-11.46 35.11,-9.38 28.19,4.79 58.22,4.79 89.7,3.97 35.21,-0.92 50.34,29.26 68.09,60.5 1.91,3.25 3.16,7.21 3.46,11.28 0.53,8.79 3.34,18.3 8.43,28.52 11.94,24.13 13.54,53.24 11.94,75.29 -0.9,12.29 -4.83,28.21 -11.8,47.78 -9.83,27.63 -16.28,48.47 -19.34,62.53 -0.02,0.08 -0.04,0.15 -0.06,0.21 -0.44,1.37 -1.89,2.13 -3.24,1.69 -0.07,-0.02 -0.13,-0.05 -0.2,-0.07l0.02 0.01zm781.31 -4.55c-0.64,0.46 -1.4,0.71 -2.19,0.71 -1.58,0 -3,-1 -3.52,-2.5 -17.12,-49.47 -30.32,-95.7 -27.13,-148.41 0.52,-8.67 4.23,-20.52 11.12,-35.54 17.31,-37.67 29.74,-60.5 30.27,-93.28 0.02,-1.27 0.31,-2.59 0.84,-3.8 5.69,-13.27 28.27,-11.67 35.04,0.37 6.51,11.67 10.51,23.57 12,35.69 4.86,40.46 1.79,78.92 -9.24,115.38 -11.67,38.59 -26.24,80.45 -43.71,125.58 -1.16,3.03 -2.32,4.97 -3.48,5.8zm-40.04 -160.45c-0.13,0.43 -0.53,0.72 -0.97,0.72 -0.35,0 -0.68,-0.18 -0.86,-0.48 -16.86,-25.86 -30.53,-49.94 -41.01,-72.25 -4.26,-9.04 -7.35,-18.23 -4.88,-29.11 2.19,-9.61 3.77,-19.96 4.74,-31.05 0.81,-9.06 2.91,-14.33 6.33,-15.81 9.62,-4.21 20.21,-3.38 29.5,1.89 1.03,0.58 2.38,4.32 4.06,11.21 4.4,17.94 25.09,16.49 38.4,18.33 3.07,0.41 5.37,3.03 5.37,6.14 0,0.37 -0.03,0.75 -0.1,1.12 -2.08,11.32 -5.71,24.95 -9.96,34.04 -13.05,27.53 -23.26,52.62 -30.61,75.24zm-1585.41 -190.86c-3.29,6.03 -9.27,16.75 -17.94,32.16 -25.39,45.21 -29.21,96.42 -23.84,148.22 3.63,34.57 22.87,85.83 51.02,110.5 27.42,24.08 60.49,14.07 92.65,1.11 1.14,-0.43 2.27,-0.59 3.38,-0.47 6.65,0.67 10.39,3.01 11.22,7 0.35,1.73 0.14,3.51 -0.59,5.1 -10.34,23.28 -16.87,55.83 -3.28,77.83 4.19,6.8 8.99,13.72 14.41,20.74 4.25,5.72 6.74,11.94 7.57,18.48 2.33,16.89 2.34,34.2 0.02,51.93 -3.09,23.5 -14.99,37.04 -35.98,43.81 -2.02,0.65 -4.19,0.43 -6.01,-0.59 -39.06,-21.46 -82.2,-37.47 -126.06,-37.03 -0.01,0 -0.03,0 -0.05,0 -2.05,0 -3.72,-1.63 -3.77,-3.68 -1.11,-34.53 -38.88,-42.02 -66.5,-42.12 0,0 -0.01,0 -0.01,0 -1.6,0 -2.9,-1.3 -2.9,-2.9 0,-0.74 0.28,-1.44 0.79,-1.99 26.95,-29.3 37.3,-64.47 31.05,-105.51 -0.23,-1.49 -5.06,-28.98 -14.51,-82.5 -11.47,-64.96 -1.16,-126.25 30.95,-183.86 16.25,-29.15 35.16,-48.5 56.73,-58.08 0.16,-0.07 0.33,-0.1 0.51,-0.1 0.72,0 1.31,0.59 1.31,1.31 0,0.22 -0.06,0.44 -0.16,0.63l-0.01 0zm867.54 124.57c-0.03,0.02 -0.08,0.05 -0.14,0.07 -1.15,0.56 -2.55,0.07 -3.12,-1.11 -0.03,-0.05 -0.05,-0.1 -0.07,-0.15 -10.81,-27.74 -26.91,-47.2 -48.32,-58.38 -18.52,-9.67 -39.7,-4.83 -57.69,-5.51 -18.96,-0.67 -38.01,-2.21 -57.16,-4.59 -17.92,-2.26 -34.59,1.61 -50,11.61 -0.43,0.28 -0.93,0.43 -1.45,0.43 -0.57,0 -1.13,-0.19 -1.59,-0.53l-39.17 -30.18c-0.21,-0.15 -0.46,-0.23 -0.72,-0.23 -0.38,0 -0.74,0.18 -0.96,0.48l-1.6 2.08c-0.31,0.4 -0.48,0.89 -0.48,1.4 0,0.76 0.38,1.47 1.01,1.89 10.44,6.91 34.24,31.05 31.28,46.81 -2.19,11.64 -5.78,22.5 -10.78,32.59 -0.04,0.09 -0.11,0.22 -0.19,0.35 -1.06,1.7 -3.32,2.21 -5.04,1.13 -0.12,-0.07 -0.23,-0.15 -0.34,-0.24 -15.41,-12.82 -33.51,-17.62 -54.3,-14.39 -12.89,2 -20.98,7.24 -24.27,15.72 -2.46,6.31 -5.39,10.67 -8.81,13.05 -4.96,3.48 -11.81,10.34 -20.55,20.56 -1.1,1.29 -2.85,1.74 -4.38,1.15 -18.71,-6.7 -35.02,-4.54 -48.91,6.49 -13.35,10.64 -10.59,27.85 -8.17,43.29 0.03,0.18 0.05,0.37 0.05,0.56 0,1.9 -1.54,3.44 -3.44,3.44 -0.25,0 -0.48,-0.03 -0.72,-0.08 -37.14,-7.54 -58.27,6.54 -63.4,42.26 -0.04,0.22 -0.55,2.24 -1.55,6.04 -0.19,0.78 -0.89,1.32 -1.69,1.32 -0.43,0 -0.85,-0.16 -1.16,-0.44 -22.06,-19.2 -53.3,-26.79 -81.58,-19.49 0,0 -0.04,0.01 -0.07,0.02 -2.05,0.47 -4.11,-0.83 -4.59,-2.91 -0.01,-0.03 -0.02,-0.05 -0.02,-0.07 -2.26,-11.66 -3.6,-21.09 -4.02,-28.27 -1.11,-20.56 20.99,-27.42 38.25,-29.65 31.11,-4.09 50.5,-7.38 58.18,-9.86 11.75,-3.82 20.6,-25.25 26.59,-33.52 1.04,-1.63 2.56,-3.05 4.36,-4.01l21.52 -11.27c3.06,-1.56 5.83,-4.16 7.74,-7.36l33.17 -57.45c1.88,-3.28 5.23,-5.44 8.99,-5.8 6.19,-0.61 24.31,-1.08 54.35,-1.4 20.65,-0.24 38.35,-6.87 39.31,-29.3 0.72,-16.39 -12.09,-28.92 -24.32,-42.5 -0.39,-0.43 -0.61,-0.99 -0.61,-1.57 0,-1.16 0.86,-2.15 2.01,-2.3 25.87,-3.72 48.02,-2.51 73.65,6.58 17.31,6.16 26.74,9.54 28.29,10.15 6.38,2.25 12.51,3.45 18.69,3.75l17.82 1.04c2.61,0.16 4.99,0.87 7.11,2.07 2.48,1.33 6.02,3.65 10.63,6.97 22.1,16.01 39.41,-0.58 48.26,-20.45 0.18,-0.4 0.41,-0.79 0.69,-1.13 1.87,-2.4 5.32,-2.84 7.7,-0.98 0.35,0.28 0.67,0.6 0.95,0.95 14.02,18.13 30.13,35.01 53.1,38.54 20.31,3.14 40.08,5.22 52.61,21.52 9.38,12.18 18.7,28.86 27.95,50 1.68,3.79 0.22,8.25 -3.38,10.35l-35.5 20.5zm-374.09 -87.58l-37.82 0c-0.01,0 -0.01,0 -0.02,0 -2.61,0 -4.74,-2.12 -4.74,-4.74 0,-0.7 0.15,-1.4 0.45,-2.03 8.9,-19.02 17.41,-33.59 25.53,-43.71 9.48,-11.83 21.67,-15.69 36.56,-11.56 17.89,4.93 46.42,26.93 42.65,49.9 -0.59,3.79 -3.3,6.91 -6.96,8.03l-10.88 3.43c-0.37,0.12 -0.76,0.18 -1.14,0.18 -2.08,0 -3.77,-1.69 -3.77,-3.77 0,-0.53 0.11,-1.05 0.33,-1.54 7.86,-17.7 4,-27.39 -11.61,-29.06 -19.15,-2.03 -39.31,10.54 -27.22,32.59 0.12,0.22 0.18,0.47 0.18,0.72 0,0.85 -0.69,1.54 -1.54,1.55l0 0zm311.95 -103.87c0.04,-0.14 0.11,-0.27 0.2,-0.39 0.36,-0.43 1.02,-0.47 1.47,-0.1 0.11,0.09 0.2,0.2 0.27,0.33l9.82 20.13c0.2,0.47 0.52,0.98 0.9,1.43 15.17,17.97 34.09,32.79 56.79,44.46 23.41,12.04 42.17,13.25 65.43,2.08 0.32,-0.14 0.65,-0.21 1,-0.21 1.34,0 2.42,1.08 2.42,2.42 0,0.12 -0.01,0.24 -0.03,0.36 -3.63,22.2 -14.07,54.5 13.73,70.07 20.24,11.35 41.23,14.97 62.96,10.88 0.26,-0.05 0.52,-0.08 0.78,-0.08 1.54,0 2.94,0.92 3.53,2.35 6.35,14.93 15.26,29.32 26.74,43.19 1.2,1.45 1.66,3.41 1.22,5.27 -4.84,19.41 -12.42,36.36 -22.74,50.87 -1.46,1.98 -3.45,3.34 -5.71,3.95 -35.73,10.08 -69.68,-17.73 -81.04,-49.79 -13.45,-37.91 -33.85,-109.19 -79.07,-120.36 -25.39,-6.28 -55.08,-7.64 -69.78,-35.06 -1.54,-2.85 -1.91,-6.19 -1.01,-9.28l12.13 -42.5zm1386.9 175.44c-22.63,3.48 -46.04,9.16 -70.21,17.02 -37.14,12.04 -68.81,35.59 -71.86,76.84 -0.42,5.8 -5.16,10.36 -10.98,10.54 -7.19,0.29 -15.6,0.37 -25.24,0.24 -11.75,-0.14 -22.92,6.48 -32.93,13.49 -21.28,14.95 -22.72,30.76 -26.35,54.4 -0.5,3.16 -2.69,5.79 -5.71,6.87 -17.41,6.29 -37.54,9.08 -60.4,8.37 -24.82,-0.78 -43.38,-2.66 -55.66,-5.66 -40.43,-9.86 -69.87,-30.58 -88.35,-62.14 -21.6,-36.88 -35.36,-64.59 -41.29,-83.13 -1.45,-4.48 -0.62,-13.99 2.51,-28.53 0.27,-1.24 0.41,-2.3 0.46,-3.36 1.05,-13.21 -1.25,-26.21 -6.89,-39 -11.99,-27.08 -32.3,-36.41 -61.03,-31.05 -0.2,0.03 -0.34,0.05 -0.49,0.06 -2.05,0.11 -3.8,-1.45 -3.91,-3.48 -0.01,-0.15 -0.01,-0.31 0.01,-0.46 1.19,-22.82 12.54,-34.55 34.04,-35.19 17.41,-0.53 33.8,10.3 51.3,13.49 27.61,4.98 81.44,4.59 98.99,-22.15 1.55,-2.38 1.93,-5.19 1.12,-7.77 -2.33,-7.99 -6.3,-15.34 -4.85,-23.9 2.9,-16.64 23.7,-23.45 38.06,-25.82 63.38,-10.51 116.91,-11.65 160.6,-3.44 54.45,10.25 81.29,45.84 119.69,92.95 10.06,12.41 30.13,38.64 60.2,78.67 0.06,0.08 0.11,0.17 0.15,0.27 0.31,0.68 0.02,1.48 -0.64,1.77 -0.1,0.04 -0.2,0.08 -0.31,0.09l-0.02 0zm-317.22 -139.31c-29.5,25.92 -3.44,65.67 22.25,78.87 34.67,17.85 58.08,29.93 94.83,25.2 42.46,-5.47 48.26,-44.59 32.64,-77.42 -21.04,-44.29 -89.32,-41.1 -126.26,-35.39 -10.93,1.67 -18.75,4.59 -23.45,8.75zm189.47 42.5c-17.85,18.42 -15.62,73.74 7.74,87.38 20.36,11.9 53.72,17.22 64.07,-7.49 10.93,-26.02 -22.05,-65.77 -41.49,-79.21 -7.74,-5.35 -16.7,-6.29 -26.88,-2.81 -1.43,0.52 -2.59,1.27 -3.53,2.23l0.1 -0.1zm-246.8 70.61c-8.87,18.18 5.86,43.7 32.93,56.9 0,0 0,0 0,0 27.07,13.21 56.25,9.1 65.16,-9.16 0,0 0,0 0,0 8.91,-18.26 -5.81,-43.78 -32.89,-56.99 0,0 0,0 0,0 -27.07,-13.21 -56.25,-9.1 -65.16,9.16 0,0 0,0 0,0l-0.05 0.09zm133.6 61.89c1.31,29.6 30.03,50.53 58.95,43.62 36.3,-8.7 53.92,-24.92 52.86,-48.65 -1.06,-23.73 -20.05,-38.3 -56.97,-43.72 -29.45,-4.3 -56.19,19.15 -54.84,48.75zm-80.7 60.23c0.02,-0.61 0.02,-0.61 0.02,-0.61 -0.5,14.35 16.47,26.61 37.9,27.36 21.43,0.75 39.22,-10.29 39.72,-24.64 0,0 0,0 0,0 0.51,-14.36 -16.47,-26.61 -37.9,-27.36 -21.43,-0.75 -39.22,10.29 -39.72,24.64l-0.02 0.61zm-683.06 -234.71c-0.07,-0.19 -0.12,-0.38 -0.13,-0.58 -0.05,-1.04 0.77,-1.93 1.83,-1.99 0.19,-0.01 0.39,0.01 0.57,0.05 37.23,9.35 72.89,6.19 106.96,-9.48 5.08,-2.29 9.16,-6.66 11.16,-12.05 5.43,-15.12 8.23,-23.44 22.31,-31.18 0.93,-0.52 1.99,-0.78 3.06,-0.78 3.37,0 6.17,2.63 6.37,6 1.16,20.28 1.02,37.38 -0.43,51.31 -2.08,19.92 -35.3,29.88 -53.05,32.93 -28.53,4.83 -55.85,14.93 -81.97,30.27 -0.42,0.25 -0.91,0.38 -1.4,0.38 -1.48,0 -2.7,-1.17 -2.75,-2.66 -0.78,-21.44 -4.95,-42.18 -12.53,-62.23zm-572.55 -6.29c-0.05,-0.03 -0.08,-0.05 -0.1,-0.07 -1.64,-1.15 -2.03,-3.43 -0.86,-5.09 0.02,-0.03 0.04,-0.06 0.06,-0.09 9.01,-12.24 16.18,-23.53 21.5,-33.88 6.36,-12.38 11.98,-19.89 16.88,-22.54 28.96,-15.67 63.73,6.72 81.77,29.45 4.06,5.12 6.49,10.56 7.3,16.29 5.18,35.45 -37.81,33.46 -62.28,29.5 -20.05,-3.22 -39.46,-7.02 -58.22,-11.41 -2.77,-0.65 -4.79,-1.37 -6.04,-2.18zm48.22 -17.73c0.06,-0.31 0.06,-0.31 0.06,-0.31 -1.9,10.81 9.68,21.89 25.88,24.75 0,0 0,0 0,0 16.2,2.85 30.88,-3.59 32.79,-14.4 0,0 0,0 0,0 1.9,-10.81 -9.68,-21.89 -25.88,-24.75 0,0 0,0 0,0 -16.2,-2.86 -30.88,3.59 -32.79,14.39l-0.06 0.31zm1167.78 -10.17c-3.77,3.05 -11.03,5.66 -15.67,9.82 -11.22,10.06 -13.49,23.39 -6.82,39.99 1.29,3.38 0.68,7.06 -1.53,9.77 -15.87,19.87 -59.5,19.48 -82.08,14.6 -47.97,-10.35 -82.5,-30.61 -102.08,32.44 -0.23,0.72 -0.5,1.32 -0.82,1.89 -2.57,4.44 -8.23,5.97 -12.64,3.42 -0.57,-0.33 -1.11,-0.72 -1.6,-1.16 -8.73,-7.77 -17.33,-18.26 -17.82,-30.79 -1.38,-37.13 15.27,-59.17 49.96,-66.1 2.61,-0.52 5.56,-0.61 8.47,-0.22 24.12,3.6 40.07,7.08 58.5,-4.86 1.31,-0.86 2.39,-1.79 3.34,-2.82 4.8,-5.15 10.71,-11.92 17.74,-20.34 9.09,-10.88 5.56,-22.58 3.34,-37.86 -0.39,-2.89 1.48,-5.54 4.28,-6.16 48.33,-10.87 69.65,23.28 95.87,53.89 0.48,0.57 0.75,1.29 0.75,2.04 0,0.96 -0.44,1.86 -1.18,2.46zm-973.49 -72.39c12.38,-10.06 24.85,-10.49 38.98,-2.08 28.3,16.86 42.62,42.8 42.94,77.81 0.13,13.9 -3.58,25.54 -11.12,34.91 -14.89,18.57 -32.3,18.86 -53.24,9.63 -28.05,-12.33 -55.71,-32.5 -56.38,-65.04 -0.34,-16.78 25.38,-44.3 38.83,-55.22zm-4.56 59.71c-6.71,9.23 -0.87,25.26 13.23,35.51 0,0 0,0 0,0 14.11,10.25 31.15,10.86 38.05,1.35 0,0 0,0 0,0 6.91,-9.5 1.07,-25.52 -13.04,-35.77 0,0 0,0 0,0 -14.1,-10.25 -31.15,-10.86 -38.05,-1.35 0,0 0,0 0,0l-0.19 0.27zm727.94 95.38c0,0.05 0.01,0.12 0.01,0.2 0,2.37 -1.95,4.3 -4.35,4.3 -0.06,0 -0.12,0 -0.17,-0.01l-27.54 -1.64c-2.57,-0.13 -4.68,-2.21 -4.79,-4.8 -0.9,-23.11 -1.53,-43.22 -1.89,-60.33 -0.26,-12.77 6.08,-23.69 19.01,-32.79 1.46,-1.04 3.01,-1.76 4.64,-2.2 16.05,-4.47 29.36,-5.97 40.86,-14.53 16.15,-12.03 18.31,-27.89 6.48,-47.58 -0.34,-0.57 -0.52,-1.2 -0.52,-1.86 0,-1.44 0.85,-2.74 2.16,-3.32 6.45,-2.81 13.68,-3.73 21.71,-2.76 34.86,4.3 68.81,29.64 70.65,67.46 0.87,17.84 -15.86,28.33 -32.4,26.69 -32.3,-3.24 -56.87,-5.85 -80.18,21.66 -13.21,15.62 -14.41,31.72 -13.68,51.5zm-118.14 -199.04c0.93,-1.7 2.72,-2.76 4.66,-2.76 1.48,0 2.89,0.61 3.89,1.69 22.68,24.47 27.47,64.07 23.75,94.05 -8.87,71.05 -34.37,136.5 -76.5,196.33 -10.69,15.19 -20.36,22.87 -38.54,29.74 -30.42,11.46 -57.35,20.55 -77.52,45.16 -13.39,16.3 -25.05,32.16 -48.79,26.5 -15.9,-3.8 -29.3,-9.78 -40.23,-17.94 -2.09,-1.63 -3.77,-3.27 -5.22,-5.08 -16.78,-20.55 -28.53,-49.37 -62.67,-47.53 -0.1,0 -0.2,0.01 -0.31,0.01 -2.66,0 -4.97,-1.82 -5.59,-4.41 -7.35,-30.32 15.13,-38.15 35.01,-52.51 13.88,-9.96 23.07,-31.34 38.01,-41.11 19.25,-12.57 35.75,-19.7 49.52,-21.37 39.3,-4.74 74.5,-18.75 105.62,-42.02 53.77,-40.23 80.18,-86.66 92.84,-152.28 0.52,-2.68 1.21,-4.83 2.08,-6.48zm-169.59 240.58c-18.38,6.96 -38.59,20.12 -46.9,38.25 -7.06,15.37 -3.09,32.06 13.59,38.78 20.17,8.08 34.48,-0.48 58.8,-9.67 24.32,-9.24 40.67,-12.29 50.44,-31.72 8.08,-16.05 0,-31.19 -15.48,-38.01 -18.28,-8.08 -42.12,-4.6 -60.45,2.37zm-90.77 -280.76c-19.99,21.63 -29.88,47.34 -29.69,77.13 0.19,26.79 11.07,48.41 36.65,56.24 12.57,3.87 28.77,-0.92 41.25,-5.51 21.28,-7.84 33.56,-32.3 38.35,-51.89 4.02,-16.44 24.28,-14.12 35.16,-7.98 16.29,9.19 17.02,44.59 16.15,60.16 -0.06,1.27 -1.1,2.26 -2.37,2.26 -0.48,0 -0.96,-0.15 -1.36,-0.42l-8.85 -6.09c-1.79,-1.25 -3.92,-1.92 -6.1,-1.92 -2.09,0 -4.14,0.62 -5.89,1.78 -10.64,7.01 -16.88,14.55 -18.18,29.45 -2.13,23.84 -39.94,28.24 -59.53,30.08 -58.37,5.56 -92.07,-47.05 -85.21,-99.62 4.79,-36.51 13.49,-69.2 48.22,-85.49 0.2,-0.09 0.43,-0.11 0.65,-0.08 0.66,0.09 1.12,0.68 1.04,1.32 -0.03,0.22 -0.13,0.43 -0.28,0.6l-0.01 0.01zm136.95 63.93c-11.51,-9.28 -24.13,-12.65 -37.86,-10.11 -22.54,4.12 -35.22,15.72 -38.06,34.77 -1.55,10.32 -3.5,17.01 -5.85,20.07 -23.26,30.42 -64.51,9.38 -70.84,-23.21 -7.88,-40.23 13.44,-81.73 53.29,-93.91 15.67,-4.79 28,9.58 30.75,22.39 0.02,0.07 0.04,0.19 0.05,0.3 0.16,1.51 -0.92,2.87 -2.41,3.02 -0.12,0.02 -0.24,0.02 -0.36,0.02 -31.46,-1.1 -50.17,14.3 -56.14,46.18 -1.87,9.96 0.68,16.96 7.64,20.99 1.25,0.72 2.67,1.1 4.11,1.1 1.44,0 2.86,-0.38 4.11,-1.1l8.08 -4.69c1.48,-0.86 2.38,-2.43 2.38,-4.14 0,-1.66 -0.86,-3.21 -2.28,-4.08 -5.96,-3.54 -9.25,-8.46 -9.87,-14.75 -2.95,-29.84 32.93,-28.44 51.65,-26.89 0.11,0.01 0.18,0.02 0.25,0.02 3.02,0.11 5.55,-2.23 5.65,-5.22 0.01,-0.08 0.01,-0.16 0.01,-0.25l0 -25.83c0.01,-1.52 1.24,-2.75 2.76,-2.75 0.45,0 0.9,0.11 1.31,0.33 27.18,14.7 49.66,33.95 54.88,65.86 0.04,0.28 0.03,0.56 -0.05,0.83 -0.29,1.08 -1.38,1.73 -2.45,1.44 -0.28,-0.07 -0.53,-0.2 -0.75,-0.39l0.01 0.01zm-241.79 -83.76c5.68,33.53 15.53,81.98 29.55,145.36 0.77,3.48 3.29,12.12 7.54,25.92 7.25,23.36 22,50.2 27.22,67.03 6.87,22.29 9.77,50.05 -2.71,72.05 -13.21,23.26 -52.08,21.61 -47.05,61.07 0.64,5.29 -0.11,8.66 -2.27,10.11 -2.55,1.67 -6.16,1.76 -10.84,0.24 -33.07,-10.67 -49.47,-33.8 -49.18,-69.39 0.03,-6.08 2.23,-11.97 6.19,-16.58 23.35,-27.42 38.3,-54.01 31.62,-90.72 -5.8,-31.72 -17.41,-55.76 -33.66,-95.26 -16.63,-40.43 7.06,-87.09 40.81,-110.98 0.1,-0.07 0.21,-0.14 0.34,-0.19 0.88,-0.37 1.91,0.06 2.3,0.97 0.05,0.12 0.09,0.24 0.11,0.37l0 0.02zm469.17 -8.27c0.29,-0.36 0.73,-0.56 1.19,-0.56 0.86,0 1.55,0.69 1.55,1.55 0,0.11 -0.01,0.21 -0.04,0.32 -6.62,25.39 -15.57,66.78 -4.45,89.75 5.03,10.35 20.07,16.2 25.48,23.75 10.06,14.02 9.93,26.48 -0.38,37.38 -1.76,1.89 -4.09,3.26 -6.68,3.9 -0.71,0.2 -6.83,2.3 -18.38,6.3 -44.97,15.57 -35.78,71.57 -33.9,108.13 0.13,2.17 -0.39,4.33 -1.5,6.19 -1.68,2.87 -4.74,7.78 -9.19,14.75 -8.42,13.25 -5.42,30.9 -12.72,46.96 -0.14,0.33 -0.36,0.66 -0.61,0.95l-40.93 48.62c-0.82,0.99 -2.04,1.57 -3.32,1.57 -1.84,0 -3.49,-1.17 -4.08,-2.92l-7.06 -20.45c-1.5,-4.15 -1.11,-8.94 1.11,-12.93 19.2,-33.63 36.32,-68.5 47.87,-95.05 11.54,-26.47 19.04,-57.59 22.49,-93.38 2.48,-25.86 0.06,-47.68 -7.25,-65.48 -0.61,-1.48 -0.87,-3.09 -0.78,-4.71 0.55,-8.82 2.9,-17.17 7.06,-25.03 12.96,-24.53 27.79,-47.73 44.49,-69.59zm-730.54 12.82c-0.05,0.01 -0.1,0.01 -0.15,0.01 -1.36,0 -2.47,-1.1 -2.47,-2.47 0,-0.91 0.51,-1.76 1.32,-2.18 12.47,-7 25.72,-10.38 39.75,-10.16 54.84,0.87 98.31,50.77 129.98,88.69 28.82,34.38 44.88,73.31 56.38,117.26 9.55,36.43 1.85,66.94 -23.07,91.54 -1.65,1.65 -3.65,2.95 -5.85,3.77l-10.93 4.26c-0.74,0.29 -1.47,0.78 -2.08,1.4l-13.83 14.94c-0.88,0.94 -2.06,1.56 -3.33,1.74 -26.07,4.06 -40.58,-20.74 -36.85,-44.2 1.87,-11.54 4.66,-25.44 8.36,-41.68 15.67,-68.09 -1.4,-153.34 -59.82,-197.4 -23.79,-17.96 -49.59,-26.47 -77.42,-25.53z" fill="#000000" fill-rule="evenodd" />
</svg>