<?xml version="1.0" encoding="UTF-8"?>
<!DOCTYPE svg PUBLIC "-//W3C//DTD SVG 1.1//EN" "http://www.w3.org/Graphics/SVG/1.1/DTD/svg11.dtd">
<!-- Creator: CorelDRAW 2020 (64 Bit) -->
<svg xmlns="http://www.w3.org/2000/svg" xml:space="preserve" width="140.448mm" height="182.199mm" version="1.1" style="shape-rendering:geometricPrecision; text-rendering:geometricPrecision; image-rendering:optimizeQuality; fill-rule:evenodd; clip-rule:evenodd"
viewBox="0 0 577.91 749.71" preserveAspectRatio="none"
 xmlns:xlink="http://www.w3.org/1999/xlink"
 xmlns:xodm="http://www.corel.com/coreldraw/odm/2003">
 <defs>
  <style type="text/css">
   <![CDATA[
    .str0 {stroke:#373435;stroke-width:8.71;stroke-linecap:round;stroke-linejoin:round;stroke-miterlimit:22.9256}
    .fil0 {fill:none;fill-rule:nonzero}
    .fil2 {fill:#373435}
    .fil1 {fill:#FEFEFE;fill-rule:nonzero}
   ]]>
  </style>
 </defs>
 <g id="Camada_x0020_1">
  <metadata id="CorelCorpID_0Corel-Layer"/>
  <g id="_1844246143696">
   <g>
    <path class="fil0 str0" d="M475.26 549.82c0.26,2.19 0.64,4.5 0.75,6.56 0.25,4.88 0.53,10.08 0.84,15.58 0.03,0.55 -0.26,1.06 -0.74,1.33l-8.77 4.93c-0.32,0.17 -0.62,0.29 -0.92,0.36 -2.88,0.71 -5.11,1.03 -7.08,2.58 -0.06,0.05 -0.1,0.13 -0.1,0.21 0,0.09 0.05,0.18 0.12,0.22 0.09,0.06 0.27,0.11 0.52,0.15 0.24,0.03 0.42,0.09 0.53,0.18 1.35,0.95 2.17,1.5 2.46,1.64 1.16,0.56 2.31,2.04 3.52,2.4 0.39,0.12 0.95,0.47 1.66,1.06 0.57,0.48 1.7,0.59 2.4,0.97 1.17,0.63 2.25,1.13 3.24,1.48 0.3,0.1 0.52,0.36 0.59,0.67 1.31,5.87 2.36,11.05 3.13,15.54 0.33,1.94 0.46,4.91 0.36,8.9 -0.03,1.26 -0.41,9.77 -1.15,25.51 -0.22,4.77 -0.12,11.34 0.31,19.71 0.42,8.28 0.9,16.66 1.42,25.15 0,0.01 0,0.01 0,0.02 0,0.17 -0.13,0.31 -0.3,0.32 -2.91,0.19 -8.05,0.72 -15.43,1.58 -4.31,0.51 -9.47,1.03 -15.47,1.54 -15.94,1.38 -25.36,2.15 -28.27,2.32 -18.84,1.12 -32.49,1.96 -40.95,2.51 -1.37,0.09 -2.93,0.31 -4.36,0.37 -8.64,0.35 -18.66,0.79 -30.06,1.33 -15.89,0.75 -30.92,1.18 -45.91,0.76 -7.39,-0.21 -15.28,-0.29 -23.58,-0.6 -12.14,-0.45 -21.95,-0.57 -32.86,-1.1 -6.71,-0.33 -10,-0.33 -15.82,-0.77 -5.9,-0.44 -14.23,-0.65 -21.01,-1.02 -8.88,-0.49 -17.31,-0.94 -25.31,-1.37 -13.32,-0.71 -25.56,-1.85 -38.65,-2.79 -10.14,-0.72 -17.88,-1.74 -28.74,-2.87 -0.35,-0.03 -0.62,-0.34 -0.6,-0.7 0.93,-13.6 1.31,-26.9 1.13,-39.89 -0.01,-0.73 0.08,-2.46 0.2,-3.42 0.49,-3.79 6.4,-4.32 9.41,-4.13 3.15,0.2 7.19,0.56 12.12,1.09 0.54,0.06 0.92,0.07 1.14,0.03 0.26,-0.04 0.45,-0.26 0.45,-0.52 0,-0.12 -0.04,-0.24 -0.12,-0.33 -0.99,-1.24 -2.54,-3.11 -4.62,-5.63 -0.78,-0.94 -2.48,-2.47 -5.1,-4.6 -2.94,-2.39 -7.01,-3.5 -10.07,-5.24 -0.56,-0.32 -0.93,-0.91 -0.98,-1.56 -0.13,-2.2 0,-4.42 0.4,-6.65 0.2,-1.11 0.27,-3.42 0.21,-6.93 -0.08,-4.06 -1.59,-8.33 -2.87,-11.97 -0.78,-2.25 -1.38,-5.08 -1.21,-7.79 0.25,-3.99 0.45,-6.56 0.59,-7.71 0.6,-4.66 0.98,-7.94 1.14,-9.82 0.45,-5.52 0.78,-8.8 0.98,-9.83 0.14,-0.68 0.31,-3.99 0.51,-9.94 0.27,-7.95 0.17,-15.24 -0.31,-21.87 -0.39,-5.43 -0.69,-10.92 -1.55,-16.33 -0.86,-5.41 -1.33,-8.55 -1.42,-9.42 -0.2,-1.93 -0.45,-3.88 0.85,-5.31 2.57,-2.81 4.72,-5.25 6.45,-7.32 1.62,-1.93 2.94,-4.06 3.96,-6.38 1.24,-2.82 2.17,-5.76 2.78,-8.84 0.33,-2.3 0.91,-4.81 1.11,-6.86 0.28,-2.86 0.35,-5.88 0.22,-9.07 -0.02,-0.48 -0.24,-1.97 -0.66,-4.49 -0.22,-1.32 -0.66,-2.78 -1.32,-4.36 -1.85,-4.42 -3.13,-7.33 -3.85,-8.73 -1.84,-3.58 -3.34,-6.13 -4.51,-7.65 -1.2,-1.55 -2.5,-3.26 -3.9,-5.14 -1.76,-2.35 -1.95,-4.37 -1.8,-7.68 0.29,-6.44 0.45,-9.84 0.48,-10.2 0.44,-5.56 0.44,-11.5 1.14,-16.94 0,-0.04 0.03,-0.08 0.08,-0.08 0.04,0 0.08,0.03 0.08,0.08 0.53,2.93 1.33,6.09 2.41,9.48 0.3,0.93 1.01,2.43 2.13,4.49 0.9,1.66 1.65,3.13 2.24,4.43 2.94,6.46 6.01,14.36 8.02,21.97 1.27,4.83 2.56,9.95 3.86,15.35 1.22,5.1 1.9,10.09 2.03,14.98 0.02,5.48 -0.5,10.9 -1.58,16.27 -0.01,0.05 0.02,0.1 0.07,0.11l0 0c0.06,0.01 0.12,-0.02 0.13,-0.07 1.35,-4.34 1.98,-8.89 3.12,-12.93 0.52,-1.86 0.77,-3.7 0.76,-5.52 -0.03,-4.69 -0.16,-9.63 -1.66,-13.96 -1.23,-3.56 -2.54,-7.97 -3.93,-13.23 -0.24,-0.91 -0.73,-2.32 -0.99,-3.24 -1.88,-6.96 -3.17,-11.22 -3.86,-12.79 -1.27,-2.86 -4.05,-9.64 -6.51,-14.86 -3.01,-6.38 -3.8,-12.84 -5.02,-20.11 -0.23,-1.36 0.52,-3.9 0.69,-5.46 0.63,-5.91 0.97,-9.53 1.04,-10.86 0.35,-6.72 0.08,-13.2 -0.8,-19.45 -0.02,-0.16 0.03,-0.32 0.14,-0.44 2.12,-2.36 4.68,-3.85 7.68,-4.46 2,-0.4 5.55,-0.59 8.03,-2.14 0.04,-0.03 0.07,-0.05 0.1,-0.08l2.63 -2.96c0.02,-0.03 0.03,-0.06 0.03,-0.09 0,-0.04 -0.02,-0.08 -0.04,-0.1l-0.11 -0.11c-0.03,-0.03 -0.08,-0.05 -0.13,-0.05 -0.04,0 -0.09,0.02 -0.12,0.04 -2.05,1.67 -4.38,2.38 -7.01,2.12 -2.79,-0.28 -4.3,-0.15 -6.53,0.57 -0.35,0.11 -0.71,0.07 -1,-0.11l-3.52 -2.03c-0.45,-0.26 -0.72,-0.73 -0.72,-1.25 0,-0.06 0,-0.12 0.01,-0.19 0.74,-5.69 1.46,-9.19 1.32,-13.5 -0.37,-11.51 -0.73,-18.94 -1.06,-22.29 -0.5,-5.08 -0.88,-10.06 -1.13,-14.94 -0.2,-3.99 -0.47,-6.78 1.91,-9.51 2.21,-2.54 4.35,-4.74 6.43,-6.61 2.96,-2.65 4.89,-4.63 5.8,-5.94 1.79,-2.57 3.12,-5.27 3.99,-8.1 1.56,-5.08 2.62,-8.85 2.79,-13.65 0.36,-10.25 -0.39,-20.29 -2.24,-30.11 -0.49,-2.58 -1.25,-5.28 -2.29,-8.11 -2.98,-8.1 -5.74,-17.01 -7.62,-25.87 -0.63,-2.98 -1.3,-5.47 -2.01,-7.47 -1.24,-3.5 -1.76,-5.64 -3.21,-9.8 -0.98,-2.79 -1.65,-5.79 -2.01,-9.01 -0.44,-3.82 -1.11,-7.83 -2.01,-12.04 -0.2,-0.93 -0.29,-2.71 -0.28,-5.35 0.01,-1.42 0.33,-3.17 0.96,-5.25 0.91,-3 1.92,-6.91 3.04,-11.72 0.8,-3.46 1.37,-8.41 1.64,-10.98 0.36,-3.42 0.41,-6.79 0.15,-10.12 -0.05,-0.66 0.01,-1.45 0.19,-2.36 0.04,-0.18 0.16,-0.33 0.33,-0.4 3.66,-1.53 7.58,-2.5 11.25,-3.67 2.34,-0.75 4.23,-2.1 5.67,-4.05 0.27,-0.37 0.44,-0.77 0.49,-1.2 0,-0.01 0,-0.01 0,-0.02 0,-0.08 -0.07,-0.15 -0.15,-0.15 -0,0 -0.01,0 -0.01,0l-4.67 0.35c-0.03,0 -0.06,0 -0.09,0 -0.33,0 -0.64,-0.12 -0.88,-0.34 -1.11,-1.04 -1.69,-1.6 -3.07,-2.11 -5.69,-2.11 -9.53,-3.4 -11.53,-3.87 -2.27,-0.53 -2.55,-1.88 -2.4,-4.02 0.4,-5.66 0.59,-9.55 0.57,-11.65 -0.07,-9.51 -0.5,-18.92 -1.29,-28.22 -0.46,-5.46 -1.08,-11.76 -1.86,-18.9 0,0.01 0,0.01 0,0.01 -0.03,-0.23 0.13,-0.45 0.37,-0.47 0,-0 0,-0 0,-0 15.04,-1.47 29.63,-2.78 43.77,-3.93 6.65,-0.54 27.53,-1.79 62.64,-3.76 2.91,-0.16 5.97,-0.35 9.19,-0.55 7.91,-0.5 16.01,-0.46 23.63,-0.84 4.16,-0.21 8.48,-0.37 12.96,-0.48 21.2,-0.55 32.95,-0.86 35.24,-0.93 1.52,-0.05 3.14,-0.05 4.86,0.01 15.32,0.46 25.69,0.76 31.1,0.89 5.55,0.13 10.74,0.33 15.57,0.59 6.76,0.37 13.42,0.46 20.75,0.87 19.38,1.09 33.49,1.89 42.34,2.41 6.07,0.36 15.35,1.02 27.85,1.98 6.35,0.49 18.45,1.7 36.29,3.61 0.01,0 0.03,0 0.04,0.01l2.13 0.52c0.17,0.04 0.29,0.2 0.29,0.38 0,0.01 -0,0.03 -0,0.04 -1.35,13.17 -1.93,26.7 -1.73,40.58 0.04,2.86 0.13,6.87 0.25,12.01 0.02,0.69 -0.15,1.44 -0.51,2.25 -0.07,0.16 -0.16,0.32 -0.27,0.45 -2.61,3.23 -4.9,5.85 -5.14,9.48 -0.12,1.7 -0.02,3.78 0.3,6.24 0.62,4.82 2.44,7.87 5.17,12.11 0.11,0.17 0.17,0.37 0.17,0.57 0.09,3.02 0.11,4.84 0.06,5.48 -0.31,3.91 -0.5,6.98 -0.57,9.22 -0.04,1.2 -0.37,2.62 -0.46,3.74 -0.17,2.13 -0.49,6.15 -0.95,12.06 -1.24,15.88 -0.72,31.71 1.03,47.9 0.26,2.43 0.77,9.68 1.51,21.75 0.37,5.94 0.18,12.53 0.23,17.25 0.03,2.86 -0.82,5.42 -2.55,7.67 -3.48,4.53 -5.79,7.49 -6.92,8.89 -2.13,2.63 -3.78,5.49 -4.78,8.28 -0.73,2.04 -1.27,3.34 -1.64,3.89 -0.02,0.03 -1.23,1.66 -3.63,4.89 -1.36,1.83 -2.42,5.24 -2.94,8.1 -1.13,6.15 -2,10.52 -4.24,15.26 -0.08,0.18 -0.06,0.32 0.05,0.43 0.01,0.01 0.01,0.01 0.02,0.01 0.16,0.13 0.38,0.11 0.49,-0.03 0,-0 0.01,-0.01 0.01,-0.02 1.62,-2.2 2.9,-4.74 3.84,-7.62 0.41,-1.25 1.19,-2.28 2.33,-3.08 1.86,-1.3 3.24,-2.52 5.11,-4.47 0.92,-0.96 2.03,-1.56 3.45,-1.85 3.44,-0.69 6.52,-1.96 9.24,-3.82 0.05,-0.04 0.11,-0.05 0.18,-0.05 0.14,0 0.27,0.1 0.3,0.24 0.98,3.87 1.57,6.64 1.36,10.66 -0.41,7.72 -0.9,14.73 -1.46,21.03 -0.4,4.48 -0.64,7.66 -0.72,9.53 -0.19,4.44 -0.61,8.24 -0.84,12.72 -1.15,22.11 -1.54,44.84 -0.5,67.31 0.21,4.45 0.64,10.28 1.31,17.48 0.59,6.37 1,12.2 1.25,17.49 0.3,6.35 0.67,12.62 1.11,18.81 0.5,6.96 0.73,13.38 0.68,19.26 -0.02,2.61 -1.5,3.89 -3.34,6.01 -5.6,6.43 -8.94,10.42 -10.02,11.97 -1.04,1.51 -2.11,3.75 -3.2,6.74 -0.7,1.9 -1.24,4.33 -1.62,7.29 -0.57,4.42 -0.91,8.91 -1.02,13.47 -0.07,2.78 -0.32,4.99 -1.23,7.93 -0.99,3.22 -1.56,6.51 -1.7,9.9 -0.17,4.23 2.07,8.64 3.9,12.81 0.21,0.48 0.42,1.81 0.4,2.55 -0.01,0.93 -0.05,2.92 -0.11,5.98 -0.04,2.19 -0.65,4.27 -1.82,6.23 -0.14,0.24 -0.15,0.73 -0.02,1.44 0.03,0.16 0.09,0.3 0.17,0.4 0.07,0.08 0.17,0.13 0.28,0.13 0.15,0 0.28,-0.09 0.33,-0.23 0.43,-1.18 0.92,-2.29 1.47,-3.31 2.05,-3.75 2.79,-7.71 2.21,-11.95 -0.04,-0.3 -0.11,-0.59 -0.22,-0.88 -0.37,-0.97 -1.12,-2.82 -2.26,-5.55 -0.2,-0.48 -0.59,-1.94 -1.17,-4.4 -0.83,-3.54 0.23,-6.01 1.73,-9.52 0.48,-1.11 1.41,-2.54 2.81,-4.28 0.25,-0.32 2.16,-2.85 5.72,-7.6 0.04,-0.06 0.08,-0.1 0.12,-0.14l4.75 -4.56c0.04,-0.04 0.09,-0.06 0.14,-0.06 0.11,0 0.21,0.09 0.21,0.21 0,0.01 -0,0.01 -0,0.02 -0.1,1.12 -0.55,6.73 -1.32,16.83 -0.43,5.51 -0.62,11.13 -0.59,16.85 0.04,7.37 0.25,13.06 0.64,17.08 0.35,3.57 0.65,7.1 0.9,10.6zm-360.18 -384.24c0.01,-0.1 0.1,-0.18 0.2,-0.18 0.09,0 0.16,0.06 0.19,0.14 1.93,4.97 3.28,9.74 4.06,14.3 0.49,2.88 0.86,4.73 1.09,5.54 1.03,3.63 1.56,7.71 2.82,11.27 1.01,2.86 1.73,4.71 2.17,5.57 1.37,2.65 2.24,4.71 2.61,6.18 2.52,9.97 3.49,19.75 2.89,29.34 -0.16,2.54 -0.54,5.95 -1.15,10.23 -0.68,4.8 -2.42,9.07 -5.21,12.82 -0.03,0.03 -0.07,0.05 -0.11,0.05 -0.07,0 -0.13,-0.06 -0.13,-0.13 0,-0.01 0,-0.03 0.01,-0.04 0.66,-2.5 0.58,-5.16 -0.23,-7.98 -0.9,-3.14 -2.11,-6.88 -3.63,-11.21 -1.53,-4.35 -6.22,-8.38 -8.63,-11.1 -0.4,-0.45 -0.66,-1 -0.74,-1.6 -0.19,-1.35 -0.25,-2.73 -0.18,-4.15 0.67,-12.3 1.13,-19.41 1.39,-21.33 0.83,-6.19 1.58,-12.56 2.25,-19.11 0.56,-5.53 0.4,-10.3 0.49,-16.45 0,-0.13 -0.01,-0.28 -0.04,-0.42 -0.14,-0.67 -0.18,-1.25 -0.1,-1.75zm14.8 295.78l0.09 0.02c0.03,0 0.06,0.02 0.09,0.04 -0.02,-0.02 -0.05,-0.04 -0.08,-0.04l-0.1 -0.02zm1.91 2.23c0.02,-0.01 0.05,-0.02 0.07,-0.03 -0.02,0.01 -0.05,0.02 -0.07,0.03zm0.07 -0.04c0.04,-0.02 0.07,-0.03 0.11,-0.03 -0.04,0.01 -0.08,0.02 -0.11,0.03zm0.11 -0.03c0.04,-0.01 0.07,-0.01 0.11,-0.01 -0.04,-0 -0.07,0 -0.11,0.01zm330.91 25.48l1.6 -9.67c0.01,-0.07 0.02,-0.14 0.02,-0.21 0.05,-2.86 0.2,-4.64 0.44,-5.33 1.48,-4.28 3.6,-8.01 6.36,-11.19 0.61,-0.7 3.08,-3.31 7.4,-7.84 0.03,-0.03 0.07,-0.05 0.12,-0.05 0.09,0 0.17,0.07 0.17,0.16 0.03,1.8 -0.17,3.44 -0.6,4.93 -0.34,1.17 -1.19,2.57 -2.53,4.21 -1.38,1.68 -3.82,4.85 -7.33,9.53 -0.24,0.33 -0.43,0.66 -0.58,1.01 -1.6,3.72 -2.81,7.07 -3.63,10.07 -0.76,2.76 -1.17,4.24 -1.25,4.43 -0.02,0.03 -0.05,0.05 -0.08,0.05 -0.05,0 -0.09,-0.04 -0.09,-0.09 0,-0 0,-0 0,-0.01l0 0z"/>
    <path id="1" class="fil1" d="M475.26 549.82c0.26,2.19 0.64,4.5 0.75,6.56 0.25,4.88 0.53,10.08 0.84,15.58 0.03,0.55 -0.26,1.06 -0.74,1.33l-8.77 4.93c-0.32,0.17 -0.62,0.29 -0.92,0.36 -2.88,0.71 -5.11,1.03 -7.08,2.58 -0.06,0.05 -0.1,0.13 -0.1,0.21 0,0.09 0.05,0.18 0.12,0.22 0.09,0.06 0.27,0.11 0.52,0.15 0.24,0.03 0.42,0.09 0.53,0.18 1.35,0.95 2.17,1.5 2.46,1.64 1.16,0.56 2.31,2.04 3.52,2.4 0.39,0.12 0.95,0.47 1.66,1.06 0.57,0.48 1.7,0.59 2.4,0.97 1.17,0.63 2.25,1.13 3.24,1.48 0.3,0.1 0.52,0.36 0.59,0.67 1.31,5.87 2.36,11.05 3.13,15.54 0.33,1.94 0.46,4.91 0.36,8.9 -0.03,1.26 -0.41,9.77 -1.15,25.51 -0.22,4.77 -0.12,11.34 0.31,19.71 0.42,8.28 0.9,16.66 1.42,25.15 0,0.01 0,0.01 0,0.02 0,0.17 -0.13,0.31 -0.3,0.32 -2.91,0.19 -8.05,0.72 -15.43,1.58 -4.31,0.51 -9.47,1.03 -15.47,1.54 -15.94,1.38 -25.36,2.15 -28.27,2.32 -18.84,1.12 -32.49,1.96 -40.95,2.51 -1.37,0.09 -2.93,0.31 -4.36,0.37 -8.64,0.35 -18.66,0.79 -30.06,1.33 -15.89,0.75 -30.92,1.18 -45.91,0.76 -7.39,-0.21 -15.28,-0.29 -23.58,-0.6 -12.14,-0.45 -21.95,-0.57 -32.86,-1.1 -6.71,-0.33 -10,-0.33 -15.82,-0.77 -5.9,-0.44 -14.23,-0.65 -21.01,-1.02 -8.88,-0.49 -17.31,-0.94 -25.31,-1.37 -13.32,-0.71 -25.56,-1.85 -38.65,-2.79 -10.14,-0.72 -17.88,-1.74 -28.74,-2.87 -0.35,-0.03 -0.62,-0.34 -0.6,-0.7 0.93,-13.6 1.31,-26.9 1.13,-39.89 -0.01,-0.73 0.08,-2.46 0.2,-3.42 0.49,-3.79 6.4,-4.32 9.41,-4.13 3.15,0.2 7.19,0.56 12.12,1.09 0.54,0.06 0.92,0.07 1.14,0.03 0.26,-0.04 0.45,-0.26 0.45,-0.52 0,-0.12 -0.04,-0.24 -0.12,-0.33 -0.99,-1.24 -2.54,-3.11 -4.62,-5.63 -0.78,-0.94 -2.48,-2.47 -5.1,-4.6 -2.94,-2.39 -7.01,-3.5 -10.07,-5.24 -0.56,-0.32 -0.93,-0.91 -0.98,-1.56 -0.13,-2.2 0,-4.42 0.4,-6.65 0.2,-1.11 0.27,-3.42 0.21,-6.93 -0.08,-4.06 -1.59,-8.33 -2.87,-11.97 -0.78,-2.25 -1.38,-5.08 -1.21,-7.79 0.25,-3.99 0.45,-6.56 0.59,-7.71 0.6,-4.66 0.98,-7.94 1.14,-9.82 0.45,-5.52 0.78,-8.8 0.98,-9.83 0.14,-0.68 0.31,-3.99 0.51,-9.94 0.27,-7.95 0.17,-15.24 -0.31,-21.87 -0.39,-5.43 -0.69,-10.92 -1.55,-16.33 -0.86,-5.41 -1.33,-8.55 -1.42,-9.42 -0.2,-1.93 -0.45,-3.88 0.85,-5.31 2.57,-2.81 4.72,-5.25 6.45,-7.32 1.62,-1.93 2.94,-4.06 3.96,-6.38 1.24,-2.82 2.17,-5.76 2.78,-8.84 0.33,-2.3 0.91,-4.81 1.11,-6.86 0.28,-2.86 0.35,-5.88 0.22,-9.07 -0.02,-0.48 -0.24,-1.97 -0.66,-4.49 -0.22,-1.32 -0.66,-2.78 -1.32,-4.36 -1.85,-4.42 -3.13,-7.33 -3.85,-8.73 -1.84,-3.58 -3.34,-6.13 -4.51,-7.65 -1.2,-1.55 -2.5,-3.26 -3.9,-5.14 -1.76,-2.35 -1.95,-4.37 -1.8,-7.68 0.29,-6.44 0.45,-9.84 0.48,-10.2 0.44,-5.56 0.44,-11.5 1.14,-16.94 0,-0.04 0.03,-0.08 0.08,-0.08 0.04,0 0.08,0.03 0.08,0.08 0.53,2.93 1.33,6.09 2.41,9.48 0.3,0.93 1.01,2.43 2.13,4.49 0.9,1.66 1.65,3.13 2.24,4.43 2.94,6.46 6.01,14.36 8.02,21.97 1.27,4.83 2.56,9.95 3.86,15.35 1.22,5.1 1.9,10.09 2.03,14.98 0.02,5.48 -0.5,10.9 -1.58,16.27 -0.01,0.05 0.02,0.1 0.07,0.11l0 0c0.06,0.01 0.12,-0.02 0.13,-0.07 1.35,-4.34 1.98,-8.89 3.12,-12.93 0.52,-1.86 0.77,-3.7 0.76,-5.52 -0.03,-4.69 -0.16,-9.63 -1.66,-13.96 -1.23,-3.56 -2.54,-7.97 -3.93,-13.23 -0.24,-0.91 -0.73,-2.32 -0.99,-3.24 -1.88,-6.96 -3.17,-11.22 -3.86,-12.79 -1.27,-2.86 -4.05,-9.64 -6.51,-14.86 -3.01,-6.38 -3.8,-12.84 -5.02,-20.11 -0.23,-1.36 0.52,-3.9 0.69,-5.46 0.63,-5.91 0.97,-9.53 1.04,-10.86 0.35,-6.72 0.08,-13.2 -0.8,-19.45 -0.02,-0.16 0.03,-0.32 0.14,-0.44 2.12,-2.36 4.68,-3.85 7.68,-4.46 2,-0.4 5.55,-0.59 8.03,-2.14 0.04,-0.03 0.07,-0.05 0.1,-0.08l2.63 -2.96c0.02,-0.03 0.03,-0.06 0.03,-0.09 0,-0.04 -0.02,-0.08 -0.04,-0.1l-0.11 -0.11c-0.03,-0.03 -0.08,-0.05 -0.13,-0.05 -0.04,0 -0.09,0.02 -0.12,0.04 -2.05,1.67 -4.38,2.38 -7.01,2.12 -2.79,-0.28 -4.3,-0.15 -6.53,0.57 -0.35,0.11 -0.71,0.07 -1,-0.11l-3.52 -2.03c-0.45,-0.26 -0.72,-0.73 -0.72,-1.25 0,-0.06 0,-0.12 0.01,-0.19 0.74,-5.69 1.46,-9.19 1.32,-13.5 -0.37,-11.51 -0.73,-18.94 -1.06,-22.29 -0.5,-5.08 -0.88,-10.06 -1.13,-14.94 -0.2,-3.99 -0.47,-6.78 1.91,-9.51 2.21,-2.54 4.35,-4.74 6.43,-6.61 2.96,-2.65 4.89,-4.63 5.8,-5.94 1.79,-2.57 3.12,-5.27 3.99,-8.1 1.56,-5.08 2.62,-8.85 2.79,-13.65 0.36,-10.25 -0.39,-20.29 -2.24,-30.11 -0.49,-2.58 -1.25,-5.28 -2.29,-8.11 -2.98,-8.1 -5.74,-17.01 -7.62,-25.87 -0.63,-2.98 -1.3,-5.47 -2.01,-7.47 -1.24,-3.5 -1.76,-5.64 -3.21,-9.8 -0.98,-2.79 -1.65,-5.79 -2.01,-9.01 -0.44,-3.82 -1.11,-7.83 -2.01,-12.04 -0.2,-0.93 -0.29,-2.71 -0.28,-5.35 0.01,-1.42 0.33,-3.17 0.96,-5.25 0.91,-3 1.92,-6.91 3.04,-11.72 0.8,-3.46 1.37,-8.41 1.64,-10.98 0.36,-3.42 0.41,-6.79 0.15,-10.12 -0.05,-0.66 0.01,-1.45 0.19,-2.36 0.04,-0.18 0.16,-0.33 0.33,-0.4 3.66,-1.53 7.58,-2.5 11.25,-3.67 2.34,-0.75 4.23,-2.1 5.67,-4.05 0.27,-0.37 0.44,-0.77 0.49,-1.2 0,-0.01 0,-0.01 0,-0.02 0,-0.08 -0.07,-0.15 -0.15,-0.15 -0,0 -0.01,0 -0.01,0l-4.67 0.35c-0.03,0 -0.06,0 -0.09,0 -0.33,0 -0.64,-0.12 -0.88,-0.34 -1.11,-1.04 -1.69,-1.6 -3.07,-2.11 -5.69,-2.11 -9.53,-3.4 -11.53,-3.87 -2.27,-0.53 -2.55,-1.88 -2.4,-4.02 0.4,-5.66 0.59,-9.55 0.57,-11.65 -0.07,-9.51 -0.5,-18.92 -1.29,-28.22 -0.46,-5.46 -1.08,-11.76 -1.86,-18.9 0,0.01 0,0.01 0,0.01 -0.03,-0.23 0.13,-0.45 0.37,-0.47 0,-0 0,-0 0,-0 15.04,-1.47 29.63,-2.78 43.77,-3.93 6.65,-0.54 27.53,-1.79 62.64,-3.76 2.91,-0.16 5.97,-0.35 9.19,-0.55 7.91,-0.5 16.01,-0.46 23.63,-0.84 4.16,-0.21 8.48,-0.37 12.96,-0.48 21.2,-0.55 32.95,-0.86 35.24,-0.93 1.52,-0.05 3.14,-0.05 4.86,0.01 15.32,0.46 25.69,0.76 31.1,0.89 5.55,0.13 10.74,0.33 15.57,0.59 6.76,0.37 13.42,0.46 20.75,0.87 19.38,1.09 33.49,1.89 42.34,2.41 6.07,0.36 15.35,1.02 27.85,1.98 6.35,0.49 18.45,1.7 36.29,3.61 0.01,0 0.03,0 0.04,0.01l2.13 0.52c0.17,0.04 0.29,0.2 0.29,0.38 0,0.01 -0,0.03 -0,0.04 -1.35,13.17 -1.93,26.7 -1.73,40.58 0.04,2.86 0.13,6.87 0.25,12.01 0.02,0.69 -0.15,1.44 -0.51,2.25 -0.07,0.16 -0.16,0.32 -0.27,0.45 -2.61,3.23 -4.9,5.85 -5.14,9.48 -0.12,1.7 -0.02,3.78 0.3,6.24 0.62,4.82 2.44,7.87 5.17,12.11 0.11,0.17 0.17,0.37 0.17,0.57 0.09,3.02 0.11,4.84 0.06,5.48 -0.31,3.91 -0.5,6.98 -0.57,9.22 -0.04,1.2 -0.37,2.62 -0.46,3.74 -0.17,2.13 -0.49,6.15 -0.95,12.06 -1.24,15.88 -0.72,31.71 1.03,47.9 0.26,2.43 0.77,9.68 1.51,21.75 0.37,5.94 0.18,12.53 0.23,17.25 0.03,2.86 -0.82,5.42 -2.55,7.67 -3.48,4.53 -5.79,7.49 -6.92,8.89 -2.13,2.63 -3.78,5.49 -4.78,8.28 -0.73,2.04 -1.27,3.34 -1.64,3.89 -0.02,0.03 -1.23,1.66 -3.63,4.89 -1.36,1.83 -2.42,5.24 -2.94,8.1 -1.13,6.15 -2,10.52 -4.24,15.26 -0.08,0.18 -0.06,0.32 0.05,0.43 0.01,0.01 0.01,0.01 0.02,0.01 0.16,0.13 0.38,0.11 0.49,-0.03 0,-0 0.01,-0.01 0.01,-0.02 1.62,-2.2 2.9,-4.74 3.84,-7.62 0.41,-1.25 1.19,-2.28 2.33,-3.08 1.86,-1.3 3.24,-2.52 5.11,-4.47 0.92,-0.96 2.03,-1.56 3.45,-1.85 3.44,-0.69 6.52,-1.96 9.24,-3.82 0.05,-0.04 0.11,-0.05 0.18,-0.05 0.14,0 0.27,0.1 0.3,0.24 0.98,3.87 1.57,6.64 1.36,10.66 -0.41,7.72 -0.9,14.73 -1.46,21.03 -0.4,4.48 -0.64,7.66 -0.72,9.53 -0.19,4.44 -0.61,8.24 -0.84,12.72 -1.15,22.11 -1.54,44.84 -0.5,67.31 0.21,4.45 0.64,10.28 1.31,17.48 0.59,6.37 1,12.2 1.25,17.49 0.3,6.35 0.67,12.62 1.11,18.81 0.5,6.96 0.73,13.38 0.68,19.26 -0.02,2.61 -1.5,3.89 -3.34,6.01 -5.6,6.43 -8.94,10.42 -10.02,11.97 -1.04,1.51 -2.11,3.75 -3.2,6.74 -0.7,1.9 -1.24,4.33 -1.62,7.29 -0.57,4.42 -0.91,8.91 -1.02,13.47 -0.07,2.78 -0.32,4.99 -1.23,7.93 -0.99,3.22 -1.56,6.51 -1.7,9.9 -0.17,4.23 2.07,8.64 3.9,12.81 0.21,0.48 0.42,1.81 0.4,2.55 -0.01,0.93 -0.05,2.92 -0.11,5.98 -0.04,2.19 -0.65,4.27 -1.82,6.23 -0.14,0.24 -0.15,0.73 -0.02,1.44 0.03,0.16 0.09,0.3 0.17,0.4 0.07,0.08 0.17,0.13 0.28,0.13 0.15,0 0.28,-0.09 0.33,-0.23 0.43,-1.18 0.92,-2.29 1.47,-3.31 2.05,-3.75 2.79,-7.71 2.21,-11.95 -0.04,-0.3 -0.11,-0.59 -0.22,-0.88 -0.37,-0.97 -1.12,-2.82 -2.26,-5.55 -0.2,-0.48 -0.59,-1.94 -1.17,-4.4 -0.83,-3.54 0.23,-6.01 1.73,-9.52 0.48,-1.11 1.41,-2.54 2.81,-4.28 0.25,-0.32 2.16,-2.85 5.72,-7.6 0.04,-0.06 0.08,-0.1 0.12,-0.14l4.75 -4.56c0.04,-0.04 0.09,-0.06 0.14,-0.06 0.11,0 0.21,0.09 0.21,0.21 0,0.01 -0,0.01 -0,0.02 -0.1,1.12 -0.55,6.73 -1.32,16.83 -0.43,5.51 -0.62,11.13 -0.59,16.85 0.04,7.37 0.25,13.06 0.64,17.08 0.35,3.57 0.65,7.1 0.9,10.6zm-360.18 -384.24c0.01,-0.1 0.1,-0.18 0.2,-0.18 0.09,0 0.16,0.06 0.19,0.14 1.93,4.97 3.28,9.74 4.06,14.3 0.49,2.88 0.86,4.73 1.09,5.54 1.03,3.63 1.56,7.71 2.82,11.27 1.01,2.86 1.73,4.71 2.17,5.57 1.37,2.65 2.24,4.71 2.61,6.18 2.52,9.97 3.49,19.75 2.89,29.34 -0.16,2.54 -0.54,5.95 -1.15,10.23 -0.68,4.8 -2.42,9.07 -5.21,12.82 -0.03,0.03 -0.07,0.05 -0.11,0.05 -0.07,0 -0.13,-0.06 -0.13,-0.13 0,-0.01 0,-0.03 0.01,-0.04 0.66,-2.5 0.58,-5.16 -0.23,-7.98 -0.9,-3.14 -2.11,-6.88 -3.63,-11.21 -1.53,-4.35 -6.22,-8.38 -8.63,-11.1 -0.4,-0.45 -0.66,-1 -0.74,-1.6 -0.19,-1.35 -0.25,-2.73 -0.18,-4.15 0.67,-12.3 1.13,-19.41 1.39,-21.33 0.83,-6.19 1.58,-12.56 2.25,-19.11 0.56,-5.53 0.4,-10.3 0.49,-16.45 0,-0.13 -0.01,-0.28 -0.04,-0.42 -0.14,-0.67 -0.18,-1.25 -0.1,-1.75zm14.8 295.78l0.09 0.02c0.03,0 0.06,0.02 0.09,0.04 -0.02,-0.02 -0.05,-0.04 -0.08,-0.04l-0.1 -0.02zm1.91 2.23c0.02,-0.01 0.05,-0.02 0.07,-0.03 -0.02,0.01 -0.05,0.02 -0.07,0.03zm0.07 -0.04c0.04,-0.02 0.07,-0.03 0.11,-0.03 -0.04,0.01 -0.08,0.02 -0.11,0.03zm0.11 -0.03c0.04,-0.01 0.07,-0.01 0.11,-0.01 -0.04,-0 -0.07,0 -0.11,0.01zm330.91 25.48l1.6 -9.67c0.01,-0.07 0.02,-0.14 0.02,-0.21 0.05,-2.86 0.2,-4.64 0.44,-5.33 1.48,-4.28 3.6,-8.01 6.36,-11.19 0.61,-0.7 3.08,-3.31 7.4,-7.84 0.03,-0.03 0.07,-0.05 0.12,-0.05 0.09,0 0.17,0.07 0.17,0.16 0.03,1.8 -0.17,3.44 -0.6,4.93 -0.34,1.17 -1.19,2.57 -2.53,4.21 -1.38,1.68 -3.82,4.85 -7.33,9.53 -0.24,0.33 -0.43,0.66 -0.58,1.01 -1.6,3.72 -2.81,7.07 -3.63,10.07 -0.76,2.76 -1.17,4.24 -1.25,4.43 -0.02,0.03 -0.05,0.05 -0.08,0.05 -0.05,0 -0.09,-0.04 -0.09,-0.09 0,-0 0,-0 0,-0.01l0 0z"/>
   </g>
   <g id="_1844246146144">
    <path class="fil2" d="M104.76 650.69c5.33,0.36 10.63,0.99 15.94,1.61 4.31,0.51 9.47,1.03 15.47,1.54 15.94,1.38 25.36,2.15 28.27,2.32 18.84,1.12 32.49,1.96 40.95,2.51 1.37,0.09 2.93,0.31 4.36,0.37 8.64,0.35 18.66,0.79 30.06,1.33 15.89,0.75 30.92,1.18 45.91,0.76 7.39,-0.21 15.28,-0.29 23.58,-0.6 12.14,-0.45 21.95,-0.57 32.86,-1.1 6.71,-0.33 10,-0.33 15.82,-0.77 5.9,-0.44 14.23,-0.65 21.01,-1.02 8.88,-0.49 17.31,-0.94 25.31,-1.37 13.32,-0.71 25.56,-1.85 38.65,-2.79 9.61,-0.69 17.06,-1.63 27.05,-2.7l0 0c0.55,-0.06 1.11,-0.12 1.67,-0.18 0.07,-0.01 0.15,-0.03 0.22,-0.06l0.65 0 -2.54 0.23 4.57 -0.23 2.79 -0.34 0.17 -0.03 0 -0.06 1.23 -0c0.1,0 0.21,-0.03 0.3,-0.08 1.59,-0.96 2.02,-0.68 3.73,-0.49 0.35,0.04 0.67,0.23 0.88,0.52 0.82,1.16 1.29,1.8 1.41,1.91 0.26,0.22 0.47,0.5 0.61,0.84 0.16,0.4 0.8,1.53 1.91,3.38 0.82,1.36 0.93,2.03 1.36,3.57 0.05,0.19 0.13,0.37 0.23,0.56 0.55,0.98 0.94,2.01 1.14,3.07 0.1,0.54 0.79,0.71 1.13,0.29 1.84,-2.21 4.1,-3.55 6.78,-4.02 7.19,-1.24 12.01,4.89 13.45,11.21 0.05,0.22 0.27,0.37 0.5,0.32l5.49 -1.1c0.12,-0.03 0.25,-0.07 0.37,-0.15 1.15,-0.74 2.59,-0.86 3.28,-2.11 0.09,-0.16 0.21,-0.3 0.36,-0.43 1.18,-0.95 2.14,-2.04 2.87,-3.25 0.03,-0.06 0.08,-0.11 0.12,-0.14l2.69 -2.4c0.14,-0.13 0.33,-0.21 0.51,-0.24 5.08,-0.95 10.02,1.94 13.02,5.97 1.4,1.88 2.29,3.23 2.63,4.06 0.08,0.18 0.24,0.32 0.44,0.36l2.58 0.52c0.05,0.01 0.1,0.03 0.14,0.05 3.41,1.81 5.7,4.43 6.85,7.85 0.07,0.21 0.28,0.36 0.5,0.36l1.93 0c0.08,0 0.16,0.02 0.23,0.04l5.19 1.9c0.06,0.02 0.12,0.05 0.18,0.09l3.08 1.93c0.04,0.02 0.08,0.05 0.13,0.09 1.04,1.04 2.19,1.89 3.43,2.57 0.03,0.02 0.07,0.04 0.1,0.08l4.21 3.57c0.13,0.11 0.25,0.24 0.35,0.4 0.1,0.15 0.73,0.9 1.88,2.25 1.42,1.66 2.45,3.68 3.11,6.05l0.04 0.54c-0.43,0.26 -0.19,0.85 -0.32,1.27 -0.46,1.5 -0.86,2.52 -1.19,3.04 -1.41,2.23 -3.29,4.18 -5.65,5.85 -0.24,0.17 -0.46,0.36 -0.64,0.55 -0.84,0.88 -1.56,1.67 -2.55,2.32 -1.03,0.68 -1.91,1.37 -2.64,2.06 -0.13,0.13 -0.29,0.24 -0.46,0.32 -0.61,0.31 -1.22,0.84 -1.81,1.6 -0.08,0.1 -0.18,0.18 -0.3,0.23l-3.51 1.43c-0.25,0.1 -0.11,0.37 -0.24,0.4l-4.97 1.09c-0.14,0.03 -0.25,0.13 -0.29,0.26l-0.76 2.07c-0.03,0.07 -0.07,0.14 -0.13,0.2 -1.06,0.99 -1.33,2.3 -2.86,3.11 -0.22,0.11 -0.41,0.3 -0.59,0.56 -0.55,0.79 -1.36,1.3 -2.43,1.5 -0.34,0.07 -0.26,0.36 -0.54,0.46 -0.9,0.31 -1.69,0.55 -2.37,0.73 -0.6,0.16 -1.06,0.8 -1.14,1.6 -0.03,0.31 -1.03,0.61 -1.11,1.34 -0,0.03 -0.01,0.06 -0.03,0.08l-3.14 3.86c-1.51,1.29 -3.14,2.28 -4.9,3 -1.98,0.8 -3.85,0.87 -5.61,0.24 -0.23,-0.08 -0.46,-0.19 -0.7,-0.35 -0.27,-0.19 -0.84,-0.64 -1.71,-1.34 -0.84,-0.69 -1.39,-1.48 -1.65,-2.36 -0.05,-0.18 -0.2,-0.31 -0.37,-0.35 -0.72,-0.19 -2.11,-1.77 -3.44,-3.04 -0.43,-0.41 -1.36,-0.78 -2.79,-1.11 -1.65,-0.38 -2.98,-0.76 -4,-1.15 -0.49,-0.19 -1.05,0.05 -1.26,0.54l-2.13 5.14c-0.01,0.03 -0.03,0.07 -0.06,0.1l-0.93 1.13c-0.07,0.08 -0.12,0.18 -0.14,0.27 -0.15,0.5 -0.45,0.91 -0.87,1.23 -0.47,0.35 -0.26,0.97 -0.9,1.13 -0.57,0.16 -1,0.92 -1.64,1.24 -1.53,0.78 -2.54,1.21 -3.04,1.28 -4.43,0.64 -8.28,-0.72 -11.53,-4.05 -0.35,-0.36 -0.96,-0.2 -1.09,0.29 -0.4,1.5 -0.88,2.81 -1.44,3.9 -0.33,0.67 -0.69,1.46 -1.07,2.38 -0.15,0.35 -0.58,1.11 -1.31,2.26 -0.67,1.07 -1.26,2.18 -1.75,3.35l-4.73 0c-0.09,-0.26 -0.15,-0.58 -0.49,-0.6 -1.89,-0.16 -3.53,-0.35 -4.91,-0.56 -2.01,-0.3 -3.45,-0.46 -4.32,-0.48 -1.76,-0.03 -3.53,-0.48 -5.75,-0.63 -9.52,-0.64 -19.02,-1.37 -28.53,-2.14 -3.87,-0.33 -9.25,-0.67 -16.16,-1.02 -0.93,-0.05 -1.96,-0.34 -2.75,-0.38 -6.46,-0.35 -13.74,-0.93 -19.61,-1.26 -6.51,-0.36 -10.23,-0.58 -11.17,-0.66 -4.13,-0.36 -8.58,-0.17 -11.92,-0.46 -4.51,-0.39 -11.17,-0.71 -19.97,-0.95 -3.03,-0.08 -5.44,-0.19 -7.23,-0.32 -2.26,-0.17 -4.67,-0.25 -7.24,-0.24 -1.9,0.01 -4.57,-0.1 -8,-0.35 -3.03,-0.21 -7.37,-0.12 -10.69,-0.33 -5.98,-0.38 -12.21,-0.33 -18.58,-0.65 -9.22,-0.46 -19.28,-0.71 -30.18,-0.76 -4.91,-0.02 -11.36,0.24 -19.37,0.79 -3.32,0.23 -7.63,0.22 -10.07,0.32 -6.18,0.28 -12.39,0.49 -18.63,0.62 -0.87,0.02 -1.64,0.11 -2.31,0.27 -0.15,0.04 -0.31,0.06 -0.5,0.06 -3.27,-0.06 -6.24,0.01 -8.94,0.21 -2.69,0.19 -5.66,0.33 -8.91,0.41 -5.25,0.13 -10.02,0.37 -14.32,0.72 -4.06,0.33 -8.27,0.23 -12.04,0.62 -1.66,0.17 -9.03,0.74 -22.11,1.71 -2.48,0.18 -4.81,0.59 -7.24,0.69 -3.05,0.13 -6.36,0.4 -9.93,0.82 -1.46,0.17 -2.52,0.26 -3.2,0.26 -1.46,0 -3.03,0.3 -4.27,0.42 -11.05,1.02 -16.92,1.56 -17.61,1.63 -1.55,0.16 -4.25,0.8 -6.52,0.65 -0.63,-0.04 -2.03,0.25 -4.21,0.87 -1.58,0.03 -3,0.27 -4.26,0.72l-4.34 0c-0.02,-0.78 -0.27,-1.82 -0.84,-2.39 -0.65,-0.65 -0.98,-1.03 -0.98,-1.13 -0.01,-0.38 -0.11,-0.64 -0.3,-0.78 -0.04,-0.03 -0.32,-0.57 -0.84,-1.61 -0.55,-1.11 -0.94,-2.05 -1.14,-2.81 -0.04,-0.15 -0.12,-0.3 -0.24,-0.42 -0.8,-0.8 -0.35,-1.38 -0.79,-2.24 0.07,-0.64 -0.59,-0.88 -0.97,-0.49 -0.08,0.08 -0.09,0.27 -0.02,0.56 -2.73,2.5 -5.91,3.59 -9.54,3.26 -0.71,-0.07 -1.36,-0.22 -1.97,-0.46 -1.64,-0.65 -3.51,-1.8 -4.52,-3.26 -0.71,-1.03 -1.6,-2.22 -2.19,-3.47 -0.9,-1.91 -1.51,-3.37 -1.83,-4.37 -0.15,-0.5 -0.68,-0.78 -1.17,-0.64l-6.2 1.78c-0.32,0.09 -0.6,0.26 -0.85,0.5 -1.06,1.08 -2.53,2.78 -3.29,3.05 -0.16,0.06 -0.31,0.18 -0.39,0.33l-0.79 1.51c-0.03,0.05 -0.07,0.11 -0.12,0.15l-2.46 2.03c-0.11,0.09 -0.24,0.17 -0.39,0.24 -3.21,1.34 -6.59,-0.03 -9.28,-1.9 -0.95,-0.66 -1.96,-1.67 -3.04,-3.01 -1.02,-1.28 -1.91,-2.42 -2.65,-3.4 -0.08,-0.1 -0.14,-0.23 -0.16,-0.35 -0.27,-1.23 -1.42,-1.54 -2.63,-1.72 -0.14,-0.02 -3.12,-1.52 -3.14,-1.54 -0.38,-0.59 -1.13,-1.23 -2.24,-1.93 -0.2,-0.12 -0.36,-0.31 -0.47,-0.51 -0.42,-0.78 -0.92,-1.46 -1.5,-2.05 -0.48,-0.5 -0.06,-1.06 -0.54,-1.43 -0.24,-0.19 -0.32,-0.37 -0.23,-0.53 0.01,-0.01 -0.01,-0.1 -0.03,-0.25 -0.02,-0.11 -0.1,-0.19 -0.21,-0.22l-5.04 -1.11c-0.34,-0.07 0.11,-0.66 -0.62,-0.52 -0.04,0.01 -0.22,-0.04 -0.52,-0.13 -1.34,-0.43 -2.33,-0.93 -2.98,-1.52 -0.78,-0.71 -1.22,-1.1 -1.32,-1.17 -3.56,-2.64 -7.01,-5.56 -10.36,-8.78 -0.82,-0.78 -1.44,-1.6 -1.87,-2.46 -0.67,-1.31 -1.38,-2.64 -1.49,-4.14 -0.01,-0.17 -0.12,-0.27 -0.23,-0.39l0.16 -0.51c0.48,-0.4 0.18,-0.91 0.47,-1.4 0.61,-1.05 0.74,-2.07 1.74,-2.97 0.4,-0.36 0.13,-0.7 0.37,-0.95l1.82 -1.82c0.09,-0.09 0.16,-0.2 0.2,-0.33 0.2,-0.73 0.62,-1.18 1.26,-1.35 0.16,-0.04 0.31,-0.13 0.42,-0.24l2.26 -2.17c0.34,-0.33 0.7,-0.14 0.86,-0.36 0.83,-1.09 1.47,-1.26 2.7,-2.28 2.31,-1.93 4.8,-3.48 7.77,-4.13 0.16,-0.04 0.33,-0.1 0.48,-0.21 0.91,-0.63 1.97,-0.84 3.16,-0.66 0.59,0.09 1.16,-0.81 1.19,-1.32 0.01,-0.11 1.19,-2.44 1.36,-2.61 1.41,-1.62 2.92,-2.95 4.54,-3.97 0.35,-0.23 0.68,-0.33 0.98,-0.3 0.79,0.06 0.6,-0.5 1.02,-0.5l1.34 -0c0.21,0 0.39,-0.16 0.41,-0.38 0.03,-0.45 0.28,-0.86 0.74,-1.22 0.16,-0.12 0.27,-0.29 0.31,-0.49 0.08,-0.39 0.36,-0.77 0.81,-1.13 0.35,-0.28 0.17,-0.62 0.42,-0.93 0.38,-0.47 1.47,-1.57 3.27,-3.31 1.37,-1.31 3.4,-2.29 6.11,-2.93 1.07,-0.26 1.79,-0.6 2.95,-0.25 0.81,0.24 1.35,0.57 1.63,0.98 0.19,0.27 0.8,0.35 1.08,0.62l1.58 1.58c0.27,0.27 0.1,0.57 0.37,0.84l3.01 3.07c0.32,0.33 0.71,0.61 1.11,0.81 0.16,0.05 0.7,0.33 1.63,0.83 0.75,0.4 1.9,0.12 2.25,0.61 0.05,0.07 0.13,0.12 0.22,0.13l2.03 0.15c0.08,0.01 0.17,0.04 0.23,0.1 0.33,0.32 0.96,0.4 1.89,0.26 0.17,-0.02 0.3,-0.17 0.3,-0.35 0,-0.32 -0.03,-0.65 0.09,-0.96 0.52,-1.43 1.15,-2.87 1.88,-4.3 0.13,-0.28 0.63,-0.21 0.65,-0.68 0.03,-0.89 1.18,-1.09 1.13,-1.78 -0.01,-0.23 0.16,-0.44 0.39,-0.45 0.62,-0.04 1.48,-1.27 2.17,-1.65 1.32,-0.73 2.6,-1.23 3.84,-1.5 0.87,-0.19 1.7,-0.14 2.5,0.15 0.87,0.32 1.67,0.18 2.55,0.52 1.43,0.57 2.51,1.3 3.24,2.2 0.12,0.15 0.29,0.25 0.48,0.29 0.81,0.16 1.32,-0.17 1.53,-0.99 0.07,-0.28 0.18,-0.5 0.33,-0.66 0.57,-0.58 -0.02,-1.1 0.55,-1.6 0.19,-0.18 0.33,-0.5 0.39,-0.96 0.07,-0.44 0.21,-0.88 0.43,-1.32 0.99,-1.97 1.76,-3.55 2.31,-4.73 0.27,-0.58 0.6,-1.07 0.98,-1.46 0.55,-0.56 0.9,-0.95 1.01,-1.16 0.27,-0.5 1.06,0.07 1.46,-0.31 0.48,-0.45 0.95,-0.47 1.4,-0.05 0.32,0.3 1.4,0.05 1.87,0.34 0.28,0.17 0.59,0.33 0.92,0.42l0 0.1 1.91 0.08 0 0.02c0.49,0.02 0.97,0.06 1.46,0.08 0.03,0.03 0.37,0.08 0.41,0.12l0.19 0 0 0.02 1.71 0 0.51 0.03c-0.04,-0 -0.08,-0.01 -0.11,-0.03l-0.4 0zm-80.35 51.85l0 -18.11c0,-0 0,-0 0,-0 -0,-0.06 -0.05,-0.11 -0.12,-0.1 -0,0 -0,0 -0.01,0 -1.25,0.13 -2.4,0.43 -3.46,0.89 -3.83,1.68 -6.89,3.69 -9.19,6.01 -2.93,2.95 -7.45,6.83 -6.13,9.42 0.07,0.15 0.21,0.26 0.37,0.31 2.88,0.9 4.67,1.45 5.37,1.65 2.95,0.82 5.51,1.06 8.59,0.65 1.77,-0.24 3.2,-0.39 4.31,-0.44 0.14,-0.01 0.26,-0.13 0.26,-0.27 0,0 0,0 0,-0l0 0zm529.88 0.59c3.65,0.39 6.17,0.52 7.54,0.4 3.87,-0.33 7.51,-1.41 10.93,-3.24 0.29,-0.16 0.48,-0.47 0.48,-0.8 0,-0.1 -0.02,-0.21 -0.05,-0.3 -0.55,-1.54 -1.31,-2.8 -2.28,-3.79 -2.75,-2.8 -4.42,-4.81 -7.11,-6.71 -2.95,-2.09 -6.06,-3.92 -9.5,-4.28 -0,-0 -0,-0 -0.01,-0 -0.17,-0.02 -0.32,0.11 -0.33,0.27 0,0 -0,0 -0,0.01 -0.09,1.13 -0.08,2.19 0.01,3.18 0.09,0.96 0.16,2.03 0.2,3.2 0.07,1.87 0.01,5.77 -0.19,11.7 -0.01,0.19 0.13,0.35 0.32,0.37l-0 0zm-6.44 0.08c-0,0.01 -0,0.03 -0,0.04 0,0.35 0.24,0.64 0.58,0.72l2.5 0.55c0.04,0.01 0.07,0.01 0.11,0.01 0.28,0 0.51,-0.22 0.51,-0.5 0.2,-6.48 0.04,-11.94 -0.47,-16.36 -0.25,-2.22 -1.18,-6.47 -2.86,-8.62 -1.04,-1.33 -2.18,-2.45 -3.41,-3.35 -0.05,-0.03 -0.1,-0.05 -0.16,-0.05 -0.16,0 -0.28,0.13 -0.28,0.28 0,0.03 0,0.06 0.01,0.09 0.47,1.28 1.05,2.7 1.3,4.06 0.62,3.3 1.45,5.92 1.76,9.13 0.5,5.12 0.64,9.79 0.42,14.01zm-4.12 5.58c1.46,-9.9 0.55,-19.89 -1.99,-29.56 -0.35,-1.33 -0.85,-2.78 -1.5,-4.34 -1.09,-2.6 -1.64,-3.91 -1.65,-3.92 -0.1,-0.19 -0.21,-0.34 -0.34,-0.47 -1.63,-1.76 -3.39,-3.21 -5.28,-4.35 -1.73,-1.04 -3.32,-0.88 -4.75,0.5 -1.8,1.72 -3.64,3.5 -5.53,5.34 -0.3,0.28 -0.59,0.49 -0.9,0.65 -2.37,1.37 -5.11,2.19 -8.23,2.46 -0.17,0.01 -0.3,0.16 -0.3,0.33 0,0.03 0,0.05 0.01,0.08 1.61,6.58 2.52,12.99 2.73,19.23 0.01,0.2 0.05,0.39 0.13,0.57 0.62,1.38 1,2.28 1.14,2.7 2.37,6.9 3.99,11.45 4.84,13.63 0.39,0.99 1.16,2.31 2.31,3.94 2.27,3.22 5.44,4.57 9.51,4.03 4.6,-0.6 6.43,-3.11 8.58,-6.9 0.58,-1.01 0.98,-2.32 1.22,-3.93zm-34.33 10.47c0.03,0.02 0.08,0.03 0.12,0.03 0.11,0 0.21,-0.08 0.23,-0.19 1.55,-7.69 2.19,-15.4 1.92,-23.12 -0.12,-3.34 -0.47,-8.79 -1.2,-12.77 -1.14,-6.17 -2.45,-11.25 -3.93,-15.24 -1.33,-3.58 -6.23,-5.47 -9.54,-3.3 -1.24,0.81 -2.62,1.97 -4.13,3.48 -0.26,0.25 -0.36,0.64 -0.26,0.99 0.84,2.91 1.72,6.36 1.14,9.28 -0.01,0.08 -0.02,0.15 -0.02,0.23 0,0.27 0.09,0.53 0.25,0.74 1.85,2.4 2.47,5.68 2.81,8.91 0.59,5.57 0.83,10.57 0.74,15 -0,0.22 0.04,0.43 0.13,0.62 3.1,7.21 5.46,11.54 11.76,15.34zm-407.65 -45.18c-1.3,-0.02 -2.63,-0.06 -3.99,-0.11 -2.88,-0.12 -6.31,0.35 -10.3,1.4 -0.24,0.06 -0.44,0.21 -0.57,0.4 -0.31,0.45 -0.54,1.03 -0.69,1.74 -1.8,8.25 -2.57,16.82 -2.32,25.7 0.12,4.26 0.66,8.72 1.64,13.38 1.09,5.23 2.17,9.61 3.22,13.13 0.19,0.65 0.45,1.2 0.77,1.64 0.21,0.29 0.55,0.47 0.91,0.48 4.75,0.08 7.38,-0.04 11.41,0.45 2.6,0.32 5.2,0.75 7.81,1.29 0.04,0.01 0.07,0.04 0.07,0.08 0,0.03 -0.02,0.06 -0.05,0.08 -0.49,0.2 -0.89,0.32 -1.18,0.36 -2.93,0.41 -5.7,0.9 -8.64,2.03 -2.15,0.83 -4.55,1.42 -7.19,1.77 -0.03,0 -0.06,0.01 -0.09,0.02 -0.32,0.09 -0.5,0.42 -0.41,0.74 0.01,0.03 0.02,0.06 0.03,0.09l2.56 5.56c0.18,0.4 0.59,0.64 1.03,0.61 4.38,-0.32 8.59,-1 11.86,-1.32 29.66,-2.96 47.83,-4.67 54.51,-5.12 23.29,-1.59 48.37,-2.91 75.24,-3.96 4.85,-0.19 10.03,-0.23 14.76,-0.49 14.42,-0.8 27.99,-0.7 41.67,-0.19 10.46,0.39 21.37,0.45 32.41,0.93 16.78,0.73 33.74,1.48 50.85,2.25 5.1,0.23 8.91,0.44 11.43,0.63 4.99,0.38 9.32,0.46 15.24,0.88 19.6,1.4 36.43,2.7 50.49,3.88 7.02,0.59 15.4,1.39 25.11,2.39 0.8,0.08 1.39,0.1 1.79,0.06 0.43,-0.05 0.81,-0.31 1,-0.71 1.35,-2.83 2.64,-5.87 3.87,-9.11 1.53,-4.03 2.62,-9 3.68,-13.03 0.23,-0.88 0.64,-1.57 0.7,-2.19 0.02,-0.19 -0.12,-0.36 -0.32,-0.39 -6.49,-0.78 -12.68,-3.7 -18.16,-7.24 -0.05,-0.03 -0.08,-0.09 -0.08,-0.15 0,-0.1 0.08,-0.18 0.18,-0.18 0,0 0.01,0 0.01,0 1.83,0.05 3.99,0.04 6.49,-0.05 0.31,-0.01 0.68,-0.2 0.97,-0.22 3.27,-0.18 6.63,-0.71 10.08,-1.59 1.37,-0.35 2.26,-0.72 2.67,-1.09 0.13,-0.12 0.22,-0.29 0.25,-0.46 0.29,-1.6 0.46,-3.36 0.52,-5.3 0.15,-5.02 -0.1,-10.14 -0.77,-15.39 -0.25,-1.93 -0.61,-3.49 -1.08,-4.69 -0.24,-0.6 -0.86,-1.11 -1.88,-1.51 -4.52,-1.8 -9.27,-2.46 -14.27,-1.99 -1.63,0.15 -3.84,0.45 -6.61,0.9 -0.26,0.04 -0.74,0.01 -1.45,-0.09 -0.05,-0.01 -0.08,-0.05 -0.08,-0.1 0,-0.04 0.02,-0.07 0.06,-0.09 2.81,-1.15 5.61,-2.21 8.41,-3.16 4.31,-1.47 8.77,-2.18 13.39,-2.15 0.12,-0 0.21,-0.1 0.21,-0.22 0,-0.01 -0,-0.02 -0,-0.03 -1.08,-7.15 -3.49,-13.81 -7.23,-19.95 -0.25,-0.41 -0.69,-0.65 -1.16,-0.65 -0.04,0 -0.08,0 -0.12,0.01 -0.76,0.07 -3.92,0.45 -9.47,1.16 -2.78,0.35 -5.94,0.7 -9.48,1.04 -14.68,1.4 -23.54,2.22 -26.58,2.44 -4.64,0.33 -21,1.4 -49.1,3.19 -5.73,0.37 -10.64,0.63 -14.74,0.79 -6.46,0.25 -12.7,0.61 -19.66,0.86 -5.91,0.21 -13.94,0.49 -24.11,0.83 -23.94,0.82 -44.86,1.22 -62.78,1.22 -6.51,-0 -14.66,-0.23 -24.44,-0.68 -16.13,-0.74 -25.97,-1.19 -29.5,-1.36 -11.93,-0.55 -23.25,-1.26 -33.94,-2.12 -3.98,-0.32 -6.57,-0.5 -7.77,-0.55 -3.63,-0.15 -6.91,-0.55 -10.35,-0.8 -15.17,-1.1 -24.25,-1.81 -27.25,-2.12 -12.58,-1.31 -23.51,-2.37 -34.92,-4.22 -0.03,-0.01 -0.06,-0.01 -0.1,-0.01 -0.12,0 -0.24,0.04 -0.34,0.1 -0.7,0.48 -1.26,1.12 -1.66,1.93 -2.53,5.08 -4.51,10.1 -5.92,15.06 -0,0.01 -0.01,0.03 -0.01,0.05 -0.01,0.14 0.09,0.26 0.23,0.27 0.02,0 0.04,0 0.06,-0 3.17,-0.5 7.18,-0.35 10.21,1.2 1.71,0.87 2.71,1.39 3.01,1.56 0.04,0.02 0.06,0.06 0.06,0.1 0,0.06 -0.05,0.11 -0.11,0.11 -0,0 -0,0 -0.01,-0l-0 0zm-18.78 0.21c-0,-0.88 0.34,-2.15 1.03,-3.8 0.19,-0.45 0.38,-1.27 0.57,-2.44 0.06,-0.4 -0.05,-0.8 -0.32,-1.1 -2.14,-2.44 -5.05,-4.01 -8.35,-2.72 -3.44,1.34 -3.83,3.16 -5.07,6.98 -2.13,6.56 -3.44,14.05 -3.94,22.47 -0.48,8.18 0.07,16.32 1.65,24.4 0,0 0,0.01 0.01,0.02 0.02,0.06 0.09,0.09 0.16,0.07 0.01,-0 0.01,-0.01 0.02,-0.01 4.26,-2.68 6.24,-6.55 7.64,-11.36 1.21,-4.16 2.31,-8.73 3.33,-13.71 0.06,-0.32 0.09,-0.37 0.08,-0.15 -0.02,0.35 0.01,0.71 0.08,1.07 0,0.01 0,0.01 0.01,0.02 0.01,0.01 0.03,0.01 0.03,0 0,-0 0.01,-0.01 0,-0.02 0.16,-2.36 0.38,-4.93 0.66,-7.7 0.27,-2.7 1.02,-6.75 2.26,-12.17 0.01,-0.04 0.04,-0.07 0.07,-0.07 0.03,0 0.05,0.01 0.07,0.04 0.01,0.01 0.01,0.07 0.02,0.16 0,0.01 0.01,0.02 0.01,0.01zm-17.81 1.16c0,-0.02 0.01,-0.04 0.01,-0.06 0,-0.14 -0.1,-0.25 -0.24,-0.26 -3.42,-0.31 -7.46,-1.36 -9.96,-3.87 -2.65,-2.67 -4.64,-4.51 -5.97,-5.5 -1.1,-0.82 -3.28,0.19 -4.36,0.86 -0.61,0.38 -2.05,1.62 -4.32,3.73 -0.22,0.21 -0.39,0.45 -0.51,0.71 -0.94,2.05 -2.35,5.34 -3.07,8.03 -2.15,7.98 -3.02,16.03 -2.62,24.15 0.12,2.6 0.39,4.76 0.82,6.48 0.31,1.27 1.01,2.84 2.11,4.73 2.42,4.16 6.86,5.34 11.28,4.68 4.63,-0.7 7.96,-5.89 8.98,-10.27 0.77,-3.33 1.93,-6.75 3.22,-9.7 1.53,-3.52 2,-6.15 2.27,-9.65 0.37,-4.77 1.4,-9.72 2.37,-14.07zm-38.24 27.74c0,0.01 0.01,0.02 0.02,0.02 0,0 0.01,-0 0.01,-0l3.33 -1.92c0.12,-0.07 0.19,-0.2 0.19,-0.33 0,-0 0,-0 0,-0 0.01,-5.76 0.26,-10.21 0.77,-13.34 0.66,-4.11 1.61,-8.03 2.84,-11.76 0.01,-0.02 0.01,-0.05 0.01,-0.07 0,-0.1 -0.06,-0.19 -0.16,-0.22 -0.11,-0.04 -0.22,-0.01 -0.32,0.07 -1.8,1.52 -3.13,2.95 -3.97,4.28 -0.15,0.22 -0.31,0.51 -0.44,0.82 -1.26,3.08 -1.99,6.87 -2.19,11.36 -0.25,5.76 -0.28,9.46 -0.09,11.11z"/>
    <path class="fil1" d="M24.41 702.54l0 -18.11c0,-0 0,-0 0,-0 -0,-0.06 -0.05,-0.11 -0.12,-0.1 -0,0 -0,0 -0.01,0 -1.25,0.13 -2.4,0.43 -3.46,0.89 -3.83,1.68 -6.89,3.69 -9.19,6.01 -2.93,2.95 -7.45,6.83 -6.13,9.42 0.07,0.15 0.21,0.26 0.37,0.31 2.88,0.9 4.67,1.45 5.37,1.65 2.95,0.82 5.51,1.06 8.59,0.65 1.77,-0.24 3.2,-0.39 4.31,-0.44 0.14,-0.01 0.26,-0.13 0.26,-0.27 0,0 0,0 0,-0l0 0zm529.88 0.59c3.65,0.39 6.17,0.52 7.54,0.4 3.87,-0.33 7.51,-1.41 10.93,-3.24 0.29,-0.16 0.48,-0.47 0.48,-0.8 0,-0.1 -0.02,-0.21 -0.05,-0.3 -0.55,-1.54 -1.31,-2.8 -2.28,-3.79 -2.75,-2.8 -4.42,-4.81 -7.11,-6.71 -2.95,-2.09 -6.06,-3.92 -9.5,-4.28 -0,-0 -0,-0 -0.01,-0 -0.17,-0.02 -0.32,0.11 -0.33,0.27 0,0 -0,0 -0,0.01 -0.09,1.13 -0.08,2.19 0.01,3.18 0.09,0.96 0.16,2.03 0.2,3.2 0.07,1.87 0.01,5.77 -0.19,11.7 -0.01,0.19 0.13,0.35 0.32,0.37l-0 0zm-6.44 0.08c-0,0.01 -0,0.03 -0,0.04 0,0.35 0.24,0.64 0.58,0.72l2.5 0.55c0.04,0.01 0.07,0.01 0.11,0.01 0.28,0 0.51,-0.22 0.51,-0.5 0.2,-6.48 0.04,-11.94 -0.47,-16.36 -0.25,-2.22 -1.18,-6.47 -2.86,-8.62 -1.04,-1.33 -2.18,-2.45 -3.41,-3.35 -0.05,-0.03 -0.1,-0.05 -0.16,-0.05 -0.16,0 -0.28,0.13 -0.28,0.28 0,0.03 0,0.06 0.01,0.09 0.47,1.28 1.05,2.7 1.3,4.06 0.62,3.3 1.45,5.92 1.76,9.13 0.5,5.12 0.64,9.79 0.42,14.01zm-4.12 5.58c1.46,-9.9 0.55,-19.89 -1.99,-29.56 -0.35,-1.33 -0.85,-2.78 -1.5,-4.34 -1.09,-2.6 -1.64,-3.91 -1.65,-3.92 -0.1,-0.19 -0.21,-0.34 -0.34,-0.47 -1.63,-1.76 -3.39,-3.21 -5.28,-4.35 -1.73,-1.04 -3.32,-0.88 -4.75,0.5 -1.8,1.72 -3.64,3.5 -5.53,5.34 -0.3,0.28 -0.59,0.49 -0.9,0.65 -2.37,1.37 -5.11,2.19 -8.23,2.46 -0.17,0.01 -0.3,0.16 -0.3,0.33 0,0.03 0,0.05 0.01,0.08 1.61,6.58 2.52,12.99 2.73,19.23 0.01,0.2 0.05,0.39 0.13,0.57 0.62,1.38 1,2.28 1.14,2.7 2.37,6.9 3.99,11.45 4.84,13.63 0.39,0.99 1.16,2.31 2.31,3.94 2.27,3.22 5.44,4.57 9.51,4.03 4.6,-0.6 6.43,-3.11 8.58,-6.9 0.58,-1.01 0.98,-2.32 1.22,-3.93zm-34.33 10.47c0.03,0.02 0.08,0.03 0.12,0.03 0.11,0 0.21,-0.08 0.23,-0.19 1.55,-7.69 2.19,-15.4 1.92,-23.12 -0.12,-3.34 -0.47,-8.79 -1.2,-12.77 -1.14,-6.17 -2.45,-11.25 -3.93,-15.24 -1.33,-3.58 -6.23,-5.47 -9.54,-3.3 -1.24,0.81 -2.62,1.97 -4.13,3.48 -0.26,0.25 -0.36,0.64 -0.26,0.99 0.84,2.91 1.72,6.36 1.14,9.28 -0.01,0.08 -0.02,0.15 -0.02,0.23 0,0.27 0.09,0.53 0.25,0.74 1.85,2.4 2.47,5.68 2.81,8.91 0.59,5.57 0.83,10.57 0.74,15 -0,0.22 0.04,0.43 0.13,0.62 3.1,7.21 5.46,11.54 11.76,15.34zm-407.65 -45.18c-1.3,-0.02 -2.63,-0.06 -3.99,-0.11 -2.88,-0.12 -6.31,0.35 -10.3,1.4 -0.24,0.06 -0.44,0.21 -0.57,0.4 -0.31,0.45 -0.54,1.03 -0.69,1.74 -1.8,8.25 -2.57,16.82 -2.32,25.7 0.12,4.26 0.66,8.72 1.64,13.38 1.09,5.23 2.17,9.61 3.22,13.13 0.19,0.65 0.45,1.2 0.77,1.64 0.21,0.29 0.55,0.47 0.91,0.48 4.75,0.08 7.38,-0.04 11.41,0.45 2.6,0.32 5.2,0.75 7.81,1.29 0.04,0.01 0.07,0.04 0.07,0.08 0,0.03 -0.02,0.06 -0.05,0.08 -0.49,0.2 -0.89,0.32 -1.18,0.36 -2.93,0.41 -5.7,0.9 -8.64,2.03 -2.15,0.83 -4.55,1.42 -7.19,1.77 -0.03,0 -0.06,0.01 -0.09,0.02 -0.32,0.09 -0.5,0.42 -0.41,0.74 0.01,0.03 0.02,0.06 0.03,0.09l2.56 5.56c0.18,0.4 0.59,0.64 1.03,0.61 4.38,-0.32 8.59,-1 11.86,-1.32 29.66,-2.96 47.83,-4.67 54.51,-5.12 23.29,-1.59 48.37,-2.91 75.24,-3.96 4.85,-0.19 10.03,-0.23 14.76,-0.49 14.42,-0.8 27.99,-0.7 41.67,-0.19 10.46,0.39 21.37,0.45 32.41,0.93 16.78,0.73 33.74,1.48 50.85,2.25 5.1,0.23 8.91,0.44 11.43,0.63 4.99,0.38 9.32,0.46 15.24,0.88 19.6,1.4 36.43,2.7 50.49,3.88 7.02,0.59 15.4,1.39 25.11,2.39 0.8,0.08 1.39,0.1 1.79,0.06 0.43,-0.05 0.81,-0.31 1,-0.71 1.35,-2.83 2.64,-5.87 3.87,-9.11 1.53,-4.03 2.62,-9 3.68,-13.03 0.23,-0.88 0.64,-1.57 0.7,-2.19 0.02,-0.19 -0.12,-0.36 -0.32,-0.39 -6.49,-0.78 -12.68,-3.7 -18.16,-7.24 -0.05,-0.03 -0.08,-0.09 -0.08,-0.15 0,-0.1 0.08,-0.18 0.18,-0.18 0,0 0.01,0 0.01,0 1.83,0.05 3.99,0.04 6.49,-0.05 0.31,-0.01 0.68,-0.2 0.97,-0.22 3.27,-0.18 6.63,-0.71 10.08,-1.59 1.37,-0.35 2.26,-0.72 2.67,-1.09 0.13,-0.12 0.22,-0.29 0.25,-0.46 0.29,-1.6 0.46,-3.36 0.52,-5.3 0.15,-5.02 -0.1,-10.14 -0.77,-15.39 -0.25,-1.93 -0.61,-3.49 -1.08,-4.69 -0.24,-0.6 -0.86,-1.11 -1.88,-1.51 -4.52,-1.8 -9.27,-2.46 -14.27,-1.99 -1.63,0.15 -3.84,0.45 -6.61,0.9 -0.26,0.04 -0.74,0.01 -1.45,-0.09 -0.05,-0.01 -0.08,-0.05 -0.08,-0.1 0,-0.04 0.02,-0.07 0.06,-0.09 2.81,-1.15 5.61,-2.21 8.41,-3.16 4.31,-1.47 8.77,-2.18 13.39,-2.15 0.12,-0 0.21,-0.1 0.21,-0.22 0,-0.01 -0,-0.02 -0,-0.03 -1.08,-7.15 -3.49,-13.81 -7.23,-19.95 -0.25,-0.41 -0.69,-0.65 -1.16,-0.65 -0.04,0 -0.08,0 -0.12,0.01 -0.76,0.07 -3.92,0.45 -9.47,1.16 -2.78,0.35 -5.94,0.7 -9.48,1.04 -14.68,1.4 -23.54,2.22 -26.58,2.44 -4.64,0.33 -21,1.4 -49.1,3.19 -5.73,0.37 -10.64,0.63 -14.74,0.79 -6.46,0.25 -12.7,0.61 -19.66,0.86 -5.91,0.21 -13.94,0.49 -24.11,0.83 -23.94,0.82 -44.86,1.22 -62.78,1.22 -6.51,-0 -14.66,-0.23 -24.44,-0.68 -16.13,-0.74 -25.97,-1.19 -29.5,-1.36 -11.93,-0.55 -23.25,-1.26 -33.94,-2.12 -3.98,-0.32 -6.57,-0.5 -7.77,-0.55 -3.63,-0.15 -6.91,-0.55 -10.35,-0.8 -15.17,-1.1 -24.25,-1.81 -27.25,-2.12 -12.58,-1.31 -23.51,-2.37 -34.92,-4.22 -0.03,-0.01 -0.06,-0.01 -0.1,-0.01 -0.12,0 -0.24,0.04 -0.34,0.1 -0.7,0.48 -1.26,1.12 -1.66,1.93 -2.53,5.08 -4.51,10.1 -5.92,15.06 -0,0.01 -0.01,0.03 -0.01,0.05 -0.01,0.14 0.09,0.26 0.23,0.27 0.02,0 0.04,0 0.06,-0 3.17,-0.5 7.18,-0.35 10.21,1.2 1.71,0.87 2.71,1.39 3.01,1.56 0.04,0.02 0.06,0.06 0.06,0.1 0,0.06 -0.05,0.11 -0.11,0.11 -0,0 -0,0 -0.01,-0l-0 0zm-18.78 0.21c-0,-0.88 0.34,-2.15 1.03,-3.8 0.19,-0.45 0.38,-1.27 0.57,-2.44 0.06,-0.4 -0.05,-0.8 -0.32,-1.1 -2.14,-2.44 -5.05,-4.01 -8.35,-2.72 -3.44,1.34 -3.83,3.16 -5.07,6.98 -2.13,6.56 -3.44,14.05 -3.94,22.47 -0.48,8.18 0.07,16.32 1.65,24.4 0,0 0,0.01 0.01,0.02 0.02,0.06 0.09,0.09 0.16,0.07 0.01,-0 0.01,-0.01 0.02,-0.01 4.26,-2.68 6.24,-6.55 7.64,-11.36 1.21,-4.16 2.31,-8.73 3.33,-13.71 0.06,-0.32 0.09,-0.37 0.08,-0.15 -0.02,0.35 0.01,0.71 0.08,1.07 0,0.01 0,0.01 0.01,0.02 0.01,0.01 0.03,0.01 0.03,0 0,-0 0.01,-0.01 0,-0.02 0.16,-2.36 0.38,-4.93 0.66,-7.7 0.27,-2.7 1.02,-6.75 2.26,-12.17 0.01,-0.04 0.04,-0.07 0.07,-0.07 0.03,0 0.05,0.01 0.07,0.04 0.01,0.01 0.01,0.07 0.02,0.16 0,0.01 0.01,0.02 0.01,0.01zm-17.81 1.16c0,-0.02 0.01,-0.04 0.01,-0.06 0,-0.14 -0.1,-0.25 -0.24,-0.26 -3.42,-0.31 -7.46,-1.36 -9.96,-3.87 -2.65,-2.67 -4.64,-4.51 -5.97,-5.5 -1.1,-0.82 -3.28,0.19 -4.36,0.86 -0.61,0.38 -2.05,1.62 -4.32,3.73 -0.22,0.21 -0.39,0.45 -0.51,0.71 -0.94,2.05 -2.35,5.34 -3.07,8.03 -2.15,7.98 -3.02,16.03 -2.62,24.15 0.12,2.6 0.39,4.76 0.82,6.48 0.31,1.27 1.01,2.84 2.11,4.73 2.42,4.16 6.86,5.34 11.28,4.68 4.63,-0.7 7.96,-5.89 8.98,-10.27 0.77,-3.33 1.93,-6.75 3.22,-9.7 1.53,-3.52 2,-6.15 2.27,-9.65 0.37,-4.77 1.4,-9.72 2.37,-14.07zm-38.24 27.74c0,0.01 0.01,0.02 0.02,0.02 0,0 0.01,-0 0.01,-0l3.33 -1.92c0.12,-0.07 0.19,-0.2 0.19,-0.33 0,-0 0,-0 0,-0 0.01,-5.76 0.26,-10.21 0.77,-13.34 0.66,-4.11 1.61,-8.03 2.84,-11.76 0.01,-0.02 0.01,-0.05 0.01,-0.07 0,-0.1 -0.06,-0.19 -0.16,-0.22 -0.11,-0.04 -0.22,-0.01 -0.32,0.07 -1.8,1.52 -3.13,2.95 -3.97,4.28 -0.15,0.22 -0.31,0.51 -0.44,0.82 -1.26,3.08 -1.99,6.87 -2.19,11.36 -0.25,5.76 -0.28,9.46 -0.09,11.11z"/>
    <path class="fil1" d="M0.55 700l0.16 -0.51c-0.22,-0.01 -0.4,0.01 -0.54,0.04 -0.02,0.01 -0.04,0.01 -0.06,0.02 -0.11,0.07 -0.15,0.22 -0.08,0.33 0.01,0.02 0.02,0.03 0.03,0.05 0.08,0.08 0.24,0.1 0.48,0.07z"/>
   </g>
  </g>
 </g>
</svg>
