<?xml version="1.0" encoding="UTF-8"?>
<!DOCTYPE svg PUBLIC "-//W3C//DTD SVG 1.1//EN" "http://www.w3.org/Graphics/SVG/1.1/DTD/svg11.dtd">
<!-- Creator: CorelDRAW 2020 (64 Bit) -->
<svg xmlns="http://www.w3.org/2000/svg" xml:space="preserve" width="975px" height="805px" version="1.1" shape-rendering="geometricPrecision" text-rendering="geometricPrecision" image-rendering="optimizeQuality" fill-rule="evenodd" clip-rule="evenodd"
viewBox="0 0 304.66 251.54"
 xmlns:xlink="http://www.w3.org/1999/xlink"
 xmlns:xodm="http://www.corel.com/coreldraw/odm/2003">
 <g id="Camada_x0020_1">
  <metadata id="CorelCorpID_0Corel-Layer"/>
  <g id="_1256046989824">
   <path fill="#FEFEFE" fill-rule="nonzero" d="M220.89 174.97c-0.03,-0.05 -0.1,-0.09 -0.16,-0.09 -0.1,0 -0.17,0.08 -0.18,0.18 -0.15,7.4 -2.27,14.68 -6.37,20.51 -0.53,0.77 -1.1,1.36 -1.69,1.78 -0.08,0.05 -0.18,0.09 -0.27,0.09 -0.26,0 -0.47,-0.21 -0.47,-0.47 -0.04,-4.19 0.19,-7.22 -1.93,-10.54 -2.59,-4.03 -4.58,-7.6 -5.97,-10.7 -3.52,-7.85 -6.04,-14.05 -7.56,-18.63 -1.47,-4.46 -3.02,-9.05 -4.65,-13.74 -0.97,-2.81 -1.62,-5.17 -1.95,-7.11 -0.14,-0.73 0.15,-1.37 0.84,-1.93 2.95,-2.36 5.48,-4.53 7.59,-6.52 5.6,-5.28 10.12,-10.72 13.55,-16.33 1.82,-3.01 3.65,-6.75 5.48,-11.26 1.38,-3.41 2.51,-7.43 3.39,-12.06 2.6,-13.79 3.14,-28.25 -2.99,-41.16 -1.83,-3.87 -4.23,-7.75 -7.22,-11.66 -1.06,-1.4 -2.87,-2.85 -3.7,-3.9 -0.14,-0.18 -0.19,-0.43 -0.11,-0.64 0.13,-0.36 0.59,-1.23 1.39,-2.61 0.24,-0.42 1.21,-1.94 2.9,-4.55 2.82,-4.34 5.63,-7.13 9.91,-11.56 4.62,-4.8 9.9,-8.81 15.83,-12.04 0.02,-0.02 0.06,-0.03 0.09,-0.03 0.1,0 0.17,0.08 0.17,0.18 0,0 0,0 0,0 0.13,7.95 1.12,15.01 1.5,23.43 0.41,9.35 0.73,17.51 -0.2,25.87 0,0.02 0,0.03 0,0.05 0,0.16 0.11,0.32 0.27,0.38 6.01,2.25 11.96,5.61 17.24,10.01 4.01,3.33 7.53,6.43 10.57,9.29 0.85,0.79 1.72,1.89 2.63,3.27 0.2,0.3 0.36,0.61 0.47,0.96 0.57,1.66 1.08,3.56 1.53,5.7 0.78,3.71 2.3,6.89 4.55,9.58 0.65,0.78 3.32,3.11 7.96,6.99 4.32,3.61 7.27,5.97 8.87,7.09 2.92,2.05 6.93,4.71 12.01,7.98 0.28,0.18 0.45,0.5 0.45,0.84 0,0.14 -0.02,0.27 -0.09,0.41 -0.37,0.82 -0.95,1.73 -1.71,2.73 -3.75,4.87 -8.8,8.38 -13.88,11.58 -5.22,3.3 -9.57,5.28 -15.68,2.31 -7.35,-3.56 -14.82,-6.5 -22.41,-8.8 -3.76,-1.14 -7.06,-1.58 -10.58,0.47 -8.94,5.23 -8.65,18.46 -5.39,26.86 0.01,0.03 0.02,0.07 0.02,0.1 0,0.18 -0.14,0.33 -0.33,0.33 -0.08,0 -0.16,-0.03 -0.21,-0.08 -2.4,-2.28 -3.57,-5.51 -4.27,-8.65 0,-0.01 -0.01,-0.03 -0.01,-0.04 -0.09,-0.26 -0.37,-0.39 -0.65,-0.3 -0.02,0.01 -0.03,0.02 -0.06,0.03 -0.19,0.09 -0.27,0.3 -0.24,0.63 0.23,3.47 0.84,6.29 1.81,8.45 1.97,4.36 3.12,6.97 3.46,7.84 0.01,0.05 0.03,0.11 0.03,0.17 0,0.27 -0.21,0.49 -0.49,0.49 -0.07,0 -0.14,-0.01 -0.2,-0.04 -0.37,-0.17 -0.71,-0.44 -1.01,-0.8 -1.52,-1.81 -3.01,-3.85 -3.76,-4.12 -0.03,-0.01 -0.05,-0.02 -0.09,-0.02 -0.14,0 -0.26,0.12 -0.26,0.25 0,0.03 0.01,0.06 0.02,0.09 2.22,5.83 3.62,11.65 2.48,17.96 -0.02,0.11 -0.13,0.19 -0.24,0.19 -0.05,0 -0.09,-0.02 -0.13,-0.03 -0.06,-0.04 -0.12,-0.16 -0.17,-0.37 -0.74,-2.79 -1.44,-5.13 -2.11,-7.02 -0.25,-0.71 -0.48,-1.18 -0.69,-1.42 -0.08,-0.09 -0.2,-0.15 -0.32,-0.15 -0.24,0 -0.43,0.2 -0.43,0.43 0,0.02 0,0.04 0.01,0.06 0.85,6.01 0.46,11.72 -1.16,17.13 -0.87,2.9 -2.23,5.36 -3.78,7.82 -0.04,0.07 -0.12,0.1 -0.2,0.1 -0.13,0 -0.25,-0.1 -0.25,-0.24 0,-0.01 0,-0.01 0,-0.02 0.29,-2.64 0.27,-5.29 -0.1,-7.96 -0.14,-1.07 -0.2,-2.1 -0.71,-3l0.01 -0.02zm1.92 -131.58l0 8.72c0,0.2 0.17,0.37 0.37,0.37 0.04,0 0.07,0 0.1,-0.01 3.16,-0.82 5.43,-2.45 6.79,-4.87 0.71,-1.24 1.2,-3.05 1.5,-5.43 0.72,-5.89 0.74,-12.03 0.25,-17.94 -0.3,-3.68 -0.56,-8.02 -0.79,-13.03 -0.01,-0.25 -0.23,-0.45 -0.48,-0.45 -0.1,0 -0.21,0.04 -0.29,0.11 -4,3.21 -7.01,6.55 -9.78,11.05 -2.75,4.41 -4.21,6.8 -5.59,10.88 -0.2,0.59 -0.28,1.04 -0.27,1.37 0.01,0.19 0.1,0.37 0.24,0.48l2.15 1.92c0.04,0.04 0.08,0.05 0.14,0.05 0.09,0 0.17,-0.06 0.19,-0.16 1.71,-7.62 5.3,-14.38 10.79,-20.3 0.07,-0.08 0.17,-0.11 0.28,-0.11 0.19,0 0.35,0.15 0.37,0.33 0.74,8.83 0.75,16.97 0.03,24.42 -0.01,0.17 -0.09,0.39 -0.25,0.65 -0.04,0.09 -0.13,0.15 -0.24,0.15 -0.08,0 -0.17,-0.05 -0.22,-0.13l-1.54 -2.32c-0.11,-0.16 -0.28,-0.25 -0.46,-0.25 -0.24,0 -0.47,0.16 -0.54,0.39 -0.02,0.06 -0.01,0.18 0.06,0.37 1,3.03 1.54,4.31 1.18,6.68 -0.04,0.27 -0.28,0.48 -0.55,0.48 -0.21,0 -0.39,-0.11 -0.49,-0.29l-1.96 -3.37c-0.09,-0.17 -0.27,-0.27 -0.46,-0.27 -0.29,0 -0.53,0.24 -0.53,0.54 0,0 0,0 0,0l0 0 0 -0.03z"/>
   <path fill="#FEFEFE" fill-rule="nonzero" d="M261.05 7.22c-0.21,2.82 -0.71,6.16 -1.49,10.02 -0.36,1.76 -1.23,6.28 -2.61,13.54 -0.9,4.68 -1.56,8.27 -3.07,13.23 -0.63,2.08 -1.15,4.29 -1.58,6.64 -0.02,0.14 -0.14,0.24 -0.28,0.24 -0.05,0 -0.08,-0.01 -0.13,-0.02l-8.59 -3.96c-0.32,-0.15 -0.51,-0.48 -0.48,-0.82 0.56,-7.38 0.48,-15.09 -0.24,-23.11 -0.06,-0.66 0.31,-1.39 1.1,-2.21 4.95,-5.1 9.39,-8.98 13.31,-11.63 1.19,-0.81 2.45,-1.39 3.56,-2.19 0.06,-0.03 0.12,-0.05 0.18,-0.05 0.17,0 0.3,0.13 0.3,0.3 0,0.01 0,0.02 0,0.03l0.02 -0.01z"/>
  </g>
  <path fill="#C32425" fill-rule="nonzero" d="M104.76 175.47c-1.44,-0.69 -3.03,-0.77 -4.79,-0.28 -0.49,0.14 -0.9,0.48 -1.12,0.94 -1.17,2.36 -1.56,4.85 -1.18,7.48 0.19,1.34 0.26,2.35 0.18,3.04 -0.02,0.17 0,0.34 0.08,0.5 1.66,3.63 4.31,5.87 7.96,6.75 0.19,0.05 0.32,0.22 0.32,0.41 0,0.05 -0.01,0.08 -0.02,0.13 -1.64,5.2 -1.26,9.89 1.14,14.05 1.86,3.23 5.47,5.28 8.99,5.89 4.63,0.82 9.21,-1.47 10.99,-5.89 0.05,-0.13 0.16,-0.2 0.29,-0.2 0.14,0 0.25,0.08 0.3,0.2 0.67,1.83 0.96,3.68 0.85,5.55 -0.17,2.78 -1.57,4.5 -4.17,5.75 -2.4,1.15 -4.68,1.75 -6.82,1.81 -7.88,0.22 -14.78,-0.25 -20.71,-1.42 -6.66,-1.3 -13.64,-2.57 -20.75,-4.01 -9.32,-1.9 -18.92,-2.52 -28.79,-1.85 -0.66,0.04 -2.72,0.32 -6.16,0.83 -6.43,0.94 -12.75,2.47 -19.21,3.67 -5.18,0.97 -10.07,0.94 -14.7,-0.11 -2.54,-0.58 -4.85,-1.56 -5.45,-4.35 -0.56,-2.61 -0.62,-5.1 -0.18,-7.44 0.45,-2.39 2.89,-3.1 5.23,-3.34 4.81,-0.5 9.16,-1.71 13.06,-3.64 4.67,-2.31 7.62,-5.85 8.85,-10.63 1.22,-4.71 1.42,-9.28 0.62,-13.7 -1.66,-9.17 -1.92,-18.47 -0.8,-27.88 1.18,-9.95 2.11,-18.85 1.97,-28.3 -0.05,-2.92 -0.24,-5.44 -0.6,-7.55 -1.53,-9.3 -9.23,-14.18 -16.34,-19.13 -3.32,-2.32 -6.97,-6.4 -4.36,-10.53 2.6,-4.11 6.79,-4.49 11.37,-4.13 12.85,1.03 26.12,-0.06 38.09,-5.14 5.81,-2.47 11.83,-5.65 18.05,-9.54 6.42,-4.03 12.24,-7.2 17.46,-9.51 5.65,-2.5 10.3,-3.69 16.03,-3.01 3.76,0.45 3.03,3.9 2.56,6.66 -0.58,3.43 -2.16,6.71 -3.88,10.44 -1.3,2.81 -1.88,5.48 -2.62,9.12 -1.41,6.91 -1.46,13.75 -0.15,20.56 0.64,3.34 1.49,5.77 2.52,7.3 2.81,4.2 7.81,6.78 12.82,7.18 1.54,0.13 4,0.08 7.39,-0.11 6.37,-0.38 12.93,-2.19 18.33,-4.76 4.7,-2.25 8.9,-6.18 12.17,-10.3 2.77,-3.5 4.38,-8.46 5.52,-13.5 1.76,-7.85 1.65,-16.44 -0.94,-24.09 -1.98,-5.87 -4.4,-10.38 -9.02,-14.12 -2.83,-2.3 -5.06,-3.95 -6.68,-4.96 -2.07,-1.3 -4.6,-2.43 -7.61,-3.37 -5.36,-1.69 -11.01,-2.9 -16.93,-3.63 -6,-0.73 -12.19,-0.49 -18.13,-0.08 -1.59,0.11 -4.12,0.51 -7.54,1.2 -2.02,0.41 -4.44,1.17 -7.28,2.29 -0.4,0.16 -3.62,1.36 -9.67,3.59 -1.01,0.37 -4.35,1.97 -10.02,4.79 -3.89,1.95 -7.64,3.44 -10.75,4.94 -2.97,1.45 -5.67,2.34 -8.69,3.57 -1.18,0.48 -2.37,0.89 -3.56,1.2 -5.24,1.4 -10.47,2.13 -15.71,2.18 -2.96,0.04 -6.39,-0.05 -10.28,-0.25 -4.4,-0.23 -8.99,-1.41 -13.75,-3.53 -2.81,-1.25 -4.84,-3.05 -6.09,-5.36 -3.88,-7.22 -3.06,-17.01 1.8,-23.39 1.23,-1.61 3.03,-3.22 5.43,-4.83 4.41,-2.95 9.97,-4.51 15.16,-4.73 3.37,-0.14 6.06,-0.08 8.08,0.19 1.18,0.16 1.89,0.91 2.12,2.28 0.43,2.57 1.14,6.07 2.85,8.12 2.22,2.66 4.94,4.13 8.17,4.43 5.71,0.51 11.62,-1.17 17.84,-3.4 1.96,-0.71 4.32,-1.7 7.09,-3.01 6.63,-3.1 12.7,-5.63 18.23,-7.6 7.12,-2.52 14.18,-2.98 22.49,-3.35 11.58,-0.52 23.38,-0.31 35.39,0.64 4.51,0.36 8.26,0.88 11.23,1.58 3.47,0.79 5.61,1.29 6.42,1.47 3.16,0.72 5.29,1.26 6.37,1.64 6.59,2.3 12.44,5.22 18.45,8.97 7.56,4.71 13.76,10.73 18.61,18.07 3.39,5.13 5.25,11.57 6.37,17.67 1.43,7.78 0.34,17.31 -1.46,25.16 -0.46,2.02 -1.09,4.47 -1.87,7.34 -1.35,4.97 -3.95,9.56 -7.1,14.59 -3.14,5.02 -6.12,8.21 -10.91,12.47 -2.38,2.12 -5.26,4.52 -8.66,7.2 -3.85,3.04 -2.75,7.13 -1.41,11.7 3.12,10.55 6.67,20.78 10.65,30.67 3.07,7.64 6.64,14.51 10.7,20.65 1.98,2.99 4.66,5.02 8.03,6.1 2.26,0.72 4.44,1.3 6.53,1.75 2.52,0.53 6.39,2.13 8.42,3.57 3.79,2.7 6.58,8.12 3.76,12.48 -2.21,3.43 -7.59,4.62 -11.8,4.72 -5.12,0.1 -10.22,-0.33 -15.29,-1.33 -0.17,-0.03 -0.29,-0.17 -0.29,-0.34 0,-0.05 0.01,-0.09 0.03,-0.13 1.2,-3.14 1.01,-6.19 -0.57,-9.14 -2.72,-5.1 -6.98,-6.95 -12.77,-5.55 -4.78,1.14 -7.35,5.08 -9.6,9.25 -0.03,0.04 -0.07,0.07 -0.12,0.07 -0.06,0 -0.1,-0.03 -0.13,-0.07 -1.97,-3.32 -4.37,-7.06 -7.18,-11.23 -3.38,-5 -7.59,-9.7 -12.62,-14.11 -3.94,-3.45 -8.39,-6.25 -13.34,-8.4 -0.34,-0.14 -0.6,-0.43 -0.72,-0.8 -0.51,-1.73 -1.07,-3.75 -1.86,-5.66 -1.27,-3.07 -2.11,-5.24 -2.5,-6.52 -2.06,-6.72 -3.95,-13.45 -5.67,-20.19 -0.47,-1.88 -1.41,-4.28 -2.77,-7.18 -1.15,-2.47 -2.5,-4.34 -5.42,-4.62 -4.82,-0.45 -9.18,0 -13.04,1.35 -1.32,0.46 -3.1,1.17 -5.33,2.13 -2.93,1.26 -4.31,3.08 -4.64,6.02 -0.23,2.11 -0.36,5.38 -0.39,9.78 -0.02,3.37 -0.02,10.31 0.02,20.84 0,0.17 -0.14,0.31 -0.31,0.31 -0.04,0 -0.09,-0.01 -0.12,-0.03l0 0 -0.04 0.02zm22.17 5.74c0.12,-0.02 0.21,-0.13 0.21,-0.25 0,-0.1 -0.05,-0.19 -0.14,-0.24 -4.25,-2.22 -6.88,-5.63 -7.93,-10.23 -1.28,-5.68 2.28,-11.32 8.73,-10.23 2.82,0.47 4.87,2.88 4.4,5.79 -0.51,3.19 -4.48,4.93 -6.52,2.04 -0.94,-1.32 -0.83,-2.47 0.31,-3.45 0.06,-0.05 0.09,-0.13 0.09,-0.21 0,-0.16 -0.13,-0.29 -0.29,-0.29 -0.01,0 -0.02,0 -0.02,0 -2.54,0.28 -3.28,3.66 -2.88,5.82 0.3,1.58 1.3,3.18 3.03,4.81 2.44,2.3 5.33,3.81 8.67,4.52 5.13,1.09 10.97,2.09 15.74,4.83 7.08,4.06 12.98,9.22 17.9,15.71 2.35,3.09 4,5 5.66,7.62 2.13,3.35 4.48,7.77 7.04,13.26 0.05,0.12 0.12,0.19 0.19,0.23 0.02,0.01 0.04,0.03 0.07,0.03 0.22,0.07 0.46,-0.04 0.53,-0.27 0.01,-0.02 0.02,-0.05 0.02,-0.08 0.58,-4.27 2.18,-7.79 4.82,-10.57 4.49,-4.75 12.9,-4.45 15.01,2.42 1.48,4.83 -1.74,11.42 -7.52,10.36 -3.58,-0.66 -4.87,-4.49 -2.67,-7.31 1.28,-1.64 3.82,-1.58 4.75,0.39 0.27,0.57 0.13,1.42 -0.03,2.09 0,0.02 -0.01,0.04 -0.01,0.07 0,0.16 0.13,0.29 0.29,0.29 0.08,0 0.15,-0.03 0.21,-0.08 1.17,-1.18 1.5,-2.64 0.99,-4.38 -1.31,-4.46 -6.28,-3.59 -8.67,-0.67 -5.09,6.19 -4.38,15.29 -0.96,22.13 2.17,4.36 6.35,7.53 10.65,9.35 5.17,2.18 10.25,2.12 15.24,-0.18 2.53,-1.16 4.27,-3 5.21,-5.52 0.88,-2.33 1.04,-6.65 -1.11,-8.34 -1.08,-0.86 -2.38,-1.02 -3.9,-0.46 -1.27,0.46 -1.97,1.86 -1.25,3.09 0.07,0.1 0.15,0.19 0.25,0.25l1.05 0.67c0.19,0.12 0.29,0.33 0.28,0.55 -0.04,0.6 -0.35,1.12 -0.92,1.55 -0.46,0.36 -1.06,0.39 -1.79,0.08 -1.95,-0.8 -2.87,-2.27 -2.77,-4.39 0.2,-4.46 4.61,-7.01 8.72,-5.92 4.41,1.17 6.92,6.4 6.33,10.7 -0.21,1.48 -0.66,3.01 -1.33,4.57 -0.01,0.03 -0.02,0.06 -0.02,0.09 0,0.12 0.1,0.22 0.22,0.22 0,0 0,0 0,0 0.2,-0.01 0.36,-0.06 0.47,-0.18 2.68,-2.55 5.93,-5.11 8.7,-7.85 5.13,-5.09 9.76,-10.5 13.88,-16.24 1.56,-2.18 2.96,-4.86 4.2,-8.04 1.38,-3.58 2.25,-6.49 2.6,-8.7 0.48,-3.06 0.44,-6.27 -0.11,-9.62 -0.74,-4.43 -4.94,-9.44 -9.82,-6.48 -0.11,0.06 -0.17,0.17 -0.17,0.29 0,0.19 0.15,0.34 0.34,0.34 0,0 0.01,0 0.01,0 2.68,-0.04 4.14,1.23 4.38,3.8 0.16,1.69 -0.48,3.02 -1.94,4.01 -3.13,2.1 -7.17,0.33 -8.12,-3.23 -0.73,-2.74 -0.44,-5.36 1.61,-7.52 1.6,-1.68 3.51,-2.71 5.73,-3.06 4.84,-0.8 8.51,2.25 10.72,6.24 1.69,3.1 2.45,6.39 2.26,9.88 -0.23,4.19 -1.03,8.38 -2.4,12.59 -0.68,2.09 -1.76,4.46 -3.21,7.1 -1.56,2.8 -2.9,5.03 -4.02,6.69 -0.03,0.05 -0.05,0.12 -0.05,0.19 0,0.18 0.15,0.33 0.34,0.33 4.86,-0.01 9.1,1.46 11.9,5.57 3.31,4.86 2.32,12.18 -3.47,14.56 -4.64,1.9 -10.86,-0.15 -10.67,-6.07 0.08,-2.41 1.26,-3.84 3.54,-4.3 3.83,-0.75 6.65,2.84 4.75,6.32 -0.02,0.04 -0.04,0.09 -0.04,0.15 0,0.16 0.13,0.29 0.29,0.29 0.07,0 0.14,-0.03 0.19,-0.07 3.43,-2.58 3.93,-5.54 1.53,-8.91 -1.32,-1.84 -3.95,-2.95 -6.46,-2.87 -4.01,0.11 -6.37,1.68 -9.2,4.43 -0.66,0.64 -3.2,3.26 -7.59,7.85 -2.33,2.42 -4.18,4.14 -5.58,5.12 -2.2,1.56 -4.32,2.94 -6.38,4.12 -4.8,2.76 -10.41,3.54 -15.95,2.95 -1.86,-0.2 -4.48,-0.83 -7.85,-1.89 -2.56,-0.81 -5.11,-2.2 -7.63,-4.18 -3.75,-2.94 -6.73,-4.62 -11.19,-2.47 -1.85,0.88 -1.1,3.53 -2.95,4.5 -1.89,0.98 -3.75,0.94 -5.57,-0.13 -1.61,-0.95 -2.09,-2.37 -1.44,-4.28 0.63,-1.81 1.89,-2.99 3.77,-3.54 0.76,-0.22 1.81,-0.43 2.3,0.16 0.1,0.12 0.22,0.2 0.37,0.23 0.12,0.04 0.25,0.01 0.41,-0.07 2.67,-1.31 5.41,-1.56 8.22,-0.74 0.07,0.01 0.13,0.01 0.19,0 0.24,-0.03 0.41,-0.26 0.37,-0.49 0,-0.07 -0.03,-0.13 -0.07,-0.18 -3.03,-4.41 -5.17,-7.91 -8.38,-10.94 -5.34,-5.04 -11.64,-6.63 -18.93,-4.79 -3.43,0.87 -6.37,3.46 -7.99,6.55 -0.58,1.12 -0.79,2.46 -0.6,4 0.26,2.16 1.47,3.66 3.66,4.49 0.05,0.01 0.11,0.02 0.17,0.01 0.19,-0.02 0.33,-0.2 0.32,-0.4 -0.01,-0.06 -0.03,-0.11 -0.07,-0.16 -0.93,-1.33 -1.18,-2.8 -0.72,-4.4 1.15,-4.07 6.22,-4.06 8.64,-1.39 0.8,0.88 1.21,2.12 1.25,3.71 0.05,2.29 -0.78,4.14 -2.5,5.57 -3.74,3.08 -9.12,2.63 -12.54,-0.69 -1.69,-1.65 -2.59,-3.82 -2.69,-6.52 -0.13,-3.74 1.08,-6.99 3.63,-9.73 3.88,-4.16 8.66,-6.19 14.31,-6.07 0,0 0.01,0 0.01,0 0.16,0 0.29,-0.14 0.29,-0.3 0,-0.01 0,-0.02 0,-0.04 -0.14,-0.99 -0.51,-2.17 -0.24,-3.04 0.87,-2.76 4.54,-3.42 5.61,-0.35 0.39,1.12 -0.55,2.17 -0.73,3.03 -0.01,0.05 -0.02,0.1 -0.02,0.16 0,0.31 0.19,0.59 0.48,0.71 3.49,1.41 6.02,2.3 8.47,4.25 0.05,0.04 0.09,0.05 0.15,0.05 0.13,0 0.23,-0.1 0.23,-0.23 0,-0.02 0,-0.03 -0.01,-0.05 -0.04,-0.16 -0.12,-0.37 -0.25,-0.61 -1.75,-3.17 -3.54,-6.29 -5.37,-9.39 -2.2,-3.72 -4.22,-6.69 -6.09,-8.9 -3.02,-3.58 -5.81,-6.45 -8.38,-8.6 -6.83,-5.74 -16.75,-10.28 -25.72,-8.92 -4.44,0.67 -8.26,1.58 -11.83,4.36 -4.44,3.45 -7.61,8.8 -5.72,14.25 1,2.87 4.65,5.23 7.36,2.94 0.05,-0.04 0.09,-0.11 0.09,-0.17 0,-0.13 -0.1,-0.24 -0.23,-0.24 -5.71,-0.28 -3.95,-9.79 2.44,-7.34 1.99,0.76 3.18,2.23 3.56,4.4 0.84,4.69 -3.2,8.33 -7.73,8.55 -3.34,0.17 -6.25,-1.41 -8.03,-4.26 -2.14,-3.43 -2.74,-7.17 -1.78,-11.2 0.39,-1.65 1.31,-3.35 2.07,-4.83 0.03,-0.06 0.04,-0.12 0.04,-0.18 0,-0.21 -0.17,-0.38 -0.38,-0.39 -1.36,-0.06 -2.79,0.67 -4.08,0.4 -2.69,-0.59 -3.62,-2.12 -4.95,-4.64 -0.1,-0.18 -0.15,-0.39 -0.17,-0.6l-0.11 -1.72c-0.01,-0.1 -0.04,-0.21 -0.1,-0.31 -1.05,-1.74 -1.15,-3.62 -0.3,-5.64 0.34,-0.78 0.77,-1.23 1.29,-1.35 1.61,-0.38 2.44,0.79 3.63,2.15 0.14,0.15 0.3,0.26 0.48,0.32 1.32,0.46 2.55,1.17 3.72,2.13 0.2,0.17 0.31,0.43 0.27,0.7 -0.3,2.58 0.83,4.2 3.37,4.85 0.23,0.07 0.49,0.02 0.7,-0.13 4.06,-3.12 8.48,-5.18 13.26,-6.15l0.07 0.03zm34.88 26.57c0,0 0,0 0,0 0.12,0.17 0.08,0.39 -0.09,0.51 0,0 0,0 0,0 -1.96,1.33 -3.05,3.04 -3.28,5.11 -0.04,0.32 0.08,0.78 0.02,0.98 -0.04,0.18 -0.19,0.32 -0.39,0.34 -2.29,0.26 -4.43,0.87 -6.41,1.85 -0.05,0.03 -0.12,0.05 -0.19,0.05 -0.17,0 -0.33,-0.12 -0.39,-0.29 -1.96,-6.61 -1.18,-12.91 -0.65,-19.88 0.01,-0.09 0.08,-0.16 0.18,-0.16 0.04,0 0.07,0.01 0.1,0.03 4.37,2.88 8.01,7.16 11.1,11.45l0 0.01z"/>
 </g>
</svg>
